<svg width="301" height="241" viewBox="0 0 301 241" fill="none" xmlns="http://www.w3.org/2000/svg">
<path d="M165.819 221.421C154.722 227.234 145.739 227.763 134.642 221.421L24.1989 155.367C19.9715 151.14 19.4522 145.331 24.199 142.685L134.642 77.1587C145.21 70.8176 154.722 71.346 165.819 77.1587L270.449 137.929C283.132 144.798 279.433 152.197 268.336 159.594L165.819 221.421Z" fill="#0F0E0E" stroke="white" stroke-width="0.5"/>
<g filter="url(#filter0_d_34_68)">
<path d="M273.62 140.043C280.795 146.972 279.065 151.183 269.393 159.067V174.391L277.848 169.635C280.189 167.535 280.573 166.092 280.49 163.294V151.669C280.416 144.747 278.493 142.583 273.62 140.043Z" fill="#40944D"/>
</g>
<g filter="url(#filter1_d_34_68)">
<path d="M51.6776 171.22V186.545L23.6706 169.635C21.0284 167.521 20.5001 165.407 20.5 161.708V148.497C21.5569 151.139 23.1422 154.31 24.7275 154.839L51.6776 171.22Z" fill="#40944D"/>
</g>
<g filter="url(#filter2_d_34_68)">
<path d="M64.8884 194.471V179.675L73.3434 184.959V199.755L64.8884 194.471Z" fill="#40944D"/>
</g>
<path d="M51.6775 186.545L134.113 236.218M134.113 236.218V221.23M134.113 236.218C143.72 242.058 156.308 242.031 165.819 236.218M165.819 236.218L168.236 234.775M165.819 236.218V234.104M165.819 221.422V225.121M256.182 182.277L269.393 159.067V163.294M256.182 182.277L259.881 180.069M256.182 182.277L252.573 184.431M259.881 180.069L269.393 163.294M259.881 180.069L263.58 177.861M269.393 163.294V166.993M269.393 166.993L263.58 177.861M269.393 166.993V170.692M263.58 177.861L266.486 176.126M266.486 176.126L269.393 174.391V170.692M266.486 176.126L269.393 170.692M252.573 184.431L265.165 161.709M252.573 184.431L249.312 186.378M249.312 186.378L260.938 164.351M249.312 186.378L245.085 188.902M245.085 188.902L255.653 167.521M245.085 188.902L240.857 191.425M240.857 191.425L250.897 170.164M240.857 191.425L237.158 193.633M237.158 193.633L246.141 172.806M237.158 193.633L232.632 196.335M232.632 196.335L241.385 175.976M232.632 196.335L227.786 199.228M227.786 199.228L236.63 178.619M227.786 199.228L223.947 201.519M223.947 201.519L231.874 181.789M223.947 201.519L220.248 203.727M220.248 203.727L227.786 183.903M220.248 203.727L216.549 205.935M216.549 205.935L222.89 187.074M216.549 205.935L212.737 208.211M212.737 208.211L218.663 189.716M212.737 208.211L209.151 210.352M209.151 210.352L214.435 192.358M209.151 210.352L205.98 212.244M205.98 212.244L210.208 195M205.98 212.244L202.281 214.452M202.281 214.452L205.98 197.114M202.281 214.452L197.688 217.194M197.688 217.194L202.281 199.228M197.688 217.194L193.298 219.815M193.298 219.815L197.688 202.144M193.298 219.815L188.836 222.479M188.836 222.479L193.298 205.04M188.836 222.479L184.409 225.121M184.409 225.121C184.334 224.698 187.485 213.319 189.07 207.683M184.409 225.121L179.559 228.016M179.559 228.016L183.786 210.853M179.559 228.016L175.557 230.405M175.557 230.405L180.087 212.967M175.557 230.405L171.632 232.748M171.632 232.748L175.86 215.609M171.632 232.748L168.236 234.775M168.236 234.775L172.161 217.723M165.819 234.104L168.99 219.815M165.819 234.104V225.121M165.819 225.121L166.876 220.893" stroke="white" stroke-width="0.5"/>
<path d="M222.934 8.89667L165.8 46.7241C165.439 54.2598 179.752 58.486 183.334 47.5722C190.085 50.1778 195.654 47.7941 196.838 41.5788C204.718 42.9107 211.155 37.2873 209.944 28.7452C223.216 33.2917 233.029 17.8137 222.934 8.89667Z" fill="#3F6060"/>
<path d="M71.5472 94.6063C68.3254 93.0822 68.5568 89.6287 70.7948 88.1818L149.598 42.2111C154.535 39.3309 158.649 39.2936 164.933 42.2111L220.868 74.5854C224.433 76.8186 226.411 78.6434 224.786 81.4389C223.975 82.6224 222.386 83.7584 219.384 85.2015L145.238 128.556C140.8 131.295 135.11 131.117 130.361 128.556L71.5472 94.6063Z" fill="#225D2B"/>
<path d="M165.784 47.2943L159.887 57.5384H166.138L184.478 98.2038L207.783 84.2107C208.151 77.7559 206.564 72.9455 203.138 67.4637L186.115 64.592L188.066 54.8391L193.917 47.6624L193.108 46.8159C190.347 48.8769 186.446 48.8401 183.172 47.2943C180.852 56.9737 166.793 55.3911 165.784 47.2943Z" fill="#769191"/>
<path d="M165.784 46.8159C163.918 43.2686 167.056 37.2203 171.112 36.5285C166.729 31.4303 168.415 21.1805 177.284 20.954C176.027 14.6845 180.681 7.82006 189.512 9.8201C190.116 -1.8417 207.515 -3.31371 210.647 6.46114C215.87 3.83321 221.328 6.4611 223.744 9.82009C224.763 21.5954 214.36 25.6606 207.024 23.3692C207.477 32.3894 201.71 37.2792 193.917 36.3522C192.72 41.787 186.531 45.5234 180.303 41.9757C178.152 50.8826 167.547 49.0711 165.784 46.8159Z" fill="#769191"/>
<path d="M130.032 65.8284L124.861 72.0935L125.692 73.6031L137.467 74.3202L143.355 71.4896L130.032 65.8284Z" fill="#769191"/>
<path d="M182.704 57.6316L174.79 72.1615L185.068 65.257C182.541 62.0421 182.575 60.3503 182.704 57.6316Z" fill="#270F13"/>
<path d="M203.154 67.5257C201.209 71.2809 193.134 70.9918 188.029 67.7148L188.754 69.2903L187.62 89.2361C190.366 90.0156 192.598 89.6142 192.409 85.3288C193.273 85.1941 193.799 84.9277 194.993 83.2807L203.154 67.5257Z" fill="#270F13"/>
<path d="M203.558 67.1348C202.014 70.621 195.957 71.4859 190.141 68.9099C184.325 66.3339 180.952 61.2924 182.496 57.8061C184.04 54.3199 190.007 53.582 195.823 56.158C201.639 58.7341 205.102 63.6485 203.558 67.1348Z" fill="#3E111A"/>
<path d="M109.825 62.9241L103.282 72.1091L96.8428 60.9228L113.006 50.7885L120.421 64.4634V66.4647L122.089 67.5166L125.912 73.5459L123.756 73.3919L109.825 62.9241Z" fill="#3D8849"/>
<path d="M113.084 50.7723C114.676 53.5393 112.266 58.0597 107.65 60.7161C103.034 63.3725 97.9601 63.1591 96.3678 60.3921C94.7755 57.6252 97.2267 53.2286 101.843 50.5722C106.459 47.9157 111.492 48.0053 113.084 50.7723Z" fill="#4FA75D"/>
<path d="M190.618 58.6668C189.474 56.8041 190.109 55.1233 191.918 53.0876L202.014 58.0794L199.972 61.248C197.288 63.8004 192.423 61.248 190.618 58.6668Z" fill="#233563"/>
<ellipse cx="196.995" cy="55.5147" rx="5.65696" ry="3.37987" transform="rotate(23.1491 196.995 55.5147)" fill="#344C60"/>
<path d="M101.882 55.896C100.036 56.0059 99.036 54.8616 98.2394 52.7007L105.99 47.1628L107.538 49.9494C108.371 52.9692 104.527 55.5796 101.882 55.896Z" fill="#233563"/>
<ellipse cx="102.075" cy="49.8826" rx="4.78448" ry="2.85859" transform="rotate(-38.708 102.075 49.8826)" fill="#344C60"/>
<path d="M92.4049 83.8643L94.2737 84.5111L109.799 62.805L123.814 73.2987L139.77 74.1612L142.539 71.6476L129.717 65.9158L124.765 62.5609L135.787 46.6292L144.755 53.1421L152.921 48.5329C155.868 46.7438 157.931 46.9297 161.038 48.5329L164.244 50.3365L160.086 57.3505H166.148L184.484 98.232L181.579 99.735L139.77 74.1612L157.38 113.477L142.142 122.173C138.524 124.305 136.526 124.048 132.942 122.173L117.848 113.477L109.008 94.2142L100.095 103.27L85.4752 94.9491C82.4698 92.9304 81.7071 89.835 84.9817 87.8612L92.4049 83.8643Z" fill="#0E2C2C"/>
<path d="M207.802 84.1996C207.835 79.4269 207.237 77.0282 206.073 74.1351C211.013 76.358 214.038 79.8466 208.975 83.4278L207.802 84.1996Z" fill="#0E2C2C"/>
<path d="M181.288 99.9525C182.011 74.3465 153.274 63.1088 137.3 74.3465L140.029 74.8282L157.392 113.951L181.288 99.9525Z" fill="#204545"/>
<path d="M108.913 93.7256L99.912 103.236L118.763 114.318L108.913 93.7256Z" fill="#204545"/>
<path d="M103.309 72.242L94.3075 84.4273L91.8875 83.0686L100.846 67.6141L103.309 72.242Z" fill="#204545"/>
<path d="M129.876 66.2181L125.066 72.242L122.06 67.6141L120.457 66.5188V64.4146L116.198 56.3986L129.876 66.2181Z" fill="#204545"/>
<path d="M69.1282 91.3134C69.2788 93.5765 70.7813 93.8674 73.2484 95.5574L128.966 127.756C134.847 131.035 140.878 131.396 146.471 127.756L220.418 84.575L220.47 84.5457C222.666 83.3197 225.253 81.8757 225.264 79.9977C225.266 91.4475 226.595 92.2686 220.65 95.8781L147.459 138.589C140.39 142.632 133.749 141.802 127.697 138.589L72.3723 106.471C70.3448 105.323 69.1278 104.343 69.1278 102.619L69.1282 91.3134C69.1116 91.0638 69.1115 90.7902 69.1283 90.4881L69.1282 91.3134Z" fill="black"/>
<g filter="url(#filter3_d_34_68)">
<path d="M88.5854 148.994L80.4102 111.468L128.056 138.708C133.584 141.571 139.901 142.558 147.008 138.708L213.293 100.236L207.586 139.827C207.116 142.218 206.92 143.652 204.762 144.693L147.99 177.435C143.29 180.447 138.695 180.395 133.872 177.435L91.9986 153.524C89.1727 151.808 89.0749 150.793 88.5854 148.994Z" fill="url(#paint0_linear_34_68)"/>
</g>
<path d="M177.214 135.826L178.671 133.865L176.878 131.849C175.253 130.28 174.532 131.128 173.797 132.409L171.668 136.779H168.587L172.004 129.664C174.001 126.014 177.606 125.518 179.399 127.143L181.528 129.664L183.152 128.431L182.032 134.93L177.214 135.826Z" fill="white"/>
<path d="M185.731 133.865L182.534 137.986C186.441 141.36 183.051 144.674 178.671 146.243V144.112L174.81 150.46L178.671 152.28V150.46C182.534 149.173 184.658 147.497 186.885 143.668C189.016 139.495 187.995 136.477 185.731 133.865Z" fill="white"/>
<path d="M172.279 149.75C167.527 154.571 165.054 151.755 169.66 144.423L171.436 144.112L170.104 139.451L164.955 144.112L166.49 144.297C165.702 146.259 165.261 147.448 164.494 150.238C163.539 154.218 164.494 159.067 172.454 153.62L172.279 149.75Z" fill="white"/>
<defs>
<filter id="filter0_d_34_68" x="249.393" y="120.043" width="51.1074" height="74.3483" filterUnits="userSpaceOnUse" color-interpolation-filters="sRGB">
<feFlood flood-opacity="0" result="BackgroundImageFix"/>
<feColorMatrix in="SourceAlpha" type="matrix" values="0 0 0 0 0 0 0 0 0 0 0 0 0 0 0 0 0 0 127 0" result="hardAlpha"/>
<feOffset/>
<feGaussianBlur stdDeviation="10"/>
<feComposite in2="hardAlpha" operator="out"/>
<feColorMatrix type="matrix" values="0 0 0 0 0.25098 0 0 0 0 0.580392 0 0 0 0 0.301961 0 0 0 1 0"/>
<feBlend mode="normal" in2="BackgroundImageFix" result="effect1_dropShadow_34_68"/>
<feBlend mode="normal" in="SourceGraphic" in2="effect1_dropShadow_34_68" result="shape"/>
</filter>
<filter id="filter1_d_34_68" x="0.5" y="128.497" width="71.1777" height="78.0472" filterUnits="userSpaceOnUse" color-interpolation-filters="sRGB">
<feFlood flood-opacity="0" result="BackgroundImageFix"/>
<feColorMatrix in="SourceAlpha" type="matrix" values="0 0 0 0 0 0 0 0 0 0 0 0 0 0 0 0 0 0 127 0" result="hardAlpha"/>
<feOffset/>
<feGaussianBlur stdDeviation="10"/>
<feComposite in2="hardAlpha" operator="out"/>
<feColorMatrix type="matrix" values="0 0 0 0 0.25098 0 0 0 0 0.580392 0 0 0 0 0.301961 0 0 0 1 0"/>
<feBlend mode="normal" in2="BackgroundImageFix" result="effect1_dropShadow_34_68"/>
<feBlend mode="normal" in="SourceGraphic" in2="effect1_dropShadow_34_68" result="shape"/>
</filter>
<filter id="filter2_d_34_68" x="44.8884" y="159.675" width="48.4548" height="60.0806" filterUnits="userSpaceOnUse" color-interpolation-filters="sRGB">
<feFlood flood-opacity="0" result="BackgroundImageFix"/>
<feColorMatrix in="SourceAlpha" type="matrix" values="0 0 0 0 0 0 0 0 0 0 0 0 0 0 0 0 0 0 127 0" result="hardAlpha"/>
<feOffset/>
<feGaussianBlur stdDeviation="10"/>
<feComposite in2="hardAlpha" operator="out"/>
<feColorMatrix type="matrix" values="0 0 0 0 0.25098 0 0 0 0 0.580392 0 0 0 0 0.301961 0 0 0 1 0"/>
<feBlend mode="normal" in2="BackgroundImageFix" result="effect1_dropShadow_34_68"/>
<feBlend mode="normal" in="SourceGraphic" in2="effect1_dropShadow_34_68" result="shape"/>
</filter>
<filter id="filter3_d_34_68" x="60.4102" y="80.2365" width="172.883" height="119.438" filterUnits="userSpaceOnUse" color-interpolation-filters="sRGB">
<feFlood flood-opacity="0" result="BackgroundImageFix"/>
<feColorMatrix in="SourceAlpha" type="matrix" values="0 0 0 0 0 0 0 0 0 0 0 0 0 0 0 0 0 0 127 0" result="hardAlpha"/>
<feOffset/>
<feGaussianBlur stdDeviation="10"/>
<feComposite in2="hardAlpha" operator="out"/>
<feColorMatrix type="matrix" values="0 0 0 0 0.25098 0 0 0 0 0.580392 0 0 0 0 0.301961 0 0 0 0.6 0"/>
<feBlend mode="normal" in2="BackgroundImageFix" result="effect1_dropShadow_34_68"/>
<feBlend mode="normal" in="SourceGraphic" in2="effect1_dropShadow_34_68" result="shape"/>
</filter>
<linearGradient id="paint0_linear_34_68" x1="146.852" y1="100.236" x2="146.852" y2="179.675" gradientUnits="userSpaceOnUse">
<stop stop-color="#40944D"/>
<stop offset="1" stop-color="#0F3A16"/>
</linearGradient>
</defs>
</svg>
