<svg width="300" height="241" viewBox="0 0 300 241" fill="none" xmlns="http://www.w3.org/2000/svg">
<path d="M165.319 221.563C154.222 227.376 145.239 227.904 134.142 221.563L23.6989 155.509C19.4715 151.281 18.9522 145.472 23.699 142.826L134.142 77.3003C144.71 70.9592 154.222 71.4876 165.319 77.3003L269.949 138.07C282.632 144.94 278.933 152.338 267.836 159.736L165.319 221.563Z" fill="#0F0E0E" stroke="white" stroke-width="0.5"/>
<g filter="url(#filter0_d_51_377)">
<path d="M273.12 140.185C280.295 147.114 278.565 151.324 268.893 159.208V174.533L277.348 169.777C279.689 167.677 280.073 166.233 279.99 163.436V151.81C279.916 144.889 277.993 142.725 273.12 140.185Z" fill="#40944D"/>
</g>
<g filter="url(#filter1_d_51_377)">
<path d="M51.1776 171.362V186.686L23.1706 169.776C20.5284 167.663 20.0001 165.549 20 161.85V148.639C21.0569 151.281 22.6422 154.452 24.2275 154.98L51.1776 171.362Z" fill="#40944D"/>
</g>
<g filter="url(#filter2_d_51_377)">
<path d="M64.3884 194.613V179.816L72.8434 185.101V199.897L64.3884 194.613Z" fill="#40944D"/>
</g>
<path d="M51.1775 186.687L133.613 236.36M133.613 236.36V221.372M133.613 236.36C143.22 242.2 155.808 242.172 165.319 236.36M165.319 236.36L167.736 234.917M165.319 236.36V234.246M165.319 221.563V225.262M255.682 182.419L268.893 159.208V163.436M255.682 182.419L259.381 180.211M255.682 182.419L252.073 184.573M259.381 180.211L268.893 163.436M259.381 180.211L263.08 178.003M268.893 163.436V167.135M268.893 167.135L263.08 178.003M268.893 167.135V170.834M263.08 178.003L265.986 176.268M265.986 176.268L268.893 174.533V170.834M265.986 176.268L268.893 170.834M252.073 184.573L264.665 161.85M252.073 184.573L248.812 186.52M248.812 186.52L260.438 164.492M248.812 186.52L244.585 189.043M244.585 189.043L255.153 167.663M244.585 189.043L240.357 191.567M240.357 191.567L250.397 170.305M240.357 191.567L236.658 193.775M236.658 193.775L245.641 172.947M236.658 193.775L232.132 196.477M232.132 196.477L240.885 176.118M232.132 196.477L227.286 199.369M227.286 199.369L236.13 178.76M227.286 199.369L223.447 201.661M223.447 201.661L231.374 181.931M223.447 201.661L219.748 203.869M219.748 203.869L227.286 184.045M219.748 203.869L216.049 206.077M216.049 206.077L222.39 187.215M216.049 206.077L212.237 208.353M212.237 208.353L218.163 189.857M212.237 208.353L208.651 210.493M208.651 210.493L213.935 192.5M208.651 210.493L205.48 212.386M205.48 212.386L209.708 195.142M205.48 212.386L201.781 214.594M201.781 214.594L205.48 197.255M201.781 214.594L197.188 217.336M197.188 217.336L201.781 199.369M197.188 217.336L192.798 219.957M192.798 219.957L197.188 202.286M192.798 219.957L188.336 222.62M188.336 222.62L192.798 205.182M188.336 222.62L183.909 225.262M183.909 225.262C183.834 224.84 186.985 213.461 188.57 207.824M183.909 225.262L179.059 228.158M179.059 228.158L183.286 210.995M179.059 228.158L175.057 230.547M175.057 230.547L179.587 213.108M175.057 230.547L171.132 232.89M171.132 232.89L175.36 215.751M171.132 232.89L167.736 234.917M167.736 234.917L171.661 217.864M165.319 234.246L168.49 219.957M165.319 234.246V225.262M165.319 225.262L166.376 221.035" stroke="white" stroke-width="0.5"/>
<g filter="url(#filter3_d_51_377)">
<path d="M80.8167 87.8038L127.756 114.712V169.487L80.8167 142.578V87.8038Z" fill="url(#paint0_linear_51_377)"/>
</g>
<path d="M80.7688 87.8876L127.708 114.796L216.53 63.1012L169.551 36.2388L80.7688 87.8876Z" fill="#4B9456"/>
<path d="M169.545 46.66L203.129 66.0429L128.029 109.714L94.2458 90.5191L169.545 46.66Z" fill="#0E2C2C"/>
<path d="M169.527 41.2924V46.6765L94.2575 90.5186L89.4451 87.6953L169.527 41.2924Z" fill="#215D2B"/>
<path d="M169.527 41.2924V46.6764L203.131 66.0414L207.978 63.2795L169.527 41.2924Z" fill="#215D2B"/>
<g filter="url(#filter4_d_51_377)">
<path d="M127.756 114.713L216.53 63.0997V117.874L127.756 169.487V114.713Z" fill="url(#paint1_linear_51_377)"/>
</g>
<path d="M80.8167 142.566L127.756 169.474V176.932L80.8167 150.023L80.8167 142.566Z" fill="black"/>
<path d="M127.756 169.474L150.041 156.54V163.997L127.756 176.931L127.756 169.474Z" fill="black"/>
<path d="M150.041 156.533L176.67 172.359V179.816L150.041 163.991L150.041 156.533Z" fill="black"/>
<path d="M150.041 132.093L176.67 147.919V172.366L150.041 156.541L150.041 132.093Z" fill="url(#paint2_linear_51_377)"/>
<path d="M150.115 132.129L194.118 105.274L219.231 123.418L176.631 147.975L150.115 132.129Z" fill="#4B9456"/>
<path d="M159.65 133.808L193.391 112.752L209.341 124.943L176.944 143.967L159.65 133.808Z" fill="#0E2C2C"/>
<path d="M157.144 132.287L193.44 110.119V113.243L159.651 133.808L157.144 132.287Z" fill="#215D2B"/>
<path d="M211.779 123.317L193.391 110.119V113.243L209.34 124.942L211.779 123.317Z" fill="#215D2B"/>
<path d="M176.67 172.359L188.482 165.549V173.007L176.67 179.816L176.67 172.359Z" fill="black"/>
<path d="M207.412 154.672L219.224 147.862V155.32L207.412 162.13L207.412 154.672Z" fill="black"/>
<path d="M176.67 147.924L219.225 123.415V147.862L176.67 172.372L176.67 147.924Z" fill="url(#paint3_linear_51_377)"/>
<path d="M188.482 150.852L207.414 162.113L188.482 173.002L188.482 150.852Z" fill="#0E2C2C"/>
<path d="M207.413 162.13L188.482 150.869L207.413 139.98L207.413 162.13Z" fill="black"/>
<path d="M134.174 119.663L213.948 73.5378V87.0522L134.174 132.075V119.663Z" fill="#769191"/>
<path d="M135.447 120.331L146.246 114.114V122.608L135.447 128.855V120.331Z" fill="#3F6060"/>
<path d="M148.616 112.58L159.415 106.363V114.856L148.616 121.104V112.58Z" fill="#3F6060"/>
<path d="M161.785 105.062L172.584 98.8453V107.339L161.785 113.586V105.062Z" fill="#3F6060"/>
<path d="M174.954 97.5441L185.753 91.3274V99.8208L174.954 106.068V97.5441Z" fill="#3F6060"/>
<path d="M188.122 90.0263L198.921 83.8096V92.303L188.122 98.5502V90.0263Z" fill="#3F6060"/>
<path d="M201.291 82.2356L212.09 76.0189V84.5123L201.291 90.7596V82.2356Z" fill="#3F6060"/>
<path d="M135.447 128.824L146.246 122.607L147.231 122.952L135.447 129.785V128.824Z" fill="#4C6666"/>
<path d="M148.616 121.073L159.415 114.856L160.4 115.201L148.616 122.034V121.073Z" fill="#4C6666"/>
<path d="M161.785 113.555L172.584 107.338L173.569 107.683L161.785 114.517V113.555Z" fill="#4C6666"/>
<path d="M174.954 106.037L185.753 99.8206L186.738 100.165L174.954 106.999V106.037Z" fill="#4C6666"/>
<path d="M188.122 98.5195L198.921 92.3028L199.907 92.6472L188.122 99.4809V98.5195Z" fill="#4C6666"/>
<path d="M201.291 90.7288L212.09 84.5121L213.075 84.8565L201.291 91.6901V90.7288Z" fill="#4C6666"/>
<path d="M146.246 114.117L147.234 113.479V122.952L146.246 122.607V114.117Z" fill="#8AA5A5"/>
<path d="M159.415 106.366L160.402 105.728V115.201L159.415 114.856V106.366Z" fill="#8AA5A5"/>
<path d="M172.583 98.8481L173.571 98.2097V107.683L172.583 107.338V98.8481Z" fill="#8AA5A5"/>
<path d="M185.752 91.3302L186.74 90.6918V100.165L185.752 99.8205V91.3302Z" fill="#8AA5A5"/>
<path d="M198.921 83.8124L199.909 83.174V92.6473L198.921 92.3028V83.8124Z" fill="#8AA5A5"/>
<path d="M212.09 76.0217L213.078 75.3834V84.8567L212.09 84.5121V76.0217Z" fill="#8AA5A5"/>
<path d="M133.435 119.273L213.017 73.019L213.947 73.5403L134.172 119.665L133.435 119.273Z" fill="#8AA5A5"/>
<path d="M133.435 119.278L134.178 119.663V132.069L133.435 131.735L133.435 119.278Z" fill="#4C6666"/>
<ellipse cx="133.087" cy="43.4669" rx="7.08254" ry="4.21102" fill="#236D6D"/>
<path d="M122.086 93.2502C120.267 91.9114 119.518 90.5726 119.518 89.0318V85.1093H146.66C146.66 90.6406 146.66 91.1057 144.037 93.2502C137.116 98.6053 124.963 95.3682 122.086 93.2502Z" fill="#204545"/>
<path d="M132.937 40.5394C129.945 40.5394 128.259 41.7477 128.259 44.052H137.869C137.869 41.8039 135.846 40.5394 132.937 40.5394Z" fill="#114545"/>
<ellipse cx="133.092" cy="85.0222" rx="13.577" ry="7.94351" fill="#3F6060"/>
<ellipse cx="133.092" cy="69.0038" rx="10.0914" ry="5.90421" fill="#4B9456"/>
<ellipse cx="133.066" cy="44.1409" rx="4.8175" ry="2.51336" fill="#0E2C2C"/>
<path d="M123.064 69.2442C123.064 72.3569 128.542 74.3906 133.087 74.3906C137.631 74.3906 143.11 72.7304 143.11 69.2442V84.3512C143.11 87.0074 140.08 89.2485 133.087 89.2485C126.093 89.2485 123.064 86.0528 123.064 84.3512V69.2442Z" fill="#2E7439"/>
<path d="M126.004 43.467C126.004 45.6666 129.875 47.1036 133.087 47.1036C136.298 47.1036 140.169 45.9305 140.169 43.467V68.1168C140.169 69.9938 138.028 71.5775 133.087 71.5775C128.145 71.5775 126.004 69.3193 126.004 68.1168V43.467Z" fill="#114545"/>
<ellipse cx="161.129" cy="27.763" rx="7.08254" ry="4.21102" fill="#236D6D"/>
<path d="M150.129 77.5462C148.31 76.2074 147.561 74.8687 147.561 73.3278V69.4053H174.703C174.703 74.9367 174.703 75.4018 172.08 77.5462C165.158 82.9014 153.006 79.6642 150.129 77.5462Z" fill="#204545"/>
<path d="M160.98 24.8354C157.987 24.8354 156.301 26.0437 156.301 28.348H165.911C165.911 26.1 163.888 24.8354 160.98 24.8354Z" fill="#114545"/>
<ellipse cx="161.135" cy="69.3181" rx="13.577" ry="7.94351" fill="#3F6060"/>
<ellipse cx="161.135" cy="53.2998" rx="10.0914" ry="5.90421" fill="#4B9456"/>
<ellipse cx="161.109" cy="28.4369" rx="4.8175" ry="2.51336" fill="#0E2C2C"/>
<path d="M151.106 53.5402C151.106 56.6529 156.585 58.6866 161.129 58.6866C165.674 58.6866 171.152 57.0265 171.152 53.5402V68.6472C171.152 71.3034 168.122 73.5445 161.129 73.5445C154.136 73.5445 151.106 70.3488 151.106 68.6472V53.5402Z" fill="#2E7439"/>
<path d="M154.047 27.7631C154.047 29.9626 157.918 31.3997 161.129 31.3997C164.341 31.3997 168.212 30.2266 168.212 27.7631V52.4129C168.212 54.2898 166.071 55.8735 161.129 55.8735C156.188 55.8735 154.047 53.6153 154.047 52.4129V27.7631Z" fill="#114545"/>
<path d="M153.353 140.522L170.306 149.646V164.628L153.353 155.617V140.522Z" fill="#769191"/>
<path d="M153.353 140.522L170.229 149.645L171.462 149.038L154.862 140.036L153.353 140.522Z" fill="#8AA5A5"/>
<path d="M170.258 164.553L170.258 149.573L171.462 149.038V164.13L170.258 164.553Z" fill="#4C6666"/>
<path d="M155.155 142.501L169.387 150.238L169.387 161.959L155.155 154.408V142.501Z" fill="#3F6060"/>
<path d="M154.375 142.048L155.249 142.525V154.372L154.375 154.943L154.375 142.048Z" fill="#8AA5A5"/>
<path d="M114.128 116.249L117.268 118.038V154.458L114.128 155.562V116.249Z" fill="#215D2B"/>
<path d="M98.885 107.276L102.025 108.785V145.306L98.885 146.411L98.885 107.276Z" fill="#215D2B"/>
<path d="M83.6423 98.9853L86.7824 100.126V136.777L83.6423 137.882L83.6423 98.9853Z" fill="#215D2B"/>
<path d="M124.939 161.43V158.955L116.38 154.443L114.128 155.562L124.939 161.43Z" fill="#194D21"/>
<path d="M109.697 152.279V149.804L101.137 145.292L98.885 146.411L109.697 152.279Z" fill="#194D21"/>
<path d="M94.4538 143.749V141.274L85.8943 136.763L83.6423 137.882L94.4538 143.749Z" fill="#194D21"/>
<path d="M116.146 117.346L124.942 121.863V158.961L116.146 154.456L116.146 117.346Z" fill="#3F6060"/>
<path d="M100.904 108.195L109.699 112.711V149.81L100.904 145.305L100.904 108.195Z" fill="#3F6060"/>
<path d="M85.6609 99.6653L94.4563 104.182V141.28L85.6609 136.775L85.6609 99.6653Z" fill="#3F6060"/>
<path d="M169.387 163.002V161.958L155.225 154.403L154.375 154.943L169.387 163.002Z" fill="#4C6666"/>
<path d="M116.146 117.346L118.738 118.714L124.935 137.486V158.703L119.275 155.707L116.146 147.325V117.346Z" fill="#769191"/>
<path d="M100.904 108.217L103.515 109.532L109.692 128.347V149.552L104.032 146.557L100.904 138.18V108.217Z" fill="#769191"/>
<path d="M85.6609 99.6882L88.2336 100.731L94.4489 119.818V141.023L88.7895 138.028L85.6609 129.651V99.6882Z" fill="#769191"/>
<path d="M124.934 126.811L121.697 120.658L124.934 122.048V126.811Z" fill="#769191"/>
<path d="M109.692 117.66L106.515 111.151L109.692 112.898V117.66Z" fill="#769191"/>
<path d="M94.4488 109.13L91.2114 102.978L94.4488 104.368V109.13Z" fill="#769191"/>
<defs>
<filter id="filter0_d_51_377" x="248.893" y="120.185" width="51.1074" height="74.3483" filterUnits="userSpaceOnUse" color-interpolation-filters="sRGB">
<feFlood flood-opacity="0" result="BackgroundImageFix"/>
<feColorMatrix in="SourceAlpha" type="matrix" values="0 0 0 0 0 0 0 0 0 0 0 0 0 0 0 0 0 0 127 0" result="hardAlpha"/>
<feOffset/>
<feGaussianBlur stdDeviation="10"/>
<feComposite in2="hardAlpha" operator="out"/>
<feColorMatrix type="matrix" values="0 0 0 0 0.25098 0 0 0 0 0.580392 0 0 0 0 0.301961 0 0 0 1 0"/>
<feBlend mode="normal" in2="BackgroundImageFix" result="effect1_dropShadow_51_377"/>
<feBlend mode="normal" in="SourceGraphic" in2="effect1_dropShadow_51_377" result="shape"/>
</filter>
<filter id="filter1_d_51_377" x="0" y="128.639" width="71.1777" height="78.0472" filterUnits="userSpaceOnUse" color-interpolation-filters="sRGB">
<feFlood flood-opacity="0" result="BackgroundImageFix"/>
<feColorMatrix in="SourceAlpha" type="matrix" values="0 0 0 0 0 0 0 0 0 0 0 0 0 0 0 0 0 0 127 0" result="hardAlpha"/>
<feOffset/>
<feGaussianBlur stdDeviation="10"/>
<feComposite in2="hardAlpha" operator="out"/>
<feColorMatrix type="matrix" values="0 0 0 0 0.25098 0 0 0 0 0.580392 0 0 0 0 0.301961 0 0 0 1 0"/>
<feBlend mode="normal" in2="BackgroundImageFix" result="effect1_dropShadow_51_377"/>
<feBlend mode="normal" in="SourceGraphic" in2="effect1_dropShadow_51_377" result="shape"/>
</filter>
<filter id="filter2_d_51_377" x="44.3884" y="159.816" width="48.4548" height="60.0806" filterUnits="userSpaceOnUse" color-interpolation-filters="sRGB">
<feFlood flood-opacity="0" result="BackgroundImageFix"/>
<feColorMatrix in="SourceAlpha" type="matrix" values="0 0 0 0 0 0 0 0 0 0 0 0 0 0 0 0 0 0 127 0" result="hardAlpha"/>
<feOffset/>
<feGaussianBlur stdDeviation="10"/>
<feComposite in2="hardAlpha" operator="out"/>
<feColorMatrix type="matrix" values="0 0 0 0 0.25098 0 0 0 0 0.580392 0 0 0 0 0.301961 0 0 0 1 0"/>
<feBlend mode="normal" in2="BackgroundImageFix" result="effect1_dropShadow_51_377"/>
<feBlend mode="normal" in="SourceGraphic" in2="effect1_dropShadow_51_377" result="shape"/>
</filter>
<filter id="filter3_d_51_377" x="60.8167" y="67.8038" width="86.9397" height="121.683" filterUnits="userSpaceOnUse" color-interpolation-filters="sRGB">
<feFlood flood-opacity="0" result="BackgroundImageFix"/>
<feColorMatrix in="SourceAlpha" type="matrix" values="0 0 0 0 0 0 0 0 0 0 0 0 0 0 0 0 0 0 127 0" result="hardAlpha"/>
<feOffset/>
<feGaussianBlur stdDeviation="10"/>
<feComposite in2="hardAlpha" operator="out"/>
<feColorMatrix type="matrix" values="0 0 0 0 0.25098 0 0 0 0 0.580392 0 0 0 0 0.301961 0 0 0 0.6 0"/>
<feBlend mode="normal" in2="BackgroundImageFix" result="effect1_dropShadow_51_377"/>
<feBlend mode="normal" in="SourceGraphic" in2="effect1_dropShadow_51_377" result="shape"/>
</filter>
<filter id="filter4_d_51_377" x="107.756" y="43.0997" width="128.774" height="146.388" filterUnits="userSpaceOnUse" color-interpolation-filters="sRGB">
<feFlood flood-opacity="0" result="BackgroundImageFix"/>
<feColorMatrix in="SourceAlpha" type="matrix" values="0 0 0 0 0 0 0 0 0 0 0 0 0 0 0 0 0 0 127 0" result="hardAlpha"/>
<feOffset/>
<feGaussianBlur stdDeviation="10"/>
<feComposite in2="hardAlpha" operator="out"/>
<feColorMatrix type="matrix" values="0 0 0 0 0.25098 0 0 0 0 0.580392 0 0 0 0 0.301961 0 0 0 0.6 0"/>
<feBlend mode="normal" in2="BackgroundImageFix" result="effect1_dropShadow_51_377"/>
<feBlend mode="normal" in="SourceGraphic" in2="effect1_dropShadow_51_377" result="shape"/>
</filter>
<linearGradient id="paint0_linear_51_377" x1="104.286" y1="87.8038" x2="104.286" y2="169.487" gradientUnits="userSpaceOnUse">
<stop stop-color="#40944D"/>
<stop offset="1" stop-color="#0F3A16"/>
</linearGradient>
<linearGradient id="paint1_linear_51_377" x1="172.143" y1="63.0997" x2="172.143" y2="169.487" gradientUnits="userSpaceOnUse">
<stop stop-color="#40944D"/>
<stop offset="1" stop-color="#0F3A16"/>
</linearGradient>
<linearGradient id="paint2_linear_51_377" x1="163.356" y1="113.051" x2="163.356" y2="172.366" gradientUnits="userSpaceOnUse">
<stop stop-color="#40944D"/>
<stop offset="1" stop-color="#0F3A16"/>
</linearGradient>
<linearGradient id="paint3_linear_51_377" x1="197.948" y1="123.415" x2="197.948" y2="172.372" gradientUnits="userSpaceOnUse">
<stop stop-color="#40944D"/>
<stop offset="1" stop-color="#0F3A16"/>
</linearGradient>
</defs>
</svg>
