<svg width="300" height="241" viewBox="0 0 300 241" fill="none" xmlns="http://www.w3.org/2000/svg">
<path d="M165.32 221.421C154.222 227.234 145.239 227.762 134.142 221.421L23.699 155.367C19.4715 151.139 18.9523 145.33 23.6991 142.684L134.142 77.1585C144.71 70.8173 154.222 71.3458 165.32 77.1585L269.949 137.929C282.632 144.798 278.933 152.196 267.836 159.594L165.32 221.421Z" fill="#0F0E0E" stroke="white" stroke-width="0.5"/>
<g filter="url(#filter0_d_123_110)">
<path d="M273.12 140.043C280.295 146.972 278.565 151.182 268.893 159.066V174.391L277.348 169.635C279.688 167.535 280.073 166.092 279.99 163.294V151.668C279.915 144.747 277.993 142.583 273.12 140.043Z" fill="#666666"/>
</g>
<g filter="url(#filter1_d_123_110)">
<path d="M51.1776 171.22V186.544L23.1706 169.634C20.5284 167.521 20.0001 165.407 20 161.708V148.497C21.0569 151.139 22.6422 154.31 24.2275 154.838L51.1776 171.22Z" fill="#666666"/>
</g>
<g filter="url(#filter2_d_123_110)">
<path d="M64.3884 194.471V179.675L72.8434 184.959V199.755L64.3884 194.471Z" fill="#666666"/>
</g>
<path d="M51.1774 186.545L133.613 236.218M133.613 236.218V221.23M133.613 236.218C143.22 242.058 155.807 242.031 165.319 236.218M165.319 236.218L167.736 234.775M165.319 236.218V234.104M165.319 221.422V225.121M255.682 182.277L268.892 159.066V163.294M255.682 182.277L259.381 180.069M255.682 182.277L252.073 184.431M259.381 180.069L268.892 163.294M259.381 180.069L263.08 177.861M268.892 163.294V166.993M268.892 166.993L263.08 177.861M268.892 166.993V170.692M263.08 177.861L265.986 176.126M265.986 176.126L268.892 174.391V170.692M265.986 176.126L268.892 170.692M252.073 184.431L264.665 161.708M252.073 184.431L248.812 186.378M248.812 186.378L260.437 164.351M248.812 186.378L244.584 188.901M244.584 188.901L255.153 167.521M244.584 188.901L240.357 191.425M240.357 191.425L250.397 170.163M240.357 191.425L236.658 193.633M236.658 193.633L245.641 172.806M236.658 193.633L232.131 196.335M232.131 196.335L240.885 175.976M232.131 196.335L227.286 199.227M227.286 199.227L236.13 178.618M227.286 199.227L223.447 201.519M223.447 201.519L231.374 181.789M223.447 201.519L219.748 203.727M219.748 203.727L227.286 183.903M219.748 203.727L216.049 205.935M216.049 205.935L222.39 187.073M216.049 205.935L212.237 208.211M212.237 208.211L218.163 189.715M212.237 208.211L208.651 210.351M208.651 210.351L213.935 192.358M208.651 210.351L205.48 212.244M205.48 212.244L209.708 195M205.48 212.244L201.781 214.452M201.781 214.452L205.48 197.114M201.781 214.452L197.188 217.194M197.188 217.194L201.781 199.227M197.188 217.194L192.798 219.815M192.798 219.815L197.188 202.144M192.798 219.815L188.336 222.478M188.336 222.478L192.798 205.04M188.336 222.478L183.909 225.121M183.909 225.121C183.833 224.698 186.985 213.319 188.57 207.682M183.909 225.121L179.059 228.016M179.059 228.016L183.286 210.853M179.059 228.016L175.057 230.405M175.057 230.405L179.587 212.967M175.057 230.405L171.132 232.748M171.132 232.748L175.36 215.609M171.132 232.748L167.736 234.775M167.736 234.775L171.66 217.723M165.319 234.104L168.49 219.815M165.319 234.104V225.121M165.319 225.121L166.376 220.893" stroke="white" stroke-width="0.5"/>
<path d="M71.0474 94.6063C67.8255 93.0822 68.0569 89.6287 70.2949 88.1818L149.098 42.2111C154.035 39.3309 158.149 39.2936 164.433 42.2111L220.368 74.5854C223.933 76.8186 225.911 78.6434 224.286 81.4389C223.475 82.6224 221.887 83.7584 218.884 85.2015L144.738 128.556C140.3 131.295 134.61 131.117 129.861 128.556L71.0474 94.6063Z" fill="#4F4F4F"/>
<path d="M159.387 57.5384L165.284 47.2943L170.612 52.7513L187.566 54.8391L185.615 64.592L202.638 67.4637C206.064 72.9455 207.651 77.7559 207.283 84.2107L183.978 98.2038L165.638 57.5384H159.387Z" fill="#B5B5B5"/>
<path d="M129.532 65.8284L124.361 72.0935L125.192 73.6031L136.967 74.3202L142.855 71.4896L129.532 65.8284Z" fill="#B5B5B5"/>
<path d="M182.204 57.6318L174.29 72.1618L184.568 65.2572C182.041 62.0423 182.075 60.3505 182.204 57.6318Z" fill="#270F13"/>
<path d="M202.654 67.526C200.709 71.2811 192.634 70.9921 187.529 67.715L188.254 69.2905L187.12 89.2363C189.866 90.0158 192.098 89.6144 191.909 85.3291C192.773 85.1944 193.299 84.9279 194.493 83.2809L202.654 67.526Z" fill="#270F13"/>
<path d="M203.058 67.1352C201.514 70.6215 195.457 71.4864 189.641 68.9103C183.825 66.3343 180.452 61.2928 181.996 57.8066C183.54 54.3203 189.507 53.5824 195.323 56.1585C201.139 58.7345 204.602 63.649 203.058 67.1352Z" fill="#3E111A"/>
<path d="M109.325 62.9236L102.782 72.1087L96.3428 60.9224L112.506 50.7881L119.921 64.463V66.4642L121.589 67.5161L125.412 73.5454L123.256 73.3915L109.325 62.9236Z" fill="#3A553E"/>
<path d="M112.584 50.7721C114.176 53.539 111.766 58.0594 107.15 60.7159C102.534 63.3723 97.4601 63.1589 95.8678 60.3919C94.2755 57.6249 96.7267 53.2284 101.343 50.5719C105.959 47.9155 110.992 48.0051 112.584 50.7721Z" fill="#436148"/>
<path d="M190.118 58.6671C188.974 56.8044 189.609 55.1235 191.418 53.0879L201.514 58.0797L199.472 61.2483C196.788 63.8006 191.923 61.2483 190.118 58.6671Z" fill="#233563"/>
<ellipse cx="196.495" cy="55.5143" rx="5.65696" ry="3.37987" transform="rotate(23.1491 196.495 55.5143)" fill="#344C60"/>
<path d="M101.382 55.8956C99.5361 56.0056 98.536 54.8613 97.7394 52.7003L105.49 47.1625L107.038 49.949C107.871 52.9688 104.027 55.5793 101.382 55.8956Z" fill="#233563"/>
<ellipse cx="101.575" cy="49.8822" rx="4.78448" ry="2.85859" transform="rotate(-38.708 101.575 49.8822)" fill="#344C60"/>
<path d="M91.9049 83.8643L93.7737 84.5111L109.299 62.805L123.314 73.2987L139.27 74.1612L142.04 71.6476L129.217 65.9158L124.265 62.5609L135.287 46.6292L144.255 53.1421L152.422 48.5329C155.368 46.7438 157.432 46.9297 160.538 48.5329L163.744 50.3365L159.586 57.3505H165.648L183.984 98.232L181.079 99.735L139.27 74.1612L156.88 113.477L141.642 122.173C138.024 124.305 136.026 124.048 132.442 122.173L117.349 113.477L108.508 94.2142L99.5955 103.27L84.9753 94.9491C81.9698 92.9304 81.2071 89.835 84.4818 87.8612L91.9049 83.8643Z" fill="#787878"/>
<path d="M207.302 84.1996C207.335 79.4269 206.737 77.0282 205.573 74.1351C210.513 76.358 213.539 79.8466 208.475 83.4278L207.302 84.1996Z" fill="#787878"/>
<path d="M180.788 99.9525C181.51 74.3465 152.774 63.1088 136.8 74.3465L139.529 74.8282L156.892 113.951L180.788 99.9525Z" fill="#666666"/>
<path d="M108.413 93.7256L99.4119 103.236L118.263 114.318L108.413 93.7256Z" fill="#666666"/>
<path d="M102.808 72.242L93.8074 84.4273L91.3873 83.0686L100.346 67.6141L102.808 72.242Z" fill="#666666"/>
<path d="M129.376 66.2181L124.566 72.242L121.56 67.6141L119.957 66.5188V64.4146L115.698 56.3986L129.376 66.2181Z" fill="#666666"/>
<path d="M68.6282 91.3138C68.7788 93.5769 70.2813 93.8678 72.7484 95.5579L128.466 127.756C134.347 131.035 140.378 131.396 145.971 127.756L219.918 84.5754L219.97 84.5462C222.166 83.3201 224.753 81.8761 224.764 79.9981C224.766 91.448 226.095 92.269 220.15 95.8786L146.959 138.589C139.89 142.633 133.249 141.803 127.197 138.589L71.8723 106.472C69.8448 105.323 68.6278 104.343 68.6278 102.62L68.6282 91.3138C68.6116 91.0642 68.6115 90.7906 68.6283 90.4885L68.6282 91.3138Z" fill="#2D2D2D"/>
<g filter="url(#filter3_d_123_110)">
<path d="M88.0854 148.994L79.9102 111.468L127.556 138.708C133.084 141.571 139.401 142.558 146.508 138.708L212.793 100.236L207.086 139.827C206.616 142.218 206.42 143.652 204.262 144.693L147.49 177.435C142.79 180.447 138.195 180.395 133.372 177.435L91.4986 153.524C88.6727 151.808 88.5749 150.793 88.0854 148.994Z" fill="url(#paint0_linear_123_110)"/>
</g>
<path d="M176.714 135.826L178.171 133.866L176.378 131.849C174.753 130.28 174.032 131.129 173.297 132.409L171.168 136.779H168.087L171.504 129.664C173.501 126.015 177.106 125.518 178.899 127.143L181.028 129.664L182.652 128.431L181.532 134.93L176.714 135.826Z" fill="white"/>
<path d="M185.231 133.866L182.034 137.986C185.941 141.36 182.551 144.674 178.171 146.243V144.112L174.31 150.461L178.171 152.281V150.461C182.034 149.173 184.158 147.497 186.385 143.668C188.516 139.495 187.495 136.477 185.231 133.866Z" fill="white"/>
<path d="M171.779 149.75C167.027 154.571 164.554 151.756 169.16 144.423L170.936 144.112L169.604 139.451L164.455 144.112L165.99 144.298C165.202 146.259 164.761 147.448 163.994 150.238C163.039 154.218 163.994 159.067 171.954 153.62L171.779 149.75Z" fill="white"/>
<defs>
<filter id="filter0_d_123_110" x="248.893" y="120.043" width="51.1073" height="74.3483" filterUnits="userSpaceOnUse" color-interpolation-filters="sRGB">
<feFlood flood-opacity="0" result="BackgroundImageFix"/>
<feColorMatrix in="SourceAlpha" type="matrix" values="0 0 0 0 0 0 0 0 0 0 0 0 0 0 0 0 0 0 127 0" result="hardAlpha"/>
<feOffset/>
<feGaussianBlur stdDeviation="10"/>
<feComposite in2="hardAlpha" operator="out"/>
<feColorMatrix type="matrix" values="0 0 0 0 0.4 0 0 0 0 0.4 0 0 0 0 0.4 0 0 0 1 0"/>
<feBlend mode="normal" in2="BackgroundImageFix" result="effect1_dropShadow_123_110"/>
<feBlend mode="normal" in="SourceGraphic" in2="effect1_dropShadow_123_110" result="shape"/>
</filter>
<filter id="filter1_d_123_110" x="0" y="128.497" width="71.1776" height="78.0472" filterUnits="userSpaceOnUse" color-interpolation-filters="sRGB">
<feFlood flood-opacity="0" result="BackgroundImageFix"/>
<feColorMatrix in="SourceAlpha" type="matrix" values="0 0 0 0 0 0 0 0 0 0 0 0 0 0 0 0 0 0 127 0" result="hardAlpha"/>
<feOffset/>
<feGaussianBlur stdDeviation="10"/>
<feComposite in2="hardAlpha" operator="out"/>
<feColorMatrix type="matrix" values="0 0 0 0 0.4 0 0 0 0 0.4 0 0 0 0 0.4 0 0 0 1 0"/>
<feBlend mode="normal" in2="BackgroundImageFix" result="effect1_dropShadow_123_110"/>
<feBlend mode="normal" in="SourceGraphic" in2="effect1_dropShadow_123_110" result="shape"/>
</filter>
<filter id="filter2_d_123_110" x="44.3884" y="159.675" width="48.455" height="60.0806" filterUnits="userSpaceOnUse" color-interpolation-filters="sRGB">
<feFlood flood-opacity="0" result="BackgroundImageFix"/>
<feColorMatrix in="SourceAlpha" type="matrix" values="0 0 0 0 0 0 0 0 0 0 0 0 0 0 0 0 0 0 127 0" result="hardAlpha"/>
<feOffset/>
<feGaussianBlur stdDeviation="10"/>
<feComposite in2="hardAlpha" operator="out"/>
<feColorMatrix type="matrix" values="0 0 0 0 0.4 0 0 0 0 0.4 0 0 0 0 0.4 0 0 0 1 0"/>
<feBlend mode="normal" in2="BackgroundImageFix" result="effect1_dropShadow_123_110"/>
<feBlend mode="normal" in="SourceGraphic" in2="effect1_dropShadow_123_110" result="shape"/>
</filter>
<filter id="filter3_d_123_110" x="59.9102" y="80.2365" width="172.883" height="119.438" filterUnits="userSpaceOnUse" color-interpolation-filters="sRGB">
<feFlood flood-opacity="0" result="BackgroundImageFix"/>
<feColorMatrix in="SourceAlpha" type="matrix" values="0 0 0 0 0 0 0 0 0 0 0 0 0 0 0 0 0 0 127 0" result="hardAlpha"/>
<feOffset/>
<feGaussianBlur stdDeviation="10"/>
<feComposite in2="hardAlpha" operator="out"/>
<feColorMatrix type="matrix" values="0 0 0 0 0.4 0 0 0 0 0.4 0 0 0 0 0.4 0 0 0 0.6 0"/>
<feBlend mode="normal" in2="BackgroundImageFix" result="effect1_dropShadow_123_110"/>
<feBlend mode="normal" in="SourceGraphic" in2="effect1_dropShadow_123_110" result="shape"/>
</filter>
<linearGradient id="paint0_linear_123_110" x1="146.352" y1="100.236" x2="146.352" y2="179.675" gradientUnits="userSpaceOnUse">
<stop stop-color="#666666"/>
<stop offset="1" stop-color="#434343"/>
</linearGradient>
</defs>
</svg>
