<svg width="301" height="241" viewBox="0 0 301 241" fill="none" xmlns="http://www.w3.org/2000/svg">
<path d="M166.218 221.48C155.121 227.293 146.138 227.821 135.041 221.48L24.5976 155.426C20.3701 151.198 19.8509 145.39 24.5977 142.743L135.041 77.2175C145.609 70.8764 155.121 71.4049 166.218 77.2175L270.848 137.988C283.53 144.857 279.831 152.255 268.734 159.653L166.218 221.48Z" fill="#0F0E0E" stroke="white" stroke-width="0.5"/>
<g filter="url(#filter0_d_139_382)">
<path d="M274.019 140.102C281.193 147.031 279.463 151.241 269.792 159.126V174.45L278.246 169.694C280.587 167.594 280.972 166.151 280.889 163.353V151.727C280.814 144.806 278.892 142.642 274.019 140.102Z" fill="#666666"/>
</g>
<g filter="url(#filter1_d_139_382)">
<path d="M52.0763 171.279V186.603L24.0693 169.693C21.4271 167.58 20.8987 165.466 20.8987 161.767V148.556C21.9556 151.198 23.5409 154.369 25.1262 154.897L52.0763 171.279Z" fill="#666666"/>
</g>
<g filter="url(#filter2_d_139_382)">
<path d="M65.2871 194.53V179.734L73.7421 185.018V199.814L65.2871 194.53Z" fill="#666666"/>
</g>
<path d="M52.0762 186.604L134.512 236.277M134.512 236.277V221.289M134.512 236.277C144.119 242.117 156.706 242.09 166.218 236.277M166.218 236.277L168.635 234.834M166.218 236.277V234.163M166.218 221.481V225.18M256.58 182.336L269.791 159.125V163.353M256.58 182.336L260.279 180.128M256.58 182.336L252.972 184.49M260.279 180.128L269.791 163.353M260.279 180.128L263.978 177.92M269.791 163.353V167.052M269.791 167.052L263.978 177.92M269.791 167.052V170.751M263.978 177.92L266.885 176.185M266.885 176.185L269.791 174.45V170.751M266.885 176.185L269.791 170.751M252.972 184.49L265.564 161.768M252.972 184.49L249.711 186.437M249.711 186.437L261.336 164.41M249.711 186.437L245.483 188.96M245.483 188.96L256.052 167.58M245.483 188.96L241.256 191.484M241.256 191.484L251.296 170.222M241.256 191.484L237.557 193.692M237.557 193.692L246.54 172.865M237.557 193.692L233.03 196.394M233.03 196.394L241.784 176.035M233.03 196.394L228.185 199.286M228.185 199.286L237.028 178.677M228.185 199.286L224.346 201.578M224.346 201.578L232.272 181.848M224.346 201.578L220.647 203.786M220.647 203.786L228.185 183.962M220.647 203.786L216.948 205.994M216.948 205.994L223.289 187.132M216.948 205.994L213.136 208.27M213.136 208.27L219.061 189.775M213.136 208.27L209.55 210.41M209.55 210.41L214.834 192.417M209.55 210.41L206.379 212.303M206.379 212.303L210.607 195.059M206.379 212.303L202.68 214.511M202.68 214.511L206.379 197.173M202.68 214.511L198.087 217.253M198.087 217.253L202.68 199.286M198.087 217.253L193.697 219.874M193.697 219.874L198.087 202.203M193.697 219.874L189.234 222.538M189.234 222.538L193.697 205.099M189.234 222.538L184.808 225.18M184.808 225.18C184.732 224.757 187.884 213.378 189.469 207.741M184.808 225.18L179.957 228.075M179.957 228.075L184.185 210.912M179.957 228.075L175.956 230.464M175.956 230.464L180.486 213.026M175.956 230.464L172.031 232.807M172.031 232.807L176.258 215.668M172.031 232.807L168.635 234.834M168.635 234.834L172.559 217.782M166.218 234.163L169.389 219.874M166.218 234.163V225.18M166.218 225.18L167.275 220.952" stroke="white" stroke-width="0.5"/>
<path d="M133.643 136.796L117.905 106.686L165.921 106.124V110.38L151.227 136.796C147.895 140.129 136.614 139.767 133.643 136.796Z" fill="url(#paint0_linear_139_382)"/>
<path d="M159.108 121.22H166.964V134.789H159.108H153.154C151.617 132.91 151.323 131.853 151.307 129.972C154.406 125.635 156.104 123.891 159.108 121.22Z" fill="url(#paint1_linear_139_382)"/>
<path d="M112.482 104.908V101.85L166.141 101.495V107.031C154.68 108.212 126.571 107.943 117.876 107.031C113.688 106.592 112.482 105.757 112.482 104.908Z" fill="#7D7D7D"/>
<path d="M166.176 102.187C162.677 105.951 117.288 104.606 112.742 102.187C111.622 101.403 113.638 100.452 117.378 100.452H166.176V102.187Z" fill="#4C4C4C"/>
<path d="M116.525 97.7906V101.39C122.294 104.06 154.689 104.592 166.225 102.021V96.723L117.925 96.9108L116.525 97.7906Z" fill="#3E3E3E"/>
<path d="M117.895 96.7904L117.381 35.0285C129.966 33.0484 154.745 33.1735 167.7 35.0285V64.1022C166.344 64.1022 166.219 64.3827 166.219 65.9441V96.7904C158.742 99.755 121.718 100.481 117.895 96.7904Z" fill="url(#paint2_linear_139_382)"/>
<path d="M116.105 35.0325V30.474C121.751 28.238 155.434 28.0712 168.781 29.8702V34.3993C168.772 34.9914 168.781 35.7326 168.14 35.5056C162.111 33.3703 127.04 33.0258 116.105 35.0325Z" fill="#3E3E3E"/>
<path d="M115.11 29.886C115.227 30.214 115.468 30.3364 116.106 30.4777C119.279 29.1582 147.822 27.9132 168.319 30.4777L168.819 30.6894V29.886C159.389 26.5217 115.11 26.8778 115.11 29.886Z" fill="#6C6C6C"/>
<ellipse cx="156.152" cy="18.0601" rx="7.0558" ry="7.84774" fill="#333333"/>
<path d="M150.482 13.211C145.958 16.2086 145.109 21.5534 145.109 25.456C149.125 25.456 151.9 25.6466 156.817 25.9081C156.817 23.9568 157.388 22.9972 158.118 22.3731C159.896 20.852 160.703 18.1598 159.871 16.0954C158.344 12.3055 153.994 10.8846 150.482 13.211Z" fill="url(#paint3_linear_139_382)"/>
<path d="M114.396 27.9925C114.358 29.1303 114.473 29.5975 115.15 29.8221C115.15 27.5145 148.744 25.941 168.812 29.8221V27.7214C168.812 25.0597 114.396 23.5351 114.396 27.9925Z" fill="#4C4C4C"/>
<rect x="127.787" y="50.0216" width="8.37078" height="33.5601" rx="2" fill="#7C7C7C"/>
<rect x="129.899" y="52.7862" width="3.34062" height="27.2243" rx="1.67031" fill="#151F1F"/>
<path d="M132.809 134.181H153.359V140.127C145.333 141.187 140.836 141.17 132.809 140.127V134.181Z" fill="#3E3E3E"/>
<path d="M136.19 144.118H149.191V160.676L150.593 163.414H134.671L136.19 160.676V144.118Z" fill="#4C4C4C"/>
<path d="M129.661 139.865C134.383 136.979 148.462 136.892 155.72 139.865V143.713C148.812 145.899 136.744 146.161 129.661 143.713V139.865Z" fill="#333333"/>
<path d="M165.921 64.3466H198.623V125.527L165.921 123.764V64.3466Z" fill="#515151"/>
<path d="M198.623 64.3466H206.003L204.902 122.553L198.623 125.527V64.3466Z" fill="#3E3E3E"/>
<ellipse cx="171.291" cy="129.396" rx="4.89349" ry="10.2054" fill="#3E3E3E"/>
<ellipse cx="172.545" cy="130.82" rx="4.21059" ry="8.78121" fill="#333333"/>
<path d="M176.342 136.337C171.324 136.337 170.81 128.103 172.492 124.17L173.592 123.826L193.597 124.857C192.703 132.9 184.591 136.337 176.342 136.337Z" fill="url(#paint4_linear_139_382)"/>
<path d="M183.139 40.1986H192.921V62.5364L197.848 64.9693H192.921H183.139H179.18L183.139 62.5364L183.139 40.1986Z" fill="url(#paint5_linear_139_382)"/>
<ellipse cx="199.638" cy="39.894" rx="16.5167" ry="17.5079" fill="#474747"/>
<ellipse cx="202.082" cy="39.8938" rx="16.9013" ry="17.9156" fill="#626262"/>
<ellipse cx="199.639" cy="40.1985" rx="11.6392" ry="12.3376" fill="#3E3E3E"/>
<ellipse cx="198.297" cy="39.8936" rx="11.3515" ry="12.0327" fill="#6C6C6C"/>
<path d="M203.144 30.5694C200.069 33.46 199.119 35.2049 198.61 38.5262H197.587C196.584 34.8152 196.617 32.8587 197.365 29.5026C199.078 28.9341 201.588 29.5026 203.144 30.5694Z" fill="#151F1F"/>
<path d="M199.676 40.7044L199.988 40.1266C203.688 40.576 205.989 41.8157 207.678 44.1272C206.228 46.9869 205.382 47.832 203.855 48.8836C203.408 45.0342 202.319 43.3381 199.676 40.7044Z" fill="#151F1F"/>
<path d="M197.587 41.3712L197.187 40.7044C194.466 42.2054 192.476 41.9745 188.652 40.9267C189.202 43.4295 189.604 44.6403 190.431 46.5721C194.199 45.4086 195.552 44.0787 197.587 41.3712Z" fill="#151F1F"/>
<rect x="168.334" y="65.9002" width="28.1964" height="57.4235" fill="#3E3E3E"/>
<rect x="173.621" y="96.723" width="3.85503" height="4.77216" fill="#616161"/>
<rect x="186.398" y="97.8228" width="3.85503" height="4.77216" fill="#ADADAD"/>
<rect x="178.247" y="70.9478" width="8.15051" height="17.681" fill="#D9D9D9"/>
<defs>
<filter id="filter0_d_139_382" x="249.792" y="120.102" width="51.1074" height="74.3483" filterUnits="userSpaceOnUse" color-interpolation-filters="sRGB">
<feFlood flood-opacity="0" result="BackgroundImageFix"/>
<feColorMatrix in="SourceAlpha" type="matrix" values="0 0 0 0 0 0 0 0 0 0 0 0 0 0 0 0 0 0 127 0" result="hardAlpha"/>
<feOffset/>
<feGaussianBlur stdDeviation="10"/>
<feComposite in2="hardAlpha" operator="out"/>
<feColorMatrix type="matrix" values="0 0 0 0 0.4 0 0 0 0 0.4 0 0 0 0 0.4 0 0 0 1 0"/>
<feBlend mode="normal" in2="BackgroundImageFix" result="effect1_dropShadow_139_382"/>
<feBlend mode="normal" in="SourceGraphic" in2="effect1_dropShadow_139_382" result="shape"/>
</filter>
<filter id="filter1_d_139_382" x="0.898682" y="128.556" width="71.1776" height="78.0472" filterUnits="userSpaceOnUse" color-interpolation-filters="sRGB">
<feFlood flood-opacity="0" result="BackgroundImageFix"/>
<feColorMatrix in="SourceAlpha" type="matrix" values="0 0 0 0 0 0 0 0 0 0 0 0 0 0 0 0 0 0 127 0" result="hardAlpha"/>
<feOffset/>
<feGaussianBlur stdDeviation="10"/>
<feComposite in2="hardAlpha" operator="out"/>
<feColorMatrix type="matrix" values="0 0 0 0 0.4 0 0 0 0 0.4 0 0 0 0 0.4 0 0 0 1 0"/>
<feBlend mode="normal" in2="BackgroundImageFix" result="effect1_dropShadow_139_382"/>
<feBlend mode="normal" in="SourceGraphic" in2="effect1_dropShadow_139_382" result="shape"/>
</filter>
<filter id="filter2_d_139_382" x="45.2871" y="159.734" width="48.455" height="60.0806" filterUnits="userSpaceOnUse" color-interpolation-filters="sRGB">
<feFlood flood-opacity="0" result="BackgroundImageFix"/>
<feColorMatrix in="SourceAlpha" type="matrix" values="0 0 0 0 0 0 0 0 0 0 0 0 0 0 0 0 0 0 127 0" result="hardAlpha"/>
<feOffset/>
<feGaussianBlur stdDeviation="10"/>
<feComposite in2="hardAlpha" operator="out"/>
<feColorMatrix type="matrix" values="0 0 0 0 0.4 0 0 0 0 0.4 0 0 0 0 0.4 0 0 0 1 0"/>
<feBlend mode="normal" in2="BackgroundImageFix" result="effect1_dropShadow_139_382"/>
<feBlend mode="normal" in="SourceGraphic" in2="effect1_dropShadow_139_382" result="shape"/>
</filter>
<linearGradient id="paint0_linear_139_382" x1="141.913" y1="106.124" x2="141.913" y2="139.162" gradientUnits="userSpaceOnUse">
<stop stop-color="#444444"/>
<stop offset="1" stop-color="#5F5F5F"/>
</linearGradient>
<linearGradient id="paint1_linear_139_382" x1="153.076" y1="128.992" x2="169.017" y2="126.652" gradientUnits="userSpaceOnUse">
<stop stop-color="#595959"/>
<stop offset="1" stop-color="#666666"/>
</linearGradient>
<linearGradient id="paint2_linear_139_382" x1="142.54" y1="33.59" x2="142.54" y2="99.2935" gradientUnits="userSpaceOnUse">
<stop stop-color="#666666"/>
<stop offset="1" stop-color="#434343"/>
</linearGradient>
<linearGradient id="paint3_linear_139_382" x1="152.654" y1="12.0826" x2="152.654" y2="25.9081" gradientUnits="userSpaceOnUse">
<stop stop-color="#666666"/>
<stop offset="1" stop-color="#434343"/>
</linearGradient>
<linearGradient id="paint4_linear_139_382" x1="177.353" y1="132.502" x2="192.27" y2="122.703" gradientUnits="userSpaceOnUse">
<stop stop-color="#595959"/>
<stop offset="1" stop-color="#666666"/>
</linearGradient>
<linearGradient id="paint5_linear_139_382" x1="188.514" y1="40.1986" x2="188.514" y2="64.9693" gradientUnits="userSpaceOnUse">
<stop stop-color="#666666"/>
<stop offset="1" stop-color="#434343"/>
</linearGradient>
</defs>
</svg>
