<svg width="301" height="241" viewBox="0 0 301 241" fill="none" xmlns="http://www.w3.org/2000/svg">
<path d="M165.819 221.421C154.722 227.234 145.739 227.763 134.642 221.421L24.1989 155.367C19.9715 151.14 19.4522 145.331 24.199 142.685L134.642 77.1587C145.21 70.8176 154.722 71.346 165.819 77.1587L270.449 137.929C283.132 144.798 279.433 152.197 268.336 159.594L165.819 221.421Z" fill="#0F0E0E" stroke="white" stroke-width="0.5"/>
<g filter="url(#filter0_d_34_105)">
<path d="M273.62 140.043C280.794 146.972 279.064 151.183 269.393 159.067V174.391L277.848 169.635C280.188 167.535 280.573 166.092 280.49 163.294V151.669C280.415 144.747 278.493 142.583 273.62 140.043Z" fill="#40944D"/>
</g>
<g filter="url(#filter1_d_34_105)">
<path d="M51.6776 171.22V186.545L23.6706 169.635C21.0284 167.521 20.5001 165.407 20.5 161.708V148.497C21.5569 151.139 23.1422 154.31 24.7275 154.839L51.6776 171.22Z" fill="#40944D"/>
</g>
<g filter="url(#filter2_d_34_105)">
<path d="M64.8884 194.471V179.675L73.3434 184.959V199.755L64.8884 194.471Z" fill="#40944D"/>
</g>
<path d="M51.6775 186.545L134.113 236.218M134.113 236.218V221.23M134.113 236.218C143.72 242.058 156.308 242.031 165.819 236.218M165.819 236.218L168.236 234.775M165.819 236.218V234.104M165.819 221.422V225.121M256.182 182.277L269.393 159.067V163.294M256.182 182.277L259.881 180.069M256.182 182.277L252.573 184.431M259.881 180.069L269.393 163.294M259.881 180.069L263.58 177.861M269.393 163.294V166.993M269.393 166.993L263.58 177.861M269.393 166.993V170.692M263.58 177.861L266.486 176.126M266.486 176.126L269.393 174.391V170.692M266.486 176.126L269.393 170.692M252.573 184.431L265.165 161.709M252.573 184.431L249.312 186.378M249.312 186.378L260.938 164.351M249.312 186.378L245.085 188.902M245.085 188.902L255.653 167.521M245.085 188.902L240.857 191.425M240.857 191.425L250.897 170.164M240.857 191.425L237.158 193.633M237.158 193.633L246.141 172.806M237.158 193.633L232.632 196.335M232.632 196.335L241.385 175.976M232.632 196.335L227.786 199.228M227.786 199.228L236.63 178.619M227.786 199.228L223.947 201.519M223.947 201.519L231.874 181.789M223.947 201.519L220.248 203.727M220.248 203.727L227.786 183.903M220.248 203.727L216.549 205.935M216.549 205.935L222.89 187.074M216.549 205.935L212.737 208.211M212.737 208.211L218.663 189.716M212.737 208.211L209.151 210.352M209.151 210.352L214.435 192.358M209.151 210.352L205.98 212.244M205.98 212.244L210.208 195M205.98 212.244L202.281 214.452M202.281 214.452L205.98 197.114M202.281 214.452L197.688 217.194M197.688 217.194L202.281 199.228M197.688 217.194L193.298 219.815M193.298 219.815L197.688 202.144M193.298 219.815L188.836 222.479M188.836 222.479L193.298 205.04M188.836 222.479L184.409 225.121M184.409 225.121C184.334 224.698 187.485 213.319 189.07 207.683M184.409 225.121L179.559 228.016M179.559 228.016L183.786 210.853M179.559 228.016L175.557 230.405M175.557 230.405L180.087 212.967M175.557 230.405L171.632 232.748M171.632 232.748L175.86 215.609M171.632 232.748L168.236 234.775M168.236 234.775L172.161 217.723M165.819 234.104L168.99 219.815M165.819 234.104V225.121M165.819 225.121L166.876 220.893" stroke="white" stroke-width="0.5"/>
<path d="M125.547 169.973H133.087V172.99C133.087 174.903 125.547 174.813 125.547 172.99V169.973Z" fill="#1E5627"/>
<ellipse cx="129.317" cy="170.08" rx="3.76975" ry="2.01367" fill="#4B9456"/>
<path d="M127.463 146.945H131.2V169.726C131.2 171.332 127.463 171.349 127.463 169.726V146.945Z" fill="#0E2C2C"/>
<path d="M126.447 140.891H132.284V146.83C132.284 148.768 126.447 148.725 126.447 146.83V140.891Z" fill="#0E2C2C"/>
<path d="M80.4897 143.238H88.0292V146.255C88.0292 148.168 80.4897 148.078 80.4897 146.255V143.238Z" fill="#1E5627"/>
<ellipse cx="84.2595" cy="143.345" rx="3.76975" ry="2.01367" fill="#4B9456"/>
<path d="M82.4053 120.21H86.1422V142.991C86.1422 144.597 82.4053 144.614 82.4053 142.991V120.21Z" fill="#0E2C2C"/>
<path d="M81.3896 114.156H87.2266V120.095C87.2266 122.033 81.3896 121.99 81.3896 120.095V114.156Z" fill="#D9D9D9"/>
<path d="M163.541 148.012H171.08V151.029C171.08 152.942 163.541 152.852 163.541 151.029V148.012Z" fill="#1E5627"/>
<ellipse cx="167.31" cy="148.119" rx="3.76975" ry="2.01367" fill="#4B9456"/>
<path d="M165.456 124.984H169.193V147.765C169.193 149.371 165.456 149.388 165.456 147.765V124.984Z" fill="#0E2C2C"/>
<path d="M164.44 118.93H170.277V124.869C170.277 126.807 164.44 126.764 164.44 124.869V118.93Z" fill="#0E2C2C"/>
<path d="M200.968 126.428H208.508V129.445C208.508 131.358 200.968 131.268 200.968 129.445V126.428Z" fill="#1E5627"/>
<ellipse cx="204.738" cy="126.535" rx="3.76975" ry="2.01367" fill="#4B9456"/>
<path d="M202.884 103.399H206.621V126.181C206.621 127.787 202.884 127.804 202.884 126.181V103.399Z" fill="#0E2C2C"/>
<path d="M201.868 97.3461H207.705V103.285C207.705 105.222 201.868 105.18 201.868 103.285V97.3461Z" fill="#0E2C2C"/>
<g filter="url(#filter3_d_34_105)">
<path d="M82.4629 103.517L168.806 54.3419V74.206L82.4629 123.381V103.517Z" fill="url(#paint0_linear_34_105)"/>
</g>
<path d="M80.4897 102.552L82.4631 103.518V123.307L80.4897 122.498L80.4897 102.552Z" fill="#4B9456"/>
<path d="M80.4897 102.552L82.4631 103.518L168.831 54.3422L166.292 53.3404L80.4897 102.552Z" fill="#4B9456"/>
<path d="M78.3644 122.843L113.603 143.417L215.203 81.0666C215.049 80.2805 214.331 79.6995 213.133 79.0691L181.81 60.7004C179.141 58.682 178.097 58.6819 175.816 60.1554L81.4923 113.85C77.7654 115.869 76.3589 121.647 78.3644 122.843Z" fill="#0E2C2C"/>
<path d="M77.5489 121.102L112.477 141.51L112.403 140.348L77.5489 119.919C77.4578 120.257 77.4188 121.011 77.5489 121.102Z" fill="#114545"/>
<path d="M115.396 135.555L114.499 136.245L79.4381 115.645C79.594 115.341 79.8748 115.084 80.2177 114.807L115.396 135.555Z" fill="#114545"/>
<path d="M120.606 132.039L119.646 132.679L84.6972 112.038L85.7267 111.447L120.606 132.039Z" fill="#114545"/>
<path d="M122.484 126.533L121.589 127.188L90.2846 108.851L91.3485 108.233L122.484 126.533Z" fill="#114545"/>
<path d="M127.976 123.24L127.106 123.761L95.9835 105.606L97.0742 104.994L127.976 123.24Z" fill="#114545"/>
<path d="M133.554 119.956L132.505 120.592L101.64 102.392L102.617 101.839L133.554 119.956Z" fill="#114545"/>
<path d="M139.317 116.656L138.268 117.292L107.403 99.0926L108.38 98.5395L139.317 116.656Z" fill="#114545"/>
<path d="M144.825 113.486L143.777 114.122L112.912 95.9228L113.889 95.3697L144.825 113.486Z" fill="#114545"/>
<path d="M150.441 110.214L149.393 110.85L118.528 92.6505L119.505 92.0974L150.441 110.214Z" fill="#114545"/>
<path d="M156.232 106.896L155.184 107.533L124.319 89.3332L125.296 88.7801L156.232 106.896Z" fill="#114545"/>
<path d="M161.833 103.708L160.785 104.345L129.92 86.1452L130.897 85.5921L161.833 103.708Z" fill="#114545"/>
<path d="M167.527 100.441L166.478 101.077L135.613 82.8779L136.59 82.3248L167.527 100.441Z" fill="#114545"/>
<path d="M172.985 97.2822L171.937 97.9185L141.072 79.719L142.049 79.1659L172.985 97.2822Z" fill="#114545"/>
<path d="M178.921 94.1276L177.873 94.764L147.008 76.5644L147.985 76.0113L178.921 94.1276Z" fill="#114545"/>
<path d="M184.587 90.8943L183.539 91.5306L152.674 73.3311L153.651 72.778L184.587 90.8943Z" fill="#114545"/>
<path d="M190.405 87.5639L189.357 88.2003L158.492 70.0007L159.468 69.4476L190.405 87.5639Z" fill="#114545"/>
<path d="M196.009 84.3273L194.961 84.9636L164.096 66.7641L165.072 66.211L196.009 84.3273Z" fill="#114545"/>
<path d="M201.686 81.2016L200.638 81.8379L169.773 63.6384L170.75 63.0853L201.686 81.2016Z" fill="#114545"/>
<path d="M211.524 80.5653L210.476 81.2016L175.387 60.4703L176.364 59.9172L211.524 80.5653Z" fill="#114545"/>
<g filter="url(#filter4_d_34_105)">
<path d="M123.341 127.867L209.684 78.6915V98.5557L123.341 147.731V127.867Z" fill="url(#paint1_linear_34_105)"/>
</g>
<path d="M121.368 126.902L123.341 127.867V147.656L121.368 146.847L121.368 126.902Z" fill="#4B9456"/>
<path d="M121.368 126.902L123.341 127.867L209.709 78.6919L207.17 77.69L121.368 126.902Z" fill="#4B9456"/>
<path d="M135.374 82.841C134.64 82.9485 134.022 82.9485 133.413 82.9485L141.531 97.0782L137.546 99.2239L138.961 101.747L144.276 98.6903L135.374 82.841Z" fill="#215D2B"/>
<path d="M127.776 85.7228L124.907 87.4221L125.918 88.86L128.555 87.2015L127.776 85.7228Z" fill="#215D2B"/>
<path d="M175.713 119.74L171.427 117.194V107.318C171.427 101.781 174.926 95.7302 177.903 93.329C181.091 90.7582 183.954 88.8148 187.38 90.3515L188.756 91.1199L188.073 92.267L200.177 73.8448L212.119 55.9722L215.757 51.0581C216.698 49.9838 217.773 49.8362 219.657 50.4694C220.579 50.8424 221.048 51.0634 221.761 51.4993C221.254 51.203 220.205 50.8016 219.077 51.8213C218.122 52.8019 218.022 52.9516 214.081 58.8848L213.83 59.2632L186.352 100.246C184.634 102.875 183.685 104.503 183.302 107.193C183.118 108.486 183.459 110.071 184.337 111.043C180.79 109.148 179.872 105.671 181.755 101.883L187.832 92.6337C182.885 94.24 179.469 98.1057 178.063 101.461C176.845 104.369 175.713 106.904 175.713 110.233V119.74Z" fill="#215D2B"/>
<path d="M179.894 20.3011L189.887 26.3562L179.894 32.2842L169.774 26.3562L179.894 20.3011Z" fill="#3F6060"/>
<path d="M169.774 26.3646L179.894 32.2813V46.3615L169.774 40.4335L169.774 26.3646Z" fill="#3F6060"/>
<path d="M189.887 26.3557L179.894 32.2724V46.3526L189.887 40.4246L189.887 26.3557Z" fill="#204545"/>
<path d="M176.598 36.8162C176.168 35.3457 173.926 33.5345 173.06 34.0719L140.539 52.7582L142.464 54.066V60.2078L176.491 40.5457C177.441 39.9001 176.849 37.6716 176.598 36.8162Z" fill="#40944D"/>
<path d="M130.499 81.1762V67.31L134.397 69.5858L137.997 67.5585V81.7429L146.936 97.1078L144.252 98.6907L135.374 82.8457C134.35 82.9854 133.211 83.0012 132.537 82.8457L124.948 87.427L125.944 88.8608L124.283 89.7701L122.105 85.7175L130.499 81.1762Z" fill="#40944D"/>
<path d="M184.982 33.3032C185.876 32.6385 186.701 32.3633 187.933 33.0248L217.066 50.2064C216.176 50.3598 215.839 50.9731 214.95 52.1998L212.144 56.0478L184.386 39.5162C182.895 38.668 182.698 37.9891 182.895 36.8162C183.148 35.3208 183.888 34.1164 184.982 33.3032Z" fill="#40944D"/>
<path d="M187.051 99.2203L217.066 54.4326C218.077 52.7987 219.004 51.5975 220.018 51.2596C221.58 50.7388 224.114 52.442 222.333 56.0478L194.912 103.42V108.941L175.682 119.755V110.711C175.682 106.818 177.137 102.885 179.025 99.5426C180.912 96.2 184.963 93.3687 187.715 92.6608L181.738 101.902C180.008 105.913 180.598 108.941 184.362 111.082C184.129 110.877 183.95 110.65 183.837 110.417C182.045 106.696 184.785 102.502 187.051 99.2203Z" fill="#40944D"/>
<path d="M134.469 49.0821L142.454 53.9205L134.469 58.6574L126.382 53.9205L134.469 49.0821Z" fill="#3F6060"/>
<path d="M126.382 53.9274L134.469 58.6553V69.9064L126.382 65.1695L126.382 53.9274Z" fill="#3F6060"/>
<path d="M142.454 53.9202L134.469 58.6481V69.8992L142.454 65.1623L142.454 53.9202Z" fill="#204545"/>
<path d="M115.661 135.103L121.332 131.534V140.025L117.475 142.299C112.985 145.263 112.38 142.471 112.38 140.485C112.38 138.557 113.791 136.398 115.661 135.103Z" fill="#114545"/>
<path d="M211.876 80.171L209.685 81.3925V89.9435L213.673 86.692C215.289 84.698 215.289 83.5482 215.289 81.6979C215.289 79.7219 213.367 79.3267 211.876 80.171Z" fill="#114545"/>
<path d="M121.365 138.55V133.272L116.967 135.685C113.403 137.515 112.92 143.199 116.967 141.164L121.365 138.55Z" fill="#40944D"/>
<path d="M209.65 88.2693V82.8595L211.126 81.9252C213.809 80.2072 214.683 84.1102 213.055 85.5117L209.65 88.2693Z" fill="#40944D"/>
<ellipse cx="128.927" cy="132.807" rx="0.969409" ry="1.31421" transform="rotate(27.3321 128.927 132.807)" fill="black"/>
<ellipse cx="143.888" cy="124.379" rx="0.969409" ry="1.31421" transform="rotate(27.3321 143.888 124.379)" fill="black"/>
<ellipse cx="159.132" cy="115.709" rx="0.969409" ry="1.31421" transform="rotate(27.3321 159.132 115.709)" fill="black"/>
<ellipse cx="203.977" cy="89.9734" rx="0.969409" ry="1.31421" transform="rotate(27.3321 203.977 89.9734)" fill="black"/>
<ellipse cx="118.904" cy="137.293" rx="0.969409" ry="1.31421" transform="rotate(27.3321 118.904 137.293)" fill="black"/>
<defs>
<filter id="filter0_d_34_105" x="249.393" y="120.043" width="51.1074" height="74.3483" filterUnits="userSpaceOnUse" color-interpolation-filters="sRGB">
<feFlood flood-opacity="0" result="BackgroundImageFix"/>
<feColorMatrix in="SourceAlpha" type="matrix" values="0 0 0 0 0 0 0 0 0 0 0 0 0 0 0 0 0 0 127 0" result="hardAlpha"/>
<feOffset/>
<feGaussianBlur stdDeviation="10"/>
<feComposite in2="hardAlpha" operator="out"/>
<feColorMatrix type="matrix" values="0 0 0 0 0.25098 0 0 0 0 0.580392 0 0 0 0 0.301961 0 0 0 1 0"/>
<feBlend mode="normal" in2="BackgroundImageFix" result="effect1_dropShadow_34_105"/>
<feBlend mode="normal" in="SourceGraphic" in2="effect1_dropShadow_34_105" result="shape"/>
</filter>
<filter id="filter1_d_34_105" x="0.5" y="128.497" width="71.1777" height="78.0472" filterUnits="userSpaceOnUse" color-interpolation-filters="sRGB">
<feFlood flood-opacity="0" result="BackgroundImageFix"/>
<feColorMatrix in="SourceAlpha" type="matrix" values="0 0 0 0 0 0 0 0 0 0 0 0 0 0 0 0 0 0 127 0" result="hardAlpha"/>
<feOffset/>
<feGaussianBlur stdDeviation="10"/>
<feComposite in2="hardAlpha" operator="out"/>
<feColorMatrix type="matrix" values="0 0 0 0 0.25098 0 0 0 0 0.580392 0 0 0 0 0.301961 0 0 0 1 0"/>
<feBlend mode="normal" in2="BackgroundImageFix" result="effect1_dropShadow_34_105"/>
<feBlend mode="normal" in="SourceGraphic" in2="effect1_dropShadow_34_105" result="shape"/>
</filter>
<filter id="filter2_d_34_105" x="44.8884" y="159.675" width="48.4548" height="60.0806" filterUnits="userSpaceOnUse" color-interpolation-filters="sRGB">
<feFlood flood-opacity="0" result="BackgroundImageFix"/>
<feColorMatrix in="SourceAlpha" type="matrix" values="0 0 0 0 0 0 0 0 0 0 0 0 0 0 0 0 0 0 127 0" result="hardAlpha"/>
<feOffset/>
<feGaussianBlur stdDeviation="10"/>
<feComposite in2="hardAlpha" operator="out"/>
<feColorMatrix type="matrix" values="0 0 0 0 0.25098 0 0 0 0 0.580392 0 0 0 0 0.301961 0 0 0 1 0"/>
<feBlend mode="normal" in2="BackgroundImageFix" result="effect1_dropShadow_34_105"/>
<feBlend mode="normal" in="SourceGraphic" in2="effect1_dropShadow_34_105" result="shape"/>
</filter>
<filter id="filter3_d_34_105" x="62.4629" y="34.3419" width="126.343" height="109.039" filterUnits="userSpaceOnUse" color-interpolation-filters="sRGB">
<feFlood flood-opacity="0" result="BackgroundImageFix"/>
<feColorMatrix in="SourceAlpha" type="matrix" values="0 0 0 0 0 0 0 0 0 0 0 0 0 0 0 0 0 0 127 0" result="hardAlpha"/>
<feOffset/>
<feGaussianBlur stdDeviation="10"/>
<feComposite in2="hardAlpha" operator="out"/>
<feColorMatrix type="matrix" values="0 0 0 0 0.25098 0 0 0 0 0.580392 0 0 0 0 0.301961 0 0 0 0.6 0"/>
<feBlend mode="normal" in2="BackgroundImageFix" result="effect1_dropShadow_34_105"/>
<feBlend mode="normal" in="SourceGraphic" in2="effect1_dropShadow_34_105" result="shape"/>
</filter>
<filter id="filter4_d_34_105" x="103.341" y="58.6915" width="126.343" height="109.039" filterUnits="userSpaceOnUse" color-interpolation-filters="sRGB">
<feFlood flood-opacity="0" result="BackgroundImageFix"/>
<feColorMatrix in="SourceAlpha" type="matrix" values="0 0 0 0 0 0 0 0 0 0 0 0 0 0 0 0 0 0 127 0" result="hardAlpha"/>
<feOffset/>
<feGaussianBlur stdDeviation="10"/>
<feComposite in2="hardAlpha" operator="out"/>
<feColorMatrix type="matrix" values="0 0 0 0 0.25098 0 0 0 0 0.580392 0 0 0 0 0.301961 0 0 0 0.6 0"/>
<feBlend mode="normal" in2="BackgroundImageFix" result="effect1_dropShadow_34_105"/>
<feBlend mode="normal" in="SourceGraphic" in2="effect1_dropShadow_34_105" result="shape"/>
</filter>
<linearGradient id="paint0_linear_34_105" x1="125.634" y1="54.3419" x2="125.634" y2="123.381" gradientUnits="userSpaceOnUse">
<stop stop-color="#40944D"/>
<stop offset="1" stop-color="#0F3A16"/>
</linearGradient>
<linearGradient id="paint1_linear_34_105" x1="166.512" y1="78.6915" x2="166.512" y2="147.731" gradientUnits="userSpaceOnUse">
<stop stop-color="#40944D"/>
<stop offset="1" stop-color="#0F3A16"/>
</linearGradient>
</defs>
</svg>
