<svg width="300" height="241" viewBox="0 0 300 241" fill="none" xmlns="http://www.w3.org/2000/svg">
<path d="M165.32 221.421C154.222 227.234 145.239 227.762 134.142 221.421L23.699 155.367C19.4715 151.139 18.9523 145.33 23.6991 142.684L134.142 77.1585C144.71 70.8173 154.222 71.3458 165.32 77.1585L269.949 137.929C282.632 144.798 278.933 152.196 267.836 159.594L165.32 221.421Z" fill="#0F0E0E" stroke="white" stroke-width="0.5"/>
<g filter="url(#filter0_d_2013_152)">
<path d="M273.12 140.043C280.295 146.972 278.565 151.182 268.893 159.066V174.391L277.348 169.635C279.689 167.535 280.073 166.092 279.99 163.294V151.668C279.915 144.747 277.993 142.583 273.12 140.043Z" fill="#666666"/>
</g>
<g filter="url(#filter1_d_2013_152)">
<path d="M51.1776 171.22V186.544L23.1706 169.634C20.5284 167.521 20.0001 165.407 20 161.708V148.497C21.0569 151.139 22.6422 154.31 24.2275 154.838L51.1776 171.22Z" fill="#666666"/>
</g>
<g filter="url(#filter2_d_2013_152)">
<path d="M64.3884 194.471V179.675L72.8434 184.959V199.755L64.3884 194.471Z" fill="#666666"/>
</g>
<path d="M51.1775 186.545L133.613 236.218M133.613 236.218V221.23M133.613 236.218C143.22 242.058 155.807 242.031 165.319 236.218M165.319 236.218L167.736 234.775M165.319 236.218V234.104M165.319 221.422V225.121M255.682 182.277L268.892 159.066V163.294M255.682 182.277L259.381 180.069M255.682 182.277L252.073 184.431M259.381 180.069L268.892 163.294M259.381 180.069L263.08 177.861M268.892 163.294V166.993M268.892 166.993L263.08 177.861M268.892 166.993V170.692M263.08 177.861L265.986 176.126M265.986 176.126L268.892 174.391V170.692M265.986 176.126L268.892 170.692M252.073 184.431L264.665 161.708M252.073 184.431L248.812 186.378M248.812 186.378L260.438 164.351M248.812 186.378L244.584 188.901M244.584 188.901L255.153 167.521M244.584 188.901L240.357 191.425M240.357 191.425L250.397 170.163M240.357 191.425L236.658 193.633M236.658 193.633L245.641 172.806M236.658 193.633L232.132 196.335M232.132 196.335L240.885 175.976M232.132 196.335L227.286 199.227M227.286 199.227L236.13 178.618M227.286 199.227L223.447 201.519M223.447 201.519L231.374 181.789M223.447 201.519L219.748 203.727M219.748 203.727L227.286 183.903M219.748 203.727L216.049 205.935M216.049 205.935L222.39 187.073M216.049 205.935L212.237 208.211M212.237 208.211L218.163 189.715M212.237 208.211L208.651 210.351M208.651 210.351L213.935 192.358M208.651 210.351L205.48 212.244M205.48 212.244L209.708 195M205.48 212.244L201.781 214.452M201.781 214.452L205.48 197.114M201.781 214.452L197.188 217.194M197.188 217.194L201.781 199.227M197.188 217.194L192.798 219.815M192.798 219.815L197.188 202.144M192.798 219.815L188.336 222.478M188.336 222.478L192.798 205.04M188.336 222.478L183.909 225.121M183.909 225.121C183.833 224.698 186.985 213.319 188.57 207.682M183.909 225.121L179.059 228.016M179.059 228.016L183.286 210.853M179.059 228.016L175.057 230.405M175.057 230.405L179.587 212.967M175.057 230.405L171.132 232.748M171.132 232.748L175.36 215.609M171.132 232.748L167.736 234.775M167.736 234.775L171.661 217.723M165.319 234.104L168.49 219.815M165.319 234.104V225.121M165.319 225.121L166.376 220.893" stroke="white" stroke-width="0.5"/>
<path d="M82.7126 102.372L74.3613 97.9333L127.103 67.3116L135.454 71.9011L82.7126 102.372Z" fill="#787878"/>
<path d="M74.3629 111.916V97.9404L82.6466 102.276V116.93L74.3629 111.916Z" fill="#595959"/>
<path d="M82.6223 116.906V102.324L135.51 71.9101V88.9449L85.0445 118.165L82.6223 116.906Z" fill="#666666"/>
<path d="M66.3254 116.52L74.3806 111.9L106.786 130.745L98.5558 135.535L66.3254 116.52Z" fill="#4F4F4F"/>
<path d="M135.51 76.53L143.565 71.9101L175.97 90.7552L167.74 95.5452L135.51 76.53Z" fill="#4F4F4F"/>
<path d="M98.7309 167.126L106.786 162.507V130.745L98.5559 135.535L98.7309 167.126Z" fill="#2E2E2E"/>
<path d="M167.915 127.137L175.97 122.517V90.7553L167.74 95.5453L167.915 127.137Z" fill="#2E2E2E"/>
<path d="M66.3267 148.164L66.3269 116.524L98.7322 135.369L98.7321 167.124L66.3267 148.164Z" fill="url(#paint0_linear_2013_152)"/>
<path d="M135.511 108.174L135.511 76.5344L167.917 95.3794L167.917 127.134L135.511 108.174Z" fill="url(#paint1_linear_2013_152)"/>
<path d="M135.592 88.9241L84.9069 118.125L106.611 130.83V143.059L167.755 107.764L135.592 88.9241Z" fill="#787878"/>
<path d="M106.786 142.817L167.756 107.759V117.05L106.786 152.506V142.817Z" fill="#666666"/>
<path d="M119.658 68.984L92.0021 84.912L99.6141 116.732L127.738 100.31C128.847 99.687 129.156 98.7306 128.943 97.2464L127.149 77.1024C126.665 74.0667 126.167 72.4576 123.764 70.2065C121.642 68.4195 120.894 68.5327 119.658 68.984Z" fill="#5D5D5D"/>
<path d="M115.212 84.0668L114.242 89.2378L117.439 85.4574L114.959 90.0052L118.883 87.9975L115.321 91.1358L119.293 91.2478L115.266 92.434L118.6 94.6464L114.803 93.6753L116.922 97.6056L114.012 94.6452L114.55 99.6137L113.03 95.1759L111.894 100.324L112.027 95.1757L109.413 99.6124L111.177 94.6445L107.537 97.6032L110.625 93.6743L106.589 94.6433L110.469 92.4328L106.734 91.2446L110.734 91.1346L107.946 87.9947L111.374 90.0043L110.016 85.4555L112.28 89.2373L112.587 84.0662L113.295 88.9661L115.212 84.0668Z" fill="#B5B5B5"/>
<path d="M90.1135 87.7253C90.1135 81.5269 98.5606 85.7808 99.229 93.4378L101.052 113.067C101.052 121.331 92.2404 114.525 92.2404 109.724L90.1135 87.7253Z" fill="#6F6F6F"/>
<path d="M106.786 152.448L167.756 117.066V127.13L106.786 162.455V152.448Z" fill="#2E2E2E"/>
<path d="M227.589 122.452L212.366 113.573L209.209 115.273L227.589 125.902V122.452Z" fill="#383838"/>
<path d="M209.289 167.521V149.395L184.919 135.242V153.473L187.921 155.247V141.629L206.186 152.218V165.757L209.289 167.521Z" fill="#2E2E2E"/>
<path d="M187.917 155.256V141.619L190.961 143.372L190.961 153.485L187.917 155.256Z" fill="#454545"/>
<path d="M230.55 115.579V96.0112L206.27 81.3276V101.242L230.55 115.579Z" fill="#646464"/>
<path d="M204.955 84.3687L228.261 97.816L204.955 90.5152V84.3687Z" fill="#4F4F4F"/>
<path d="M204.955 94.4721L228.261 107.919L204.955 100.619V94.4721Z" fill="#4F4F4F"/>
<path d="M230.53 141.75V136.98L209.29 149.413V167.499L212.21 165.838V152.34L230.53 141.75Z" fill="url(#paint2_linear_2013_152)"/>
<path d="M233.671 94.355L230.549 96.008V155.131L233.671 153.478V94.355Z" fill="url(#paint3_linear_2013_152)"/>
<path d="M233.675 94.354L208.614 79.9156L206.216 81.3389L230.539 96.0156L233.675 94.354Z" fill="#646464"/>
<path d="M230.517 96.484L207.145 82.9555L204.952 84.3887L228.261 97.8161L230.517 96.484Z" fill="#787878"/>
<path d="M230.517 106.587L207.145 93.0589L204.952 94.4921L228.261 107.919L230.517 106.587Z" fill="#787878"/>
<path d="M230.517 96.4846L228.262 97.8167V103.946L230.517 102.763V96.4846Z" fill="#434343"/>
<path d="M230.517 106.587L228.262 107.92V114.049L230.517 112.865V106.587Z" fill="#434343"/>
<path d="M228.261 103.944V97.816L204.957 90.5157L228.261 103.944Z" fill="#616161"/>
<path d="M228.261 114.047V107.919L204.957 100.619L228.261 114.047Z" fill="#616161"/>
<path d="M230.55 115.529L227.564 113.81V125.86L230.55 127.641V115.529Z" fill="#2E2E2E"/>
<path d="M209.285 103.108L206.17 101.313V113.576L209.285 115.339V103.108Z" fill="#2E2E2E"/>
<path d="M212.377 104.89L209.284 103.111V115.296L212.377 113.573V104.89Z" fill="#454545"/>
<path d="M230.549 141.72L227.603 143.437V153.387L230.549 155.104L230.549 141.72Z" fill="#2E2E2E"/>
<path d="M184.969 125.959L230.556 127.645L209.253 139.968L184.969 125.959Z" fill="#616161"/>
<path d="M206.17 113.571L230.548 127.643L184.964 125.966L206.17 113.571Z" fill="#565656"/>
<path d="M218.964 127.622C218.964 128.018 219.478 128.338 220.113 128.338C220.748 128.338 221.263 128.018 221.263 127.622C221.263 127.227 220.748 126.906 220.113 126.906C219.478 126.906 218.964 127.227 218.964 127.622Z" fill="#8B8B8B"/>
<path d="M214.385 130.349C214.385 130.745 214.9 131.065 215.534 131.065C216.169 131.065 216.684 130.745 216.684 130.349C216.684 129.954 216.169 129.633 215.534 129.633C214.9 129.633 214.385 129.954 214.385 130.349Z" fill="#8B8B8B"/>
<path d="M209.806 133.077C209.806 133.472 210.321 133.792 210.956 133.792C211.591 133.792 212.105 133.472 212.105 133.077C212.105 132.681 211.591 132.361 210.956 132.361C210.321 132.361 209.806 132.681 209.806 133.077Z" fill="#8B8B8B"/>
<path d="M215.246 125.557C215.246 125.952 215.761 126.273 216.396 126.273C217.031 126.273 217.545 125.952 217.545 125.557C217.545 125.162 217.031 124.841 216.396 124.841C215.761 124.841 215.246 125.162 215.246 125.557Z" fill="#8B8B8B"/>
<path d="M210.668 128.284C210.668 128.68 211.182 129 211.817 129C212.452 129 212.967 128.68 212.967 128.284C212.967 127.889 212.452 127.568 211.817 127.568C211.182 127.568 210.668 127.889 210.668 128.284Z" fill="#8B8B8B"/>
<path d="M206.089 131.011C206.089 131.407 206.603 131.727 207.238 131.727C207.873 131.727 208.388 131.407 208.388 131.011C208.388 130.616 207.873 130.295 207.238 130.295C206.603 130.295 206.089 130.616 206.089 131.011Z" fill="#8B8B8B"/>
<path d="M211.68 123.492C211.68 123.887 212.195 124.208 212.83 124.208C213.465 124.208 213.98 123.887 213.98 123.492C213.98 123.096 213.465 122.776 212.83 122.776C212.195 122.776 211.68 123.096 211.68 123.492Z" fill="#8B8B8B"/>
<path d="M207.102 126.219C207.102 126.614 207.616 126.935 208.251 126.935C208.886 126.935 209.401 126.614 209.401 126.219C209.401 125.824 208.886 125.503 208.251 125.503C207.616 125.503 207.102 125.824 207.102 126.219Z" fill="#8B8B8B"/>
<path d="M202.523 128.946C202.523 129.342 203.038 129.662 203.672 129.662C204.307 129.662 204.822 129.342 204.822 128.946C204.822 128.551 204.307 128.23 203.672 128.23C203.038 128.23 202.523 128.551 202.523 128.946Z" fill="#8B8B8B"/>
<path d="M208.136 121.385C208.136 121.781 208.65 122.101 209.285 122.101C209.92 122.101 210.435 121.781 210.435 121.385C210.435 120.99 209.92 120.67 209.285 120.67C208.65 120.67 208.136 120.99 208.136 121.385Z" fill="#8B8B8B"/>
<path d="M203.557 124.112C203.557 124.508 204.071 124.828 204.706 124.828C205.341 124.828 205.856 124.508 205.856 124.112C205.856 123.717 205.341 123.397 204.706 123.397C204.071 123.397 203.557 123.717 203.557 124.112Z" fill="#8B8B8B"/>
<path d="M198.978 126.84C198.978 127.235 199.493 127.556 200.128 127.556C200.762 127.556 201.277 127.235 201.277 126.84C201.277 126.444 200.762 126.124 200.128 126.124C199.493 126.124 198.978 126.444 198.978 126.84Z" fill="#8B8B8B"/>
<path d="M204.446 119.293C204.446 119.688 204.96 120.009 205.595 120.009C206.23 120.009 206.745 119.688 206.745 119.293C206.745 118.897 206.23 118.577 205.595 118.577C204.96 118.577 204.446 118.897 204.446 119.293Z" fill="#8B8B8B"/>
<path d="M199.867 122.02C199.867 122.415 200.382 122.736 201.017 122.736C201.651 122.736 202.166 122.415 202.166 122.02C202.166 121.624 201.651 121.304 201.017 121.304C200.382 121.304 199.867 121.624 199.867 122.02Z" fill="#8B8B8B"/>
<path d="M195.288 124.747C195.288 125.142 195.803 125.463 196.438 125.463C197.073 125.463 197.587 125.142 197.587 124.747C197.587 124.352 197.073 124.031 196.438 124.031C195.803 124.031 195.288 124.352 195.288 124.747Z" fill="#8B8B8B"/>
<path d="M230.548 135.863V127.649L209.202 139.973L230.548 135.863Z" fill="#4D4D4D"/>
<path d="M209.268 149.414L184.955 125.946L209.268 139.978V149.414Z" fill="#636363"/>
<path d="M230.556 137.002V135.857L209.267 139.964V149.421L230.556 137.002Z" fill="#545454"/>
<path d="M184.969 125.953L209.271 149.415L184.93 135.286L184.969 125.953Z" fill="#4F4F4F"/>
<defs>
<filter id="filter0_d_2013_152" x="248.893" y="120.043" width="51.1073" height="74.3483" filterUnits="userSpaceOnUse" color-interpolation-filters="sRGB">
<feFlood flood-opacity="0" result="BackgroundImageFix"/>
<feColorMatrix in="SourceAlpha" type="matrix" values="0 0 0 0 0 0 0 0 0 0 0 0 0 0 0 0 0 0 127 0" result="hardAlpha"/>
<feOffset/>
<feGaussianBlur stdDeviation="10"/>
<feComposite in2="hardAlpha" operator="out"/>
<feColorMatrix type="matrix" values="0 0 0 0 0.4 0 0 0 0 0.4 0 0 0 0 0.4 0 0 0 1 0"/>
<feBlend mode="normal" in2="BackgroundImageFix" result="effect1_dropShadow_2013_152"/>
<feBlend mode="normal" in="SourceGraphic" in2="effect1_dropShadow_2013_152" result="shape"/>
</filter>
<filter id="filter1_d_2013_152" x="0" y="128.497" width="71.1776" height="78.0472" filterUnits="userSpaceOnUse" color-interpolation-filters="sRGB">
<feFlood flood-opacity="0" result="BackgroundImageFix"/>
<feColorMatrix in="SourceAlpha" type="matrix" values="0 0 0 0 0 0 0 0 0 0 0 0 0 0 0 0 0 0 127 0" result="hardAlpha"/>
<feOffset/>
<feGaussianBlur stdDeviation="10"/>
<feComposite in2="hardAlpha" operator="out"/>
<feColorMatrix type="matrix" values="0 0 0 0 0.4 0 0 0 0 0.4 0 0 0 0 0.4 0 0 0 1 0"/>
<feBlend mode="normal" in2="BackgroundImageFix" result="effect1_dropShadow_2013_152"/>
<feBlend mode="normal" in="SourceGraphic" in2="effect1_dropShadow_2013_152" result="shape"/>
</filter>
<filter id="filter2_d_2013_152" x="44.3884" y="159.675" width="48.455" height="60.0805" filterUnits="userSpaceOnUse" color-interpolation-filters="sRGB">
<feFlood flood-opacity="0" result="BackgroundImageFix"/>
<feColorMatrix in="SourceAlpha" type="matrix" values="0 0 0 0 0 0 0 0 0 0 0 0 0 0 0 0 0 0 127 0" result="hardAlpha"/>
<feOffset/>
<feGaussianBlur stdDeviation="10"/>
<feComposite in2="hardAlpha" operator="out"/>
<feColorMatrix type="matrix" values="0 0 0 0 0.4 0 0 0 0 0.4 0 0 0 0 0.4 0 0 0 1 0"/>
<feBlend mode="normal" in2="BackgroundImageFix" result="effect1_dropShadow_2013_152"/>
<feBlend mode="normal" in="SourceGraphic" in2="effect1_dropShadow_2013_152" result="shape"/>
</filter>
<linearGradient id="paint0_linear_2013_152" x1="82.5294" y1="116.524" x2="82.5294" y2="167.124" gradientUnits="userSpaceOnUse">
<stop stop-color="#666666"/>
<stop offset="1" stop-color="#434343"/>
</linearGradient>
<linearGradient id="paint1_linear_2013_152" x1="151.714" y1="76.5344" x2="151.714" y2="127.134" gradientUnits="userSpaceOnUse">
<stop stop-color="#666666"/>
<stop offset="1" stop-color="#434343"/>
</linearGradient>
<linearGradient id="paint2_linear_2013_152" x1="221.481" y1="94.355" x2="221.481" y2="167.499" gradientUnits="userSpaceOnUse">
<stop stop-color="#666666"/>
<stop offset="1" stop-color="#434343"/>
</linearGradient>
<linearGradient id="paint3_linear_2013_152" x1="221.481" y1="94.355" x2="221.481" y2="167.499" gradientUnits="userSpaceOnUse">
<stop stop-color="#666666"/>
<stop offset="1" stop-color="#434343"/>
</linearGradient>
</defs>
</svg>
