<svg width="300" height="241" viewBox="0 0 300 241" fill="none" xmlns="http://www.w3.org/2000/svg">
<path d="M165.319 221.421C154.222 227.234 145.239 227.762 134.142 221.421L23.6989 155.367C19.4715 151.139 18.9522 145.33 23.699 142.684L134.142 77.1585C144.71 70.8173 154.222 71.3458 165.319 77.1585L269.949 137.929C282.632 144.798 278.933 152.196 267.836 159.594L165.319 221.421Z" fill="#0F0E0E" stroke="white" stroke-width="0.5"/>
<g filter="url(#filter0_d_113_3901)">
<path d="M273.12 140.043C280.295 146.972 278.565 151.182 268.893 159.066V174.391L277.348 169.635C279.688 167.535 280.073 166.092 279.99 163.294V151.668C279.915 144.747 277.993 142.583 273.12 140.043Z" fill="#666666"/>
</g>
<g filter="url(#filter1_d_113_3901)">
<path d="M51.1776 171.22V186.544L23.1706 169.634C20.5284 167.521 20.0001 165.407 20 161.708V148.497C21.0569 151.139 22.6422 154.31 24.2275 154.838L51.1776 171.22Z" fill="#666666"/>
</g>
<g filter="url(#filter2_d_113_3901)">
<path d="M64.3884 194.471V179.675L72.8434 184.959V199.755L64.3884 194.471Z" fill="#666666"/>
</g>
<path d="M51.1775 186.545L133.613 236.218M133.613 236.218V221.23M133.613 236.218C143.22 242.058 155.808 242.031 165.319 236.218M165.319 236.218L167.736 234.775M165.319 236.218V234.104M165.319 221.422V225.121M255.682 182.277L268.893 159.066V163.294M255.682 182.277L259.381 180.069M255.682 182.277L252.073 184.431M259.381 180.069L268.893 163.294M259.381 180.069L263.08 177.861M268.893 163.294V166.993M268.893 166.993L263.08 177.861M268.893 166.993V170.692M263.08 177.861L265.986 176.126M265.986 176.126L268.893 174.391V170.692M265.986 176.126L268.893 170.692M252.073 184.431L264.665 161.708M252.073 184.431L248.812 186.378M248.812 186.378L260.438 164.351M248.812 186.378L244.585 188.901M244.585 188.901L255.153 167.521M244.585 188.901L240.357 191.425M240.357 191.425L250.397 170.163M240.357 191.425L236.658 193.633M236.658 193.633L245.641 172.806M236.658 193.633L232.132 196.335M232.132 196.335L240.885 175.976M232.132 196.335L227.286 199.227M227.286 199.227L236.13 178.618M227.286 199.227L223.447 201.519M223.447 201.519L231.374 181.789M223.447 201.519L219.748 203.727M219.748 203.727L227.286 183.903M219.748 203.727L216.049 205.935M216.049 205.935L222.39 187.073M216.049 205.935L212.237 208.211M212.237 208.211L218.163 189.715M212.237 208.211L208.651 210.351M208.651 210.351L213.935 192.358M208.651 210.351L205.48 212.244M205.48 212.244L209.708 195M205.48 212.244L201.781 214.452M201.781 214.452L205.48 197.114M201.781 214.452L197.188 217.194M197.188 217.194L201.781 199.227M197.188 217.194L192.798 219.815M192.798 219.815L197.188 202.144M192.798 219.815L188.336 222.478M188.336 222.478L192.798 205.04M188.336 222.478L183.909 225.121M183.909 225.121C183.834 224.698 186.985 213.319 188.57 207.682M183.909 225.121L179.059 228.016M179.059 228.016L183.286 210.853M179.059 228.016L175.057 230.405M175.057 230.405L179.587 212.967M175.057 230.405L171.132 232.748M171.132 232.748L175.36 215.609M171.132 232.748L167.736 234.775M167.736 234.775L171.661 217.723M165.319 234.104L168.49 219.815M165.319 234.104V225.121M165.319 225.121L166.376 220.893" stroke="white" stroke-width="0.5"/>
<g filter="url(#filter3_d_113_3901)">
<path d="M80.5453 87.8038L127.485 114.712V169.487L80.5453 142.578V87.8038Z" fill="url(#paint0_linear_113_3901)"/>
</g>
<path d="M80.4976 87.8872L127.437 114.796L216.258 63.1009L169.28 36.2385L80.4976 87.8872Z" fill="#4F4F4F"/>
<path d="M169.273 46.6603L202.857 66.0433L127.758 109.715L93.9746 90.5195L169.273 46.6603Z" fill="#151F1F"/>
<path d="M169.255 41.2924V46.6765L93.9861 90.5186L89.1737 87.6953L169.255 41.2924Z" fill="#333333"/>
<path d="M169.255 41.2924V46.6764L202.859 66.0414L207.707 63.2795L169.255 41.2924Z" fill="#333333"/>
<g filter="url(#filter4_d_113_3901)">
<path d="M127.485 114.713L216.259 63.0997V117.874L127.485 169.487V114.713Z" fill="url(#paint1_linear_113_3901)"/>
</g>
<path d="M80.5453 142.566L127.485 169.474V176.932L80.5453 150.023L80.5453 142.566Z" fill="black"/>
<path d="M127.485 169.474L149.77 156.54V163.998L127.485 176.932L127.485 169.474Z" fill="black"/>
<path d="M149.77 156.533L176.399 172.359V179.817L149.77 163.991L149.77 156.533Z" fill="black"/>
<path d="M149.77 132.093L176.399 147.919V172.366L149.77 156.54L149.77 132.093Z" fill="url(#paint2_linear_113_3901)"/>
<path d="M149.844 132.129L193.847 105.274L218.96 123.418L176.36 147.975L149.844 132.129Z" fill="#4F4F4F"/>
<path d="M159.379 133.808L193.12 112.752L209.07 124.943L176.673 143.967L159.379 133.808Z" fill="#151F1F"/>
<path d="M156.873 132.287L193.169 110.119V113.243L159.38 133.809L156.873 132.287Z" fill="#333333"/>
<path d="M211.508 123.318L193.12 110.119V113.243L209.069 124.942L211.508 123.318Z" fill="#333333"/>
<path d="M176.399 172.359L188.211 165.549V173.007L176.399 179.816L176.399 172.359Z" fill="black"/>
<path d="M207.141 154.672L218.953 147.862V155.32L207.141 162.13L207.141 154.672Z" fill="black"/>
<path d="M176.399 147.924L218.954 123.414V147.862L176.399 172.371L176.399 147.924Z" fill="url(#paint3_linear_113_3901)"/>
<path d="M188.211 150.853L207.142 162.113L188.211 173.002L188.211 150.853Z" fill="#0E2C2C"/>
<path d="M207.142 162.13L188.211 150.87L207.142 139.981L207.142 162.13Z" fill="black"/>
<path d="M133.903 119.663L213.677 73.5373V87.0517L133.903 132.074V119.663Z" fill="#769191"/>
<path d="M135.176 120.331L145.975 114.114V122.608L135.176 128.855V120.331Z" fill="#3F6060"/>
<path d="M148.344 112.58L159.144 106.363V114.857L148.344 121.104V112.58Z" fill="#3F6060"/>
<path d="M161.513 105.062L172.313 98.8449V107.338L161.513 113.586V105.062Z" fill="#3F6060"/>
<path d="M174.682 97.5441L185.481 91.3274V99.8208L174.682 106.068V97.5441Z" fill="#3F6060"/>
<path d="M187.851 90.0263L198.65 83.8096V92.303L187.851 98.5502V90.0263Z" fill="#3F6060"/>
<path d="M201.02 82.2356L211.819 76.0189V84.5123L201.02 90.7596V82.2356Z" fill="#3F6060"/>
<path d="M135.176 128.824L145.975 122.608L146.96 122.952L135.176 129.786V128.824Z" fill="#4C6666"/>
<path d="M148.344 121.073L159.144 114.857L160.129 115.201L148.344 122.035V121.073Z" fill="#4C6666"/>
<path d="M161.513 113.555L172.313 107.338L173.298 107.682L161.513 114.516V113.555Z" fill="#4C6666"/>
<path d="M174.682 106.037L185.481 99.8206L186.467 100.165L174.682 106.999V106.037Z" fill="#4C6666"/>
<path d="M187.851 98.5195L198.65 92.3028L199.635 92.6472L187.851 99.4809V98.5195Z" fill="#4C6666"/>
<path d="M201.02 90.7288L211.819 84.5121L212.804 84.8565L201.02 91.6901V90.7288Z" fill="#4C6666"/>
<path d="M145.975 114.117L146.963 113.479V122.952L145.975 122.607V114.117Z" fill="#8AA5A5"/>
<path d="M159.143 106.366L160.131 105.728V115.201L159.143 114.856V106.366Z" fill="#8AA5A5"/>
<path d="M172.312 98.8485L173.3 98.2101V107.683L172.312 107.339V98.8485Z" fill="#8AA5A5"/>
<path d="M185.481 91.3302L186.469 90.6918V100.165L185.481 99.8205V91.3302Z" fill="#8AA5A5"/>
<path d="M198.65 83.8124L199.638 83.174V92.6473L198.65 92.3028V83.8124Z" fill="#8AA5A5"/>
<path d="M211.819 76.0214L212.807 75.383V84.8563L211.819 84.5117V76.0214Z" fill="#8AA5A5"/>
<path d="M133.164 119.273L212.745 73.0187L213.676 73.54L133.901 119.665L133.164 119.273Z" fill="#8AA5A5"/>
<path d="M133.164 119.279L133.907 119.663V132.069L133.164 131.736L133.164 119.279Z" fill="#4C6666"/>
<ellipse cx="132.815" cy="43.4669" rx="7.08254" ry="4.21102" fill="#4F4F4F"/>
<path d="M121.815 93.2498C119.996 91.911 119.247 90.5722 119.247 89.0313V85.1088H146.389C146.389 90.6402 146.389 91.1053 143.766 93.2498C136.845 98.6049 124.692 95.3677 121.815 93.2498Z" fill="#333333"/>
<path d="M132.666 40.5391C129.673 40.5391 127.987 41.7475 127.987 44.0518H137.598C137.598 41.8037 135.575 40.5391 132.666 40.5391Z" fill="#333333"/>
<ellipse cx="132.821" cy="85.0217" rx="13.577" ry="7.94351" fill="#6C6C6C"/>
<ellipse cx="132.821" cy="69.0038" rx="10.0914" ry="5.90421" fill="#6C6C6C"/>
<ellipse cx="132.795" cy="44.1404" rx="4.8175" ry="2.51336" fill="#151F1F"/>
<path d="M122.792 69.2442C122.792 72.3569 128.271 74.3906 132.815 74.3906C137.36 74.3906 142.838 72.7304 142.838 69.2442V84.3512C142.838 87.0074 139.809 89.2485 132.815 89.2485C125.822 89.2485 122.792 86.0528 122.792 84.3512V69.2442Z" fill="#333333"/>
<path d="M125.733 43.467C125.733 45.6666 129.604 47.1036 132.815 47.1036C136.027 47.1036 139.898 45.9305 139.898 43.467V68.1168C139.898 69.9938 137.757 71.5775 132.815 71.5775C127.874 71.5775 125.733 69.3193 125.733 68.1168V43.467Z" fill="#A4A4A4"/>
<ellipse cx="160.858" cy="27.763" rx="7.08254" ry="4.21102" fill="#4F4F4F"/>
<path d="M149.858 77.5458C148.039 76.207 147.289 74.8682 147.289 73.3274V69.4048H174.432C174.432 74.9362 174.432 75.4013 171.809 77.5458C164.887 82.9009 152.735 79.6638 149.858 77.5458Z" fill="#333333"/>
<path d="M160.709 24.8354C157.716 24.8354 156.03 26.0437 156.03 28.348H165.64C165.64 26.1 163.617 24.8354 160.709 24.8354Z" fill="#333333"/>
<ellipse cx="160.864" cy="69.3177" rx="13.577" ry="7.94351" fill="#6C6C6C"/>
<ellipse cx="160.864" cy="53.2998" rx="10.0914" ry="5.90421" fill="#6C6C6C"/>
<ellipse cx="160.838" cy="28.4364" rx="4.8175" ry="2.51336" fill="#151F1F"/>
<path d="M150.835 53.5402C150.835 56.6529 156.313 58.6866 160.858 58.6866C165.402 58.6866 170.881 57.0265 170.881 53.5402V68.6472C170.881 71.3034 167.851 73.5445 160.858 73.5445C153.865 73.5445 150.835 70.3488 150.835 68.6472V53.5402Z" fill="#333333"/>
<path d="M153.775 27.7631C153.775 29.9626 157.647 31.3997 160.858 31.3997C164.069 31.3997 167.94 30.2266 167.94 27.7631V52.4129C167.94 54.2898 165.8 55.8735 160.858 55.8735C155.916 55.8735 153.775 53.6153 153.775 52.4129V27.7631Z" fill="#A4A4A4"/>
<path d="M153.082 140.523L170.034 149.646V164.628L153.082 155.617V140.523Z" fill="#769191"/>
<path d="M153.082 140.522L169.958 149.645L171.191 149.038L154.591 140.036L153.082 140.522Z" fill="#8AA5A5"/>
<path d="M169.987 164.553L169.987 149.573L171.19 149.037V164.13L169.987 164.553Z" fill="#4C6666"/>
<path d="M154.884 142.501L169.116 150.238L169.116 161.959L154.884 154.408V142.501Z" fill="#3F6060"/>
<path d="M154.103 142.048L154.978 142.525V154.372L154.103 154.944L154.103 142.048Z" fill="#8AA5A5"/>
<path d="M113.857 116.249L116.997 118.038V154.458L113.857 155.562V116.249Z" fill="#333333"/>
<path d="M98.6138 107.277L101.754 108.786V145.306L98.6138 146.412L98.6138 107.277Z" fill="#333333"/>
<path d="M83.3711 98.9855L86.5112 100.126V136.777L83.3711 137.882L83.3711 98.9855Z" fill="#333333"/>
<path d="M124.668 161.43V158.955L116.109 154.443L113.857 155.562L124.668 161.43Z" fill="#6C6C6C"/>
<path d="M109.425 152.279V149.804L100.866 145.292L98.6139 146.411L109.425 152.279Z" fill="#6C6C6C"/>
<path d="M94.1827 143.749V141.274L85.6232 136.763L83.3712 137.882L94.1827 143.749Z" fill="#6C6C6C"/>
<path d="M115.875 117.346L124.671 121.863V158.961L115.875 154.456L115.875 117.346Z" fill="#3F6060"/>
<path d="M100.632 108.195L109.428 112.711V149.81L100.632 145.305L100.632 108.195Z" fill="#3F6060"/>
<path d="M85.3896 99.6653L94.1851 104.182V141.28L85.3896 136.775L85.3896 99.6653Z" fill="#3F6060"/>
<path d="M169.116 163.002V161.957L154.954 154.403L154.103 154.943L169.116 163.002Z" fill="#4C6666"/>
<path d="M115.875 117.346L118.467 118.714L124.663 137.486V158.703L119.004 155.707L115.875 147.325V117.346Z" fill="#769191"/>
<path d="M100.632 108.217L103.243 109.532L109.42 128.347V149.552L103.761 146.557L100.632 138.18V108.217Z" fill="#769191"/>
<path d="M85.3896 99.6887L87.9623 100.732L94.1777 119.818V141.023L88.5182 138.028L85.3896 129.652V99.6887Z" fill="#769191"/>
<path d="M124.663 126.811L121.426 120.658L124.663 122.049V126.811Z" fill="#769191"/>
<path d="M109.42 117.66L106.243 111.152L109.42 112.898V117.66Z" fill="#769191"/>
<path d="M94.1775 109.13L90.9402 102.978L94.1775 104.368V109.13Z" fill="#769191"/>
<defs>
<filter id="filter0_d_113_3901" x="248.893" y="120.043" width="51.1073" height="74.3483" filterUnits="userSpaceOnUse" color-interpolation-filters="sRGB">
<feFlood flood-opacity="0" result="BackgroundImageFix"/>
<feColorMatrix in="SourceAlpha" type="matrix" values="0 0 0 0 0 0 0 0 0 0 0 0 0 0 0 0 0 0 127 0" result="hardAlpha"/>
<feOffset/>
<feGaussianBlur stdDeviation="10"/>
<feComposite in2="hardAlpha" operator="out"/>
<feColorMatrix type="matrix" values="0 0 0 0 0.4 0 0 0 0 0.4 0 0 0 0 0.4 0 0 0 1 0"/>
<feBlend mode="normal" in2="BackgroundImageFix" result="effect1_dropShadow_113_3901"/>
<feBlend mode="normal" in="SourceGraphic" in2="effect1_dropShadow_113_3901" result="shape"/>
</filter>
<filter id="filter1_d_113_3901" x="0" y="128.497" width="71.1776" height="78.0472" filterUnits="userSpaceOnUse" color-interpolation-filters="sRGB">
<feFlood flood-opacity="0" result="BackgroundImageFix"/>
<feColorMatrix in="SourceAlpha" type="matrix" values="0 0 0 0 0 0 0 0 0 0 0 0 0 0 0 0 0 0 127 0" result="hardAlpha"/>
<feOffset/>
<feGaussianBlur stdDeviation="10"/>
<feComposite in2="hardAlpha" operator="out"/>
<feColorMatrix type="matrix" values="0 0 0 0 0.4 0 0 0 0 0.4 0 0 0 0 0.4 0 0 0 1 0"/>
<feBlend mode="normal" in2="BackgroundImageFix" result="effect1_dropShadow_113_3901"/>
<feBlend mode="normal" in="SourceGraphic" in2="effect1_dropShadow_113_3901" result="shape"/>
</filter>
<filter id="filter2_d_113_3901" x="44.3884" y="159.675" width="48.455" height="60.0806" filterUnits="userSpaceOnUse" color-interpolation-filters="sRGB">
<feFlood flood-opacity="0" result="BackgroundImageFix"/>
<feColorMatrix in="SourceAlpha" type="matrix" values="0 0 0 0 0 0 0 0 0 0 0 0 0 0 0 0 0 0 127 0" result="hardAlpha"/>
<feOffset/>
<feGaussianBlur stdDeviation="10"/>
<feComposite in2="hardAlpha" operator="out"/>
<feColorMatrix type="matrix" values="0 0 0 0 0.4 0 0 0 0 0.4 0 0 0 0 0.4 0 0 0 1 0"/>
<feBlend mode="normal" in2="BackgroundImageFix" result="effect1_dropShadow_113_3901"/>
<feBlend mode="normal" in="SourceGraphic" in2="effect1_dropShadow_113_3901" result="shape"/>
</filter>
<filter id="filter3_d_113_3901" x="60.5453" y="67.8038" width="86.9396" height="121.683" filterUnits="userSpaceOnUse" color-interpolation-filters="sRGB">
<feFlood flood-opacity="0" result="BackgroundImageFix"/>
<feColorMatrix in="SourceAlpha" type="matrix" values="0 0 0 0 0 0 0 0 0 0 0 0 0 0 0 0 0 0 127 0" result="hardAlpha"/>
<feOffset/>
<feGaussianBlur stdDeviation="10"/>
<feComposite in2="hardAlpha" operator="out"/>
<feColorMatrix type="matrix" values="0 0 0 0 0.4 0 0 0 0 0.4 0 0 0 0 0.4 0 0 0 0.6 0"/>
<feBlend mode="normal" in2="BackgroundImageFix" result="effect1_dropShadow_113_3901"/>
<feBlend mode="normal" in="SourceGraphic" in2="effect1_dropShadow_113_3901" result="shape"/>
</filter>
<filter id="filter4_d_113_3901" x="107.485" y="43.0997" width="128.774" height="146.388" filterUnits="userSpaceOnUse" color-interpolation-filters="sRGB">
<feFlood flood-opacity="0" result="BackgroundImageFix"/>
<feColorMatrix in="SourceAlpha" type="matrix" values="0 0 0 0 0 0 0 0 0 0 0 0 0 0 0 0 0 0 127 0" result="hardAlpha"/>
<feOffset/>
<feGaussianBlur stdDeviation="10"/>
<feComposite in2="hardAlpha" operator="out"/>
<feColorMatrix type="matrix" values="0 0 0 0 0.4 0 0 0 0 0.4 0 0 0 0 0.4 0 0 0 0.6 0"/>
<feBlend mode="normal" in2="BackgroundImageFix" result="effect1_dropShadow_113_3901"/>
<feBlend mode="normal" in="SourceGraphic" in2="effect1_dropShadow_113_3901" result="shape"/>
</filter>
<linearGradient id="paint0_linear_113_3901" x1="104.015" y1="87.8038" x2="104.015" y2="169.487" gradientUnits="userSpaceOnUse">
<stop stop-color="#666666"/>
<stop offset="1" stop-color="#434343"/>
</linearGradient>
<linearGradient id="paint1_linear_113_3901" x1="171.872" y1="63.0997" x2="171.872" y2="169.487" gradientUnits="userSpaceOnUse">
<stop stop-color="#666666"/>
<stop offset="1" stop-color="#434343"/>
</linearGradient>
<linearGradient id="paint2_linear_113_3901" x1="163.084" y1="113.051" x2="163.084" y2="172.366" gradientUnits="userSpaceOnUse">
<stop stop-color="#666666"/>
<stop offset="1" stop-color="#474747"/>
</linearGradient>
<linearGradient id="paint3_linear_113_3901" x1="197.676" y1="123.414" x2="197.676" y2="172.371" gradientUnits="userSpaceOnUse">
<stop stop-color="#666666"/>
<stop offset="1" stop-color="#444444"/>
</linearGradient>
</defs>
</svg>
