<svg width="24" height="25" viewBox="0 0 24 25" fill="none" xmlns="http://www.w3.org/2000/svg">
<g clip-path="url(#clip0_36_285)">
<path d="M3 5.5V19.5C3 20.6 3.89 21.5 5 21.5H19C20.1 21.5 21 20.6 21 19.5V5.5C21 4.4 20.1 3.5 19 3.5H5C3.89 3.5 3 4.4 3 5.5ZM15 9.5C15 11.16 13.66 12.5 12 12.5C10.34 12.5 9 11.16 9 9.5C9 7.84 10.34 6.5 12 6.5C13.66 6.5 15 7.84 15 9.5ZM6 17.5C6 15.5 10 14.4 12 14.4C14 14.4 18 15.5 18 17.5V18.5H6V17.5Z" fill="#40944D"/>
<path d="M3 5.5V19.5C3 20.6 3.89 21.5 5 21.5H19C20.1 21.5 21 20.6 21 19.5V5.5C21 4.4 20.1 3.5 19 3.5H5C3.89 3.5 3 4.4 3 5.5ZM15 9.5C15 11.16 13.66 12.5 12 12.5C10.34 12.5 9 11.16 9 9.5C9 7.84 10.34 6.5 12 6.5C13.66 6.5 15 7.84 15 9.5ZM6 17.5C6 15.5 10 14.4 12 14.4C14 14.4 18 15.5 18 17.5V18.5H6V17.5Z" fill="#40944D"/>
</g>
<defs>
<clipPath id="clip0_36_285">
<rect width="24" height="24" fill="white" transform="translate(0 0.5)"/>
</clipPath>
</defs>
</svg>
