<svg width="24" height="25" viewBox="0 0 24 25" fill="none" xmlns="http://www.w3.org/2000/svg">
<g clip-path="url(#clip0_108_3188)">
<path d="M3 5.16602V19.166C3 20.266 3.89 21.166 5 21.166H19C20.1 21.166 21 20.266 21 19.166V5.16602C21 4.06602 20.1 3.16602 19 3.16602H5C3.89 3.16602 3 4.06602 3 5.16602ZM15 9.16602C15 10.826 13.66 12.166 12 12.166C10.34 12.166 9 10.826 9 9.16602C9 7.50602 10.34 6.16602 12 6.16602C13.66 6.16602 15 7.50602 15 9.16602ZM6 17.166C6 15.166 10 14.066 12 14.066C14 14.066 18 15.166 18 17.166V18.166H6V17.166Z" fill="#875F37"/>
</g>
<defs>
<clipPath id="clip0_108_3188">
<rect width="24" height="24" fill="white" transform="translate(0 0.166016)"/>
</clipPath>
</defs>
</svg>
