<svg width="92" height="31" viewBox="0 0 92 31" fill="none" xmlns="http://www.w3.org/2000/svg">
<path d="M6.28785 24.2871L1.29585 7.36711H5.90385L9.33585 20.2311H8.01585L15.5039 7.36711H20.2319L9.86385 24.2871H6.28785Z" fill="white"/>
<mask id="path-2-outside-1_108_3206" maskUnits="userSpaceOnUse" x="20.0479" y="6.28711" width="24" height="19" fill="black">
<rect fill="white" x="20.0479" y="6.28711" width="24" height="19"/>
<path d="M22.5599 24.2871L33.1679 7.36711H36.7679L42.0479 24.2871H37.7519L36.4559 19.6311L37.9679 20.8551H28.0319L29.9039 19.6311L27.1439 24.2871H22.5599ZM34.3679 11.9271L30.5039 18.6231L29.9999 17.4951H37.0559L36.2639 18.6231L34.4879 11.9271H34.3679Z"/>
</mask>
<path d="M22.5599 24.2871L21.7126 23.7559L20.7526 25.2871H22.5599V24.2871ZM33.1679 7.36711V6.36711H32.6145L32.3206 6.83592L33.1679 7.36711ZM36.7679 7.36711L37.7225 7.06922L37.5034 6.36711H36.7679V7.36711ZM42.0479 24.2871V25.2871H43.4075L43.0025 23.9892L42.0479 24.2871ZM37.7519 24.2871L36.7885 24.5553L36.9922 25.2871H37.7519V24.2871ZM36.4559 19.6311L37.0851 18.8539L34.6536 16.8856L35.4925 19.8993L36.4559 19.6311ZM37.9679 20.8551V21.8551H40.7925L38.5971 20.0779L37.9679 20.8551ZM28.0319 20.8551L27.4846 20.0181L24.6751 21.8551H28.0319V20.8551ZM29.9039 19.6311L30.7641 20.141L29.3566 18.7941L29.9039 19.6311ZM27.1439 24.2871V25.2871H27.7136L28.0041 24.797L27.1439 24.2871ZM34.3679 11.9271V10.9271H33.7904L33.5017 11.4273L34.3679 11.9271ZM30.5039 18.6231L29.5908 19.031L30.3904 20.8205L31.37 19.1229L30.5039 18.6231ZM29.9999 17.4951V16.4951H28.4578L29.0868 17.903L29.9999 17.4951ZM37.0559 17.4951L37.8743 18.0697L38.9799 16.4951H37.0559V17.4951ZM36.2639 18.6231L35.2973 18.8795L35.848 20.9557L37.0823 19.1977L36.2639 18.6231ZM34.4879 11.9271L35.4544 11.6707L35.2572 10.9271H34.4879V11.9271ZM23.4071 24.8183L34.0151 7.89829L32.3206 6.83592L21.7126 23.7559L23.4071 24.8183ZM33.1679 8.36711H36.7679V6.36711H33.1679V8.36711ZM35.8133 7.665L41.0933 24.585L43.0025 23.9892L37.7225 7.06922L35.8133 7.665ZM42.0479 23.2871H37.7519V25.2871H42.0479V23.2871ZM38.7152 24.019L37.4192 19.363L35.4925 19.8993L36.7885 24.5553L38.7152 24.019ZM35.8267 20.4084L37.3387 21.6324L38.5971 20.0779L37.0851 18.8539L35.8267 20.4084ZM37.9679 19.8551H28.0319V21.8551H37.9679V19.8551ZM28.5791 21.6921L30.4511 20.4681L29.3566 18.7941L27.4846 20.0181L28.5791 21.6921ZM29.0436 19.1212L26.2836 23.7772L28.0041 24.797L30.7641 20.141L29.0436 19.1212ZM27.1439 23.2871H22.5599V25.2871H27.1439V23.2871ZM33.5017 11.4273L29.6377 18.1233L31.37 19.1229L35.234 12.4269L33.5017 11.4273ZM31.4169 18.2152L30.9129 17.0872L29.0868 17.903L29.5908 19.031L31.4169 18.2152ZM29.9999 18.4951H37.0559V16.4951H29.9999V18.4951ZM36.2374 16.9205L35.4454 18.0485L37.0823 19.1977L37.8743 18.0697L36.2374 16.9205ZM37.2304 18.3667L35.4544 11.6707L33.5213 12.1835L35.2973 18.8795L37.2304 18.3667ZM34.4879 10.9271H34.3679V12.9271H34.4879V10.9271Z" fill="white" mask="url(#path-2-outside-1_108_3206)"/>
<path d="M56.1999 24.5511C54.9359 24.5511 53.7279 24.4071 52.5759 24.1191C51.4239 23.8311 50.4719 23.4471 49.7199 22.9671L51.1119 19.5591C51.8319 19.9271 52.6639 20.2471 53.6079 20.5191C54.5679 20.7911 55.5599 20.9271 56.5839 20.9271C57.6399 20.9271 58.3919 20.7911 58.8399 20.5191C59.3039 20.2471 59.5679 19.8951 59.6319 19.4631C59.6799 19.0791 59.5999 18.7671 59.3919 18.5271C59.1839 18.2711 58.7599 18.0871 58.1199 17.9751L55.3359 17.4951C53.8959 17.2551 52.7999 16.6951 52.0479 15.8151C51.2959 14.9191 51.0319 13.7751 51.2559 12.3831C51.4319 11.2791 51.8639 10.3351 52.5519 9.55111C53.2399 8.76711 54.1439 8.16711 55.2639 7.75111C56.3839 7.31911 57.6719 7.10311 59.1279 7.10311C60.2159 7.10311 61.2559 7.23911 62.2479 7.51111C63.2559 7.76711 64.0559 8.13511 64.6479 8.61511L63.2079 11.9511C62.6479 11.5831 61.9919 11.2871 61.2399 11.0631C60.4879 10.8391 59.6319 10.7271 58.6719 10.7271C57.7439 10.7271 57.0159 10.8631 56.4879 11.1351C55.9759 11.3911 55.6719 11.7751 55.5759 12.2871C55.5119 12.6391 55.5919 12.9671 55.8159 13.2711C56.0399 13.5591 56.4879 13.7591 57.1599 13.8711L59.9199 14.3271C61.4239 14.5831 62.5279 15.1431 63.2319 16.0071C63.9519 16.8711 64.1999 17.9911 63.9759 19.3671C63.8319 20.3751 63.4239 21.2711 62.7519 22.0551C62.0959 22.8391 61.2159 23.4551 60.1119 23.9031C59.0079 24.3351 57.7039 24.5511 56.1999 24.5511Z" fill="white"/>
<mask id="path-5-outside-2_108_3206" maskUnits="userSpaceOnUse" x="68.0479" y="6.28711" width="24" height="19" fill="black">
<rect fill="white" x="68.0479" y="6.28711" width="24" height="19"/>
<path d="M70.5599 24.2871L81.1679 7.36711H84.7679L90.0479 24.2871H85.7519L84.4559 19.6311L85.9679 20.8551H76.0319L77.9039 19.6311L75.1439 24.2871H70.5599ZM82.3679 11.9271L78.5039 18.6231L77.9999 17.4951H85.0559L84.2639 18.6231L82.4879 11.9271H82.3679Z"/>
</mask>
<path d="M70.5599 24.2871L69.7126 23.7559L68.7526 25.2871H70.5599V24.2871ZM81.1679 7.36711V6.36711H80.6145L80.3206 6.83592L81.1679 7.36711ZM84.7679 7.36711L85.7225 7.06922L85.5034 6.36711H84.7679V7.36711ZM90.0479 24.2871V25.2871H91.4075L91.0025 23.9892L90.0479 24.2871ZM85.7519 24.2871L84.7885 24.5553L84.9922 25.2871H85.7519V24.2871ZM84.4559 19.6311L85.0851 18.8539L82.6536 16.8856L83.4925 19.8993L84.4559 19.6311ZM85.9679 20.8551V21.8551H88.7925L86.5971 20.0779L85.9679 20.8551ZM76.0319 20.8551L75.4846 20.0181L72.6751 21.8551H76.0319V20.8551ZM77.9039 19.6311L78.7641 20.141L77.3566 18.7941L77.9039 19.6311ZM75.1439 24.2871V25.2871H75.7136L76.0041 24.797L75.1439 24.2871ZM82.3679 11.9271V10.9271H81.7904L81.5017 11.4273L82.3679 11.9271ZM78.5039 18.6231L77.5908 19.031L78.3904 20.8205L79.37 19.1229L78.5039 18.6231ZM77.9999 17.4951V16.4951H76.4578L77.0868 17.903L77.9999 17.4951ZM85.0559 17.4951L85.8743 18.0697L86.9799 16.4951H85.0559V17.4951ZM84.2639 18.6231L83.2973 18.8795L83.848 20.9557L85.0823 19.1977L84.2639 18.6231ZM82.4879 11.9271L83.4544 11.6707L83.2572 10.9271H82.4879V11.9271ZM71.4071 24.8183L82.0151 7.89829L80.3206 6.83592L69.7126 23.7559L71.4071 24.8183ZM81.1679 8.36711H84.7679V6.36711H81.1679V8.36711ZM83.8133 7.665L89.0933 24.585L91.0025 23.9892L85.7225 7.06922L83.8133 7.665ZM90.0479 23.2871H85.7519V25.2871H90.0479V23.2871ZM86.7152 24.019L85.4192 19.363L83.4925 19.8993L84.7885 24.5553L86.7152 24.019ZM83.8267 20.4084L85.3387 21.6324L86.5971 20.0779L85.0851 18.8539L83.8267 20.4084ZM85.9679 19.8551H76.0319V21.8551H85.9679V19.8551ZM76.5791 21.6921L78.4511 20.4681L77.3566 18.7941L75.4846 20.0181L76.5791 21.6921ZM77.0436 19.1212L74.2836 23.7772L76.0041 24.797L78.7641 20.141L77.0436 19.1212ZM75.1439 23.2871H70.5599V25.2871H75.1439V23.2871ZM81.5017 11.4273L77.6377 18.1233L79.37 19.1229L83.234 12.4269L81.5017 11.4273ZM79.4169 18.2152L78.9129 17.0872L77.0868 17.903L77.5908 19.031L79.4169 18.2152ZM77.9999 18.4951H85.0559V16.4951H77.9999V18.4951ZM84.2374 16.9205L83.4454 18.0485L85.0823 19.1977L85.8743 18.0697L84.2374 16.9205ZM85.2304 18.3667L83.4544 11.6707L81.5213 12.1835L83.2973 18.8795L85.2304 18.3667ZM82.4879 10.9271H82.3679V12.9271H82.4879V10.9271Z" fill="white" mask="url(#path-5-outside-2_108_3206)"/>
</svg>
