<svg width="91" height="30" viewBox="0 0 91 30" fill="none" xmlns="http://www.w3.org/2000/svg">
<path d="M6.24 24L1.248 7.08H5.856L9.288 19.944H7.968L15.456 7.08H20.184L9.816 24H6.24Z" fill="white"/>
<mask id="path-2-outside-1_1_74" maskUnits="userSpaceOnUse" x="20" y="6" width="24" height="19" fill="black">
<rect fill="white" x="20" y="6" width="24" height="19"/>
<path d="M22.512 24L33.12 7.08H36.72L42 24H37.704L36.408 19.344L37.92 20.568H27.984L29.856 19.344L27.096 24H22.512ZM34.32 11.64L30.456 18.336L29.952 17.208H37.008L36.216 18.336L34.44 11.64H34.32Z"/>
</mask>
<path d="M22.512 24L21.6647 23.4688L20.7048 25H22.512V24ZM33.12 7.08V6.08H32.5667L32.2727 6.54881L33.12 7.08ZM36.72 7.08L37.6746 6.78211L37.4555 6.08H36.72V7.08ZM42 24V25H43.3596L42.9546 23.7021L42 24ZM37.704 24L36.7406 24.2682L36.9443 25H37.704V24ZM36.408 19.344L37.0372 18.5668L34.6058 16.5984L35.4446 19.6122L36.408 19.344ZM37.92 20.568V21.568H40.7446L38.5492 19.7908L37.92 20.568ZM27.984 20.568L27.4368 19.731L24.6273 21.568H27.984V20.568ZM29.856 19.344L30.7162 19.8539L29.3088 18.507L29.856 19.344ZM27.096 24V25H27.6657L27.9562 24.5099L27.096 24ZM34.32 11.64V10.64H33.7425L33.4539 11.1402L34.32 11.64ZM30.456 18.336L29.543 18.7439L30.3425 20.5334L31.3221 18.8358L30.456 18.336ZM29.952 17.208V16.208H28.4099L29.039 17.6159L29.952 17.208ZM37.008 17.208L37.8264 17.7826L38.932 16.208H37.008V17.208ZM36.216 18.336L35.2494 18.5924L35.8001 20.6686L37.0344 18.9106L36.216 18.336ZM34.44 11.64L35.4066 11.3836L35.2093 10.64H34.44V11.64ZM23.3593 24.5312L33.9673 7.61119L32.2727 6.54881L21.6647 23.4688L23.3593 24.5312ZM33.12 8.08H36.72V6.08H33.12V8.08ZM35.7654 7.37789L41.0454 24.2979L42.9546 23.7021L37.6746 6.78211L35.7654 7.37789ZM42 23H37.704V25H42V23ZM38.6674 23.7318L37.3714 19.0758L35.4446 19.6122L36.7406 24.2682L38.6674 23.7318ZM35.7788 20.1212L37.2908 21.3452L38.5492 19.7908L37.0372 18.5668L35.7788 20.1212ZM37.92 19.568H27.984V21.568H37.92V19.568ZM28.5312 21.405L30.4032 20.181L29.3088 18.507L27.4368 19.731L28.5312 21.405ZM28.9958 18.8341L26.2358 23.4901L27.9562 24.5099L30.7162 19.8539L28.9958 18.8341ZM27.096 23H22.512V25H27.096V23ZM33.4539 11.1402L29.5899 17.8362L31.3221 18.8358L35.1861 12.1398L33.4539 11.1402ZM31.369 17.9281L30.865 16.8001L29.039 17.6159L29.543 18.7439L31.369 17.9281ZM29.952 18.208H37.008V16.208H29.952V18.208ZM36.1896 16.6334L35.3976 17.7614L37.0344 18.9106L37.8264 17.7826L36.1896 16.6334ZM37.1826 18.0796L35.4066 11.3836L33.4734 11.8964L35.2494 18.5924L37.1826 18.0796ZM34.44 10.64H34.32V12.64H34.44V10.64Z" fill="#40944D" mask="url(#path-2-outside-1_1_74)"/>
<path d="M56.152 24.264C54.888 24.264 53.68 24.12 52.528 23.832C51.376 23.544 50.424 23.16 49.672 22.68L51.064 19.272C51.784 19.64 52.616 19.96 53.56 20.232C54.52 20.504 55.512 20.64 56.536 20.64C57.592 20.64 58.344 20.504 58.792 20.232C59.256 19.96 59.52 19.608 59.584 19.176C59.632 18.792 59.552 18.48 59.344 18.24C59.136 17.984 58.712 17.8 58.072 17.688L55.288 17.208C53.848 16.968 52.752 16.408 52 15.528C51.248 14.632 50.984 13.488 51.208 12.096C51.384 10.992 51.816 10.048 52.504 9.264C53.192 8.48 54.096 7.88 55.216 7.464C56.336 7.032 57.624 6.816 59.08 6.816C60.168 6.816 61.208 6.952 62.2 7.224C63.208 7.48 64.008 7.848 64.6 8.328L63.16 11.664C62.6 11.296 61.944 11 61.192 10.776C60.44 10.552 59.584 10.44 58.624 10.44C57.696 10.44 56.968 10.576 56.44 10.848C55.928 11.104 55.624 11.488 55.528 12C55.464 12.352 55.544 12.68 55.768 12.984C55.992 13.272 56.44 13.472 57.112 13.584L59.872 14.04C61.376 14.296 62.48 14.856 63.184 15.72C63.904 16.584 64.152 17.704 63.928 19.08C63.784 20.088 63.376 20.984 62.704 21.768C62.048 22.552 61.168 23.168 60.064 23.616C58.96 24.048 57.656 24.264 56.152 24.264Z" fill="white"/>
<mask id="path-5-outside-2_1_74" maskUnits="userSpaceOnUse" x="68" y="6" width="24" height="19" fill="black">
<rect fill="white" x="68" y="6" width="24" height="19"/>
<path d="M70.512 24L81.12 7.08H84.72L90 24H85.704L84.408 19.344L85.92 20.568H75.984L77.856 19.344L75.096 24H70.512ZM82.32 11.64L78.456 18.336L77.952 17.208H85.008L84.216 18.336L82.44 11.64H82.32Z"/>
</mask>
<path d="M70.512 24L69.6647 23.4688L68.7048 25H70.512V24ZM81.12 7.08V6.08H80.5667L80.2727 6.54881L81.12 7.08ZM84.72 7.08L85.6746 6.78211L85.4555 6.08H84.72V7.08ZM90 24V25H91.3596L90.9546 23.7021L90 24ZM85.704 24L84.7406 24.2682L84.9443 25H85.704V24ZM84.408 19.344L85.0372 18.5668L82.6058 16.5984L83.4446 19.6122L84.408 19.344ZM85.92 20.568V21.568H88.7446L86.5492 19.7908L85.92 20.568ZM75.984 20.568L75.4368 19.731L72.6273 21.568H75.984V20.568ZM77.856 19.344L78.7162 19.8539L77.3088 18.507L77.856 19.344ZM75.096 24V25H75.6657L75.9562 24.5099L75.096 24ZM82.32 11.64V10.64H81.7425L81.4539 11.1402L82.32 11.64ZM78.456 18.336L77.543 18.7439L78.3425 20.5334L79.3221 18.8358L78.456 18.336ZM77.952 17.208V16.208H76.4099L77.039 17.6159L77.952 17.208ZM85.008 17.208L85.8264 17.7826L86.932 16.208H85.008V17.208ZM84.216 18.336L83.2494 18.5924L83.8001 20.6686L85.0344 18.9106L84.216 18.336ZM82.44 11.64L83.4066 11.3836L83.2093 10.64H82.44V11.64ZM71.3593 24.5312L81.9673 7.61119L80.2727 6.54881L69.6647 23.4688L71.3593 24.5312ZM81.12 8.08H84.72V6.08H81.12V8.08ZM83.7654 7.37789L89.0454 24.2979L90.9546 23.7021L85.6746 6.78211L83.7654 7.37789ZM90 23H85.704V25H90V23ZM86.6674 23.7318L85.3714 19.0758L83.4446 19.6122L84.7406 24.2682L86.6674 23.7318ZM83.7788 20.1212L85.2908 21.3452L86.5492 19.7908L85.0372 18.5668L83.7788 20.1212ZM85.92 19.568H75.984V21.568H85.92V19.568ZM76.5312 21.405L78.4032 20.181L77.3088 18.507L75.4368 19.731L76.5312 21.405ZM76.9958 18.8341L74.2358 23.4901L75.9562 24.5099L78.7162 19.8539L76.9958 18.8341ZM75.096 23H70.512V25H75.096V23ZM81.4539 11.1402L77.5899 17.8362L79.3221 18.8358L83.1861 12.1398L81.4539 11.1402ZM79.369 17.9281L78.865 16.8001L77.039 17.6159L77.543 18.7439L79.369 17.9281ZM77.952 18.208H85.008V16.208H77.952V18.208ZM84.1896 16.6334L83.3976 17.7614L85.0344 18.9106L85.8264 17.7826L84.1896 16.6334ZM85.1826 18.0796L83.4066 11.3836L81.4734 11.8964L83.2494 18.5924L85.1826 18.0796ZM82.44 10.64H82.32V12.64H82.44V10.64Z" fill="#40944D" mask="url(#path-5-outside-2_1_74)"/>
</svg>
