<svg width="92" height="31" viewBox="0 0 92 31" fill="none" xmlns="http://www.w3.org/2000/svg">
<path d="M6.78785 24.1582L1.79585 7.2382H6.40385L9.83585 20.1022H8.51585L16.0039 7.2382H20.7319L10.3639 24.1582H6.78785Z" fill="#343434"/>
<mask id="path-2-outside-1_108_2933" maskUnits="userSpaceOnUse" x="20.5479" y="6.1582" width="24" height="19" fill="black">
<rect fill="white" x="20.5479" y="6.1582" width="24" height="19"/>
<path d="M23.0599 24.1582L33.6679 7.2382H37.2679L42.5479 24.1582H38.2519L36.9559 19.5022L38.4679 20.7262H28.5319L30.4039 19.5022L27.6439 24.1582H23.0599ZM34.8679 11.7982L31.0039 18.4942L30.4999 17.3662H37.5559L36.7639 18.4942L34.9879 11.7982H34.8679Z"/>
</mask>
<path d="M23.0599 24.1582L22.2126 23.627L21.2526 25.1582H23.0599V24.1582ZM33.6679 7.2382V6.2382H33.1145L32.8206 6.70702L33.6679 7.2382ZM37.2679 7.2382L38.2225 6.94031L38.0034 6.2382H37.2679V7.2382ZM42.5479 24.1582V25.1582H43.9075L43.5025 23.8603L42.5479 24.1582ZM38.2519 24.1582L37.2885 24.4264L37.4922 25.1582H38.2519V24.1582ZM36.9559 19.5022L37.5851 18.725L35.1536 16.7566L35.9925 19.7704L36.9559 19.5022ZM38.4679 20.7262V21.7262H41.2925L39.0971 19.949L38.4679 20.7262ZM28.5319 20.7262L27.9846 19.8892L25.1751 21.7262H28.5319V20.7262ZM30.4039 19.5022L31.2641 20.0121L29.8566 18.6652L30.4039 19.5022ZM27.6439 24.1582V25.1582H28.2136L28.5041 24.6681L27.6439 24.1582ZM34.8679 11.7982V10.7982H34.2904L34.0017 11.2984L34.8679 11.7982ZM31.0039 18.4942L30.0908 18.9021L30.8904 20.6916L31.87 18.994L31.0039 18.4942ZM30.4999 17.3662V16.3662H28.9578L29.5868 17.7741L30.4999 17.3662ZM37.5559 17.3662L38.3743 17.9408L39.4799 16.3662H37.5559V17.3662ZM36.7639 18.4942L35.7973 18.7506L36.348 20.8268L37.5823 19.0688L36.7639 18.4942ZM34.9879 11.7982L35.9544 11.5418L35.7572 10.7982H34.9879V11.7982ZM23.9071 24.6894L34.5151 7.76939L32.8206 6.70702L22.2126 23.627L23.9071 24.6894ZM33.6679 8.2382H37.2679V6.2382H33.6679V8.2382ZM36.3133 7.53609L41.5933 24.4561L43.5025 23.8603L38.2225 6.94031L36.3133 7.53609ZM42.5479 23.1582H38.2519V25.1582H42.5479V23.1582ZM39.2152 23.89L37.9192 19.234L35.9925 19.7704L37.2885 24.4264L39.2152 23.89ZM36.3267 20.2794L37.8387 21.5034L39.0971 19.949L37.5851 18.725L36.3267 20.2794ZM38.4679 19.7262H28.5319V21.7262H38.4679V19.7262ZM29.0791 21.5632L30.9511 20.3392L29.8566 18.6652L27.9846 19.8892L29.0791 21.5632ZM29.5436 18.9923L26.7836 23.6483L28.5041 24.6681L31.2641 20.0121L29.5436 18.9923ZM27.6439 23.1582H23.0599V25.1582H27.6439V23.1582ZM34.0017 11.2984L30.1377 17.9944L31.87 18.994L35.734 12.298L34.0017 11.2984ZM31.9169 18.0863L31.4129 16.9583L29.5868 17.7741L30.0908 18.9021L31.9169 18.0863ZM30.4999 18.3662H37.5559V16.3662H30.4999V18.3662ZM36.7374 16.7916L35.9454 17.9196L37.5823 19.0688L38.3743 17.9408L36.7374 16.7916ZM37.7304 18.2378L35.9544 11.5418L34.0213 12.0546L35.7973 18.7506L37.7304 18.2378ZM34.9879 10.7982H34.8679V12.7982H34.9879V10.7982Z" fill="#343434" mask="url(#path-2-outside-1_108_2933)"/>
<path d="M56.6999 24.4222C55.4359 24.4222 54.2279 24.2782 53.0759 23.9902C51.9239 23.7022 50.9719 23.3182 50.2199 22.8382L51.6119 19.4302C52.3319 19.7982 53.1639 20.1182 54.1079 20.3902C55.0679 20.6622 56.0599 20.7982 57.0839 20.7982C58.1399 20.7982 58.8919 20.6622 59.3399 20.3902C59.8039 20.1182 60.0679 19.7662 60.1319 19.3342C60.1799 18.9502 60.0999 18.6382 59.8919 18.3982C59.6839 18.1422 59.2599 17.9582 58.6199 17.8462L55.8359 17.3662C54.3959 17.1262 53.2999 16.5662 52.5479 15.6862C51.7959 14.7902 51.5319 13.6462 51.7559 12.2542C51.9319 11.1502 52.3639 10.2062 53.0519 9.4222C53.7399 8.6382 54.6439 8.0382 55.7639 7.6222C56.8839 7.1902 58.1719 6.9742 59.6279 6.9742C60.7159 6.9742 61.7559 7.1102 62.7479 7.3822C63.7559 7.6382 64.5559 8.0062 65.1479 8.4862L63.7079 11.8222C63.1479 11.4542 62.4919 11.1582 61.7399 10.9342C60.9879 10.7102 60.1319 10.5982 59.1719 10.5982C58.2439 10.5982 57.5159 10.7342 56.9879 11.0062C56.4759 11.2622 56.1719 11.6462 56.0759 12.1582C56.0119 12.5102 56.0919 12.8382 56.3159 13.1422C56.5399 13.4302 56.9879 13.6302 57.6599 13.7422L60.4199 14.1982C61.9239 14.4542 63.0279 15.0142 63.7319 15.8782C64.4519 16.7422 64.6999 17.8622 64.4759 19.2382C64.3319 20.2462 63.9239 21.1422 63.2519 21.9262C62.5959 22.7102 61.7159 23.3262 60.6119 23.7742C59.5079 24.2062 58.2039 24.4222 56.6999 24.4222Z" fill="#343434"/>
<mask id="path-5-outside-2_108_2933" maskUnits="userSpaceOnUse" x="68.5479" y="6.1582" width="24" height="19" fill="black">
<rect fill="white" x="68.5479" y="6.1582" width="24" height="19"/>
<path d="M71.0599 24.1582L81.6679 7.2382H85.2679L90.5479 24.1582H86.2519L84.9559 19.5022L86.4679 20.7262H76.5319L78.4039 19.5022L75.6439 24.1582H71.0599ZM82.8679 11.7982L79.0039 18.4942L78.4999 17.3662H85.5559L84.7639 18.4942L82.9879 11.7982H82.8679Z"/>
</mask>
<path d="M71.0599 24.1582L70.2126 23.627L69.2526 25.1582H71.0599V24.1582ZM81.6679 7.2382V6.2382H81.1145L80.8206 6.70702L81.6679 7.2382ZM85.2679 7.2382L86.2225 6.94031L86.0034 6.2382H85.2679V7.2382ZM90.5479 24.1582V25.1582H91.9075L91.5025 23.8603L90.5479 24.1582ZM86.2519 24.1582L85.2885 24.4264L85.4922 25.1582H86.2519V24.1582ZM84.9559 19.5022L85.5851 18.725L83.1536 16.7566L83.9925 19.7704L84.9559 19.5022ZM86.4679 20.7262V21.7262H89.2925L87.0971 19.949L86.4679 20.7262ZM76.5319 20.7262L75.9846 19.8892L73.1751 21.7262H76.5319V20.7262ZM78.4039 19.5022L79.2641 20.0121L77.8566 18.6652L78.4039 19.5022ZM75.6439 24.1582V25.1582H76.2136L76.5041 24.6681L75.6439 24.1582ZM82.8679 11.7982V10.7982H82.2904L82.0017 11.2984L82.8679 11.7982ZM79.0039 18.4942L78.0908 18.9021L78.8904 20.6916L79.87 18.994L79.0039 18.4942ZM78.4999 17.3662V16.3662H76.9578L77.5868 17.7741L78.4999 17.3662ZM85.5559 17.3662L86.3743 17.9408L87.4799 16.3662H85.5559V17.3662ZM84.7639 18.4942L83.7973 18.7506L84.348 20.8268L85.5823 19.0688L84.7639 18.4942ZM82.9879 11.7982L83.9544 11.5418L83.7572 10.7982H82.9879V11.7982ZM71.9071 24.6894L82.5151 7.76939L80.8206 6.70702L70.2126 23.627L71.9071 24.6894ZM81.6679 8.2382H85.2679V6.2382H81.6679V8.2382ZM84.3133 7.53609L89.5933 24.4561L91.5025 23.8603L86.2225 6.94031L84.3133 7.53609ZM90.5479 23.1582H86.2519V25.1582H90.5479V23.1582ZM87.2152 23.89L85.9192 19.234L83.9925 19.7704L85.2885 24.4264L87.2152 23.89ZM84.3267 20.2794L85.8387 21.5034L87.0971 19.949L85.5851 18.725L84.3267 20.2794ZM86.4679 19.7262H76.5319V21.7262H86.4679V19.7262ZM77.0791 21.5632L78.9511 20.3392L77.8566 18.6652L75.9846 19.8892L77.0791 21.5632ZM77.5436 18.9923L74.7836 23.6483L76.5041 24.6681L79.2641 20.0121L77.5436 18.9923ZM75.6439 23.1582H71.0599V25.1582H75.6439V23.1582ZM82.0017 11.2984L78.1377 17.9944L79.87 18.994L83.734 12.298L82.0017 11.2984ZM79.9169 18.0863L79.4129 16.9583L77.5868 17.7741L78.0908 18.9021L79.9169 18.0863ZM78.4999 18.3662H85.5559V16.3662H78.4999V18.3662ZM84.7374 16.7916L83.9454 17.9196L85.5823 19.0688L86.3743 17.9408L84.7374 16.7916ZM85.7304 18.2378L83.9544 11.5418L82.0213 12.0546L83.7973 18.7506L85.7304 18.2378ZM82.9879 10.7982H82.8679V12.7982H82.9879V10.7982Z" fill="#343434" mask="url(#path-5-outside-2_108_2933)"/>
</svg>
