<svg width="854" height="262" viewBox="0 0 854 262" fill="none" xmlns="http://www.w3.org/2000/svg">
<mask id="path-1-inside-1_24_24" fill="white">
<path d="M839.336 240.121L838.82 234.283C837.189 215.824 835.386 199.855 833.926 190.926C833.067 185.345 832.294 179.507 832.294 177.962C832.294 176.417 834.012 166.887 836.073 156.756C840.194 136.751 840.881 131.772 839.593 131.085C838.477 130.57 834.098 138.726 830.062 149.029L826.885 157.013L825.253 151.604C821.218 138.211 815.035 124.302 812.803 123.53C811.257 123.1 811.343 130.57 812.974 141.388C816.495 164.74 818.556 184.916 817.697 187.749C816.237 192.643 812.717 210.759 811.601 219.087L810.484 226.814L809.024 216.082C808.166 210.158 806.449 200.542 805.246 194.618C803.357 185.775 802.756 180.452 802.241 164.139C800.953 130.656 799.064 112.969 796.316 110.222C794.942 108.848 793.998 110.48 792.796 116.06C791.422 122.414 789.361 137.009 789.361 140.787C789.361 143.706 789.189 144.049 787.644 143.534C786.012 143.019 785.926 143.362 785.926 148.428V153.837L784.123 150.231C783.179 148.256 781.805 146.195 781.118 145.594C779.229 144.049 779.572 150.66 782.234 169.376C784.381 184.229 784.552 187.921 784.638 212.819V240.121H777.34V217.97C777.254 156.498 773.218 118.207 768.324 132.802C767.465 135.292 767.293 135.464 766.692 134.004C764.116 127.479 760.08 154.781 757.504 196.335C756.989 205.092 756.474 212.304 756.302 212.476C756.044 212.733 750.206 189.982 748.488 182.083L747.029 175.215L752.867 156.756C763.944 121.813 765.146 117.777 765.747 113.57C766.263 110.222 766.177 109.449 765.232 109.793C763.172 110.394 756.216 121.469 749.604 134.691C742.048 149.63 742.134 149.716 742.134 128.166C742.134 112.197 742.907 104.556 746.427 87.2129C747.887 80.3445 749.003 73.8195 749.003 72.7034V70.7287L746.771 72.7892C741.361 77.7688 733.547 98.2024 730.37 115.202C728.567 125.161 728.309 155.039 730.027 168.518L731.143 178.048L728.309 186.719C726.764 191.527 725.39 195.305 725.218 195.133C725.047 195.047 723.93 188.951 722.642 181.654C720.581 169.892 720.324 166.286 720.324 148.685C720.324 129.711 720.41 128.423 723.072 116.146C725.991 102.323 726.334 99.7478 724.875 100.606C724.274 101.036 724.188 100.177 724.617 97.859C724.875 96.056 725.218 94.2531 725.304 93.8238C725.304 93.3945 724.961 92.8794 724.36 92.7077C722.814 92.1067 717.318 101.293 713.626 110.566C708.818 122.843 705.555 138.812 704.954 153.407L704.782 158.129L701.175 148.256C699.201 142.847 697.14 136.408 696.539 134.09C696.023 131.686 695.079 129.368 694.478 128.939C693.963 128.423 691.816 124.217 689.755 119.494C680.653 98.7175 665.798 72.7034 663.05 72.7034C661.677 72.7034 662.192 78.3698 664.51 86.0968C665.712 90.3037 669.319 102.066 672.582 112.197C685.462 152.635 687.952 161.993 687.265 168.003L686.75 172.725L685.118 168.003C682.628 160.447 673.956 140.014 669.319 130.484C666.056 123.701 664.94 120.353 664.51 115.889C663.737 107.99 661.677 101.036 660.131 101.036C659.53 101.036 658.5 102.409 657.984 104.126L656.954 107.131L654.034 103.869L651.201 100.606L651.115 103.268C651.115 104.642 651.974 108.934 653.004 112.712C655.237 120.868 655.151 118.979 653.433 140.1C652.575 149.544 651.63 161.735 651.287 167.144C650.686 176.76 650.6 176.502 649.999 155.983C648.625 109.449 645.619 80.6879 642.099 80.1728C640.639 79.9152 638.492 88.1573 637.29 98.2024C636.432 105.672 635.831 107.904 634.8 108.162C631.022 109.192 627.244 146.796 625.698 200.198L625.011 220.804L621.405 206.208C614.793 179.593 612.904 163.796 613.591 142.675C614.02 131.085 614.621 125.504 616.682 115.631C618.142 108.763 619.344 102.409 619.344 101.551C619.344 99.9195 619.344 99.9195 617.541 101.551C612.904 105.758 607.237 119.409 604.06 134.09C602.085 143.191 601.827 146.453 601.827 161.907C601.741 178.305 601.656 179.078 600.625 174.356C597.706 160.791 589.548 139.756 586.972 138.984C585.341 138.554 585.598 143.019 587.917 160.705C591.867 189.81 592.296 193.845 590.149 186.032C588.432 179.593 584.139 169.119 581.219 164.311C579.33 161.22 577.956 157.443 577.355 153.665C572.117 123.53 560.268 90.4754 547.559 70.7287C543.867 65.0623 542.407 63.9461 541.634 66.0925C541.377 66.6077 542.751 73.1327 544.64 80.4304C550.393 102.495 555.545 124.388 556.661 131.343C557.692 137.782 557.692 138.039 555.373 143.276C552.368 150.231 547.731 163.367 544.039 175.3C540.604 186.633 540.776 185.517 546.271 158.645C550.736 137.181 551.681 129.196 549.534 130.999C547.817 132.373 541.463 146.195 537.77 156.584C535.881 161.649 534.422 165.427 534.422 164.912C534.336 164.311 536.654 152.549 539.488 138.554C544.468 114.171 545.498 106.187 543.867 106.187C542.665 106.187 538.457 114 534.765 122.929C520.683 157.099 511.667 195.047 508.919 231.707L508.318 240.121H492.948L493.549 235.227C496.382 212.046 509.52 161.907 523.516 120.782C525.921 113.57 530.042 98.2024 530.042 96.2277C530.042 95.1116 529.699 94.0813 529.184 93.7379C527.295 92.5359 515.531 112.025 506.515 131.343L501.191 142.933L499.731 135.635C498.958 131.6 497.67 127.307 496.812 126.02L495.266 123.787L494.665 127.651C494.408 129.797 494.064 133.575 494.064 136.15C493.806 151.175 488.74 172.038 475.774 211.102C467.617 235.399 465.814 240.121 464.526 240.121C463.581 240.121 463.066 239.692 463.324 239.005C464.354 236.172 473.542 206.809 475.86 198.911C479.81 184.916 483.417 170.235 485.391 159.417C487.796 146.796 488.654 123.53 487.109 114.171C486.078 107.561 483.245 99.3185 481.957 99.3185C481.184 99.3185 480.239 105.929 480.239 111.768C480.239 121.212 477.148 139.67 472.683 156.412L471.052 162.422L471.137 150.402C471.137 143.792 470.622 135.893 470.021 132.802C468.819 126.535 466.157 119.924 464.869 119.924C464.44 119.924 463.839 122.929 463.581 126.535C461.52 154.266 457.914 171.437 447.782 201.916C445.206 209.471 445.206 209.557 445.12 205.779C444.004 161.22 433.871 116.232 417.642 83.7787C413.091 74.7639 406.823 64.9764 405.535 64.9764C403.303 64.9764 403.818 67.5521 411.889 98.8892C422.966 141.903 427.088 179.078 425.284 219.516C424.855 229.218 424.426 237.803 424.426 238.576C424.426 239.778 423.739 240.121 421.42 240.121C418.673 240.121 418.501 239.949 418.844 237.717C420.991 225.612 421.678 183.027 420.132 162.766C417.041 122.929 408.97 86.9554 395.059 51.8406C385.614 27.7152 369.729 0.584961 365.178 0.584961C363.288 0.584961 364.748 8.65536 370.244 27.6294C377.199 52.184 381.836 70.8146 385.356 88.8442C388.362 103.783 388.705 108.419 386.387 100.435C381.664 84.5514 365.521 53.7294 361.142 52.2698C358.652 51.4971 359.768 57.507 367.238 85.5817C374.022 110.823 377.542 128.423 380.719 152.549C381.836 161.478 384.068 188.951 383.982 194.189C383.897 199.082 384.412 200.027 379.603 185.174C374.194 168.346 363.804 151.175 352.04 139.67C348.348 136.065 346.287 133.403 346.287 132.115C346.287 130.141 345.085 129.54 344.14 131.085C343.797 131.6 341.993 130.827 339.675 129.282C335.983 126.706 322.502 120.782 320.441 120.782C319.84 120.782 316.663 118.121 313.228 114.858C302.838 105.071 294.165 99.8336 281.285 95.8843C271.239 92.7935 272.527 95.5409 285.665 104.813C289.958 107.904 294.595 111.51 295.883 112.884L298.287 115.459L297.171 122.843L296.055 130.312L290.559 126.277C287.554 124.045 281.972 120.954 278.108 119.323L271.153 116.575L271.411 113.055C271.754 108.934 270.638 108.677 268.148 112.197C267.117 113.656 265.572 114.772 264.627 114.772C263.339 114.772 262.996 115.202 263.425 116.318C263.683 117.348 261.192 123.186 256.298 132.716L248.656 147.483L248.055 142.16C246.509 126.706 247.883 107.732 252.262 86.4402C253.808 78.7132 254.924 72.0165 254.667 71.5873C252.778 68.4965 243.761 85.5817 239.382 100.778C234.402 118.035 232.856 143.706 235.432 167.316L236.634 178.219L234.23 185.775C232.942 189.896 231.568 193.673 231.225 194.017C229.851 195.562 226.159 170.578 225.558 155.554C224.957 141.645 225.987 129.625 229.078 114.687C231.482 103.01 231.74 99.7478 230.194 100.692C229.593 101.121 229.422 100.864 229.765 99.9195C230.023 99.2327 230.538 97.1721 230.881 95.5409C231.654 91.334 229.593 91.4198 226.674 95.7126C217.486 109.707 211.991 129.625 210.359 154.695C210.187 158.129 210.187 158.129 208.212 152.12C198.424 122.499 173.436 72.7034 168.456 72.7034C166.223 72.7034 168.027 80.4304 177.129 108.763C191.297 153.064 196.792 173.583 202.803 204.234C206.066 220.975 206.152 224.495 202.889 210.072C196.363 181.224 184.084 147.483 171.032 122.499C165.107 111.252 158.495 101.036 157.207 101.036C156.692 101.036 156.52 102.323 156.692 104.041C156.864 105.672 156.95 106.874 156.864 106.788C156.692 106.702 154.717 103.611 152.313 99.9195C149.909 96.3136 147.59 93.3086 147.075 93.3086C144.499 93.3086 146.818 103.611 155.662 130.656C164.935 159.331 169.916 176.846 175.497 200.628C178.417 212.905 183.053 236.859 183.139 239.434C183.139 240.035 167.683 240.465 167.683 239.864C167.683 239.778 167.082 233.51 166.395 225.955C163.991 199.34 158.238 171.609 149.565 145.68C142.438 124.217 134.195 106.187 131.533 106.187C130.159 106.187 131.276 113.227 136.857 140.529C139.605 153.922 141.751 164.998 141.58 165.169C141.494 165.341 139.519 160.533 137.372 154.523C132.907 142.418 127.326 130.913 125.608 130.398C124.063 129.883 124.921 136.15 129.988 160.533C132.306 171.78 134.195 181.396 134.109 181.997C134.109 182.598 132.993 179.336 131.619 174.871C128.7 165.084 124.063 151.776 120.628 143.448L118.052 137.352L120.027 127.136C122.174 116.06 125.351 102.924 130.76 82.3192C135.569 64.032 135.311 61.3705 129.472 69.0116C125.608 74.0771 115.476 94.5965 111.526 105.328C107.061 117.777 102.768 133.06 99.8482 147.483C98.2167 155.554 96.5853 161.392 95.5549 162.851C93.494 165.77 89.1148 175.73 86.3671 183.886L84.3921 189.896L84.8215 185.603C84.9932 183.199 86.1954 173.927 87.3975 164.998C89.9735 145.423 90.317 139.585 89.029 139.07C86.7964 138.297 78.7249 158.816 75.3761 173.927C74.6033 177.275 73.9164 180.022 73.8305 180.022C73.7446 180.022 73.6588 171.437 73.6588 160.877C73.6588 140.443 72.886 134.863 68.4209 121.04C64.8145 110.308 58.5462 99.061 56.9147 100.778C56.4853 101.121 57.344 106.702 58.7179 113.055C63.6982 136.408 63.9558 157.099 59.4907 183.027C57.6016 194.103 51.8485 218.657 50.904 219.773C50.5605 220.203 50.217 213.42 50.1312 204.749C49.8736 173.068 46.8682 129.11 43.9487 115.202C42.489 108.419 42.2314 107.732 41.0293 108.247C40.2565 108.505 39.6554 106.445 38.8826 100.349C37.7663 90.733 36.65 85.3241 35.2762 81.8899C34.074 78.7991 32.5284 80.0011 31.2404 84.9807C28.922 94.5106 26.0025 136.065 26.0025 161.907C26.0025 169.205 25.7449 174.957 25.4873 174.699C25.2297 174.356 24.4569 166.114 23.8558 156.241C21.1081 115.717 18.1886 98.2024 14.7539 101.637C11.491 104.899 8.65737 138.469 7.5411 187.749C7.2835 199.34 6.85416 215.824 6.59656 224.495L6.08136 240.207L0.5 240.035V261.585H853.5V240.121H839.336ZM92.8071 240.121C91.0039 240.121 91.0039 239.949 91.605 228.273C92.1202 216.94 92.9789 207.153 93.4082 207.668C93.4941 207.84 93.8375 215.137 94.0951 223.98C94.6103 239.949 94.6103 240.121 92.8071 240.121ZM128.184 240.121H114.703L114.102 235.571C112.213 220.289 112.814 171.437 115.047 160.705C115.562 157.958 119.168 174.442 123.032 197.194C125.437 211.617 125.437 211.617 126.896 223.379C127.583 229.046 128.184 235.142 128.184 236.859V240.121ZM247.625 239.949L242.903 239.692L241.529 234.97C240.241 230.591 240.327 229.733 241.872 221.061C242.817 215.996 243.761 212.046 244.019 212.304C244.277 212.476 246.252 218.915 248.484 226.47L252.434 240.207L247.625 239.949ZM292.105 143.105C291.418 143.534 291.246 145.423 291.504 148.685C291.933 153.922 291.675 153.922 288.584 148.342C287.811 146.882 286.695 145.68 286.18 145.68C284.806 145.68 285.149 150.145 287.64 167.23C289.614 181.139 289.958 186.462 290.216 211.617L290.645 240.121H282.745V212.819C282.745 155.811 278.881 118.808 274.33 131.944C273.643 133.746 272.956 134.347 272.098 134.004C271.153 133.661 270.466 134.176 269.951 135.549C267.976 140.787 264.455 171.179 263.425 192.471C263.167 198.138 262.738 205.092 262.395 207.925L261.879 213.077L259.046 202.345C257.5 196.421 255.439 187.921 254.409 183.457L252.692 175.3L257.243 160.705C267.203 128.939 269.35 122.499 269.607 122.499C269.779 122.499 272.183 123.959 274.845 125.848C281.543 130.398 293.479 142.332 292.105 143.105ZM319.84 203.032C319.324 205.779 318.466 211.016 317.951 214.794C317.35 218.571 316.663 222.778 316.233 224.238C315.546 226.728 315.546 226.728 315.46 223.379C315.289 219.001 311.768 197.365 309.45 187.148C307.647 179.078 306.96 164.311 308.419 165.856C308.849 166.371 310.995 170.836 313.142 175.901C315.289 180.967 317.865 188.007 318.895 191.613C320.612 197.451 320.698 198.825 319.84 203.032ZM318.981 156.498C318.466 155.382 315.546 151.347 312.541 147.569L306.96 140.701L306.359 133.575C306.101 129.625 305.586 125.676 305.414 124.818C304.641 122.156 305.843 123.272 310.48 129.54C317.865 139.67 318.552 141.13 319.84 150.145C321.042 158.559 320.784 160.362 318.981 156.498ZM338.473 142.418C337.442 144.736 335.983 145.68 335.983 144.049C335.983 143.534 333.922 140.1 331.346 136.322C326.28 128.767 327.138 128.767 335.553 136.408C339.417 139.928 339.503 140.186 338.473 142.418ZM357.449 240.121V230.763C357.449 207.496 352.641 181.568 344.655 161.993C342.165 155.897 342.079 155.296 342.938 150.66C343.453 147.913 344.226 145.852 344.569 146.11C344.913 146.281 347.145 149.372 349.55 152.806C363.632 173.154 371.703 199.254 373.421 230.076L374.022 240.121H357.449ZM562.672 219.516C562.242 228.702 561.899 237.116 561.813 238.146C561.813 240.035 561.47 240.121 554.514 240.121C550.479 240.121 547.216 239.864 547.216 239.434C547.302 237.889 549.792 216.769 550.65 210.93C552.024 201.4 554.514 187.32 557.434 172.467C558.894 165.255 560.182 159.074 560.182 158.73C560.611 156.069 561.899 169.977 562.586 184.745C563.015 195.219 563.015 209.814 562.672 219.516ZM582.765 240.121C581.133 240.121 580.704 239.778 581.047 238.576C581.219 237.803 581.734 230.505 582.078 222.521L582.765 207.925L583.795 219.516C584.396 225.869 584.911 233.167 584.911 235.571C584.997 239.864 584.911 240.121 582.765 240.121ZM669.576 239.692L669.061 211.789C668.718 196.421 668.288 178.649 668.031 172.295L667.601 160.705L669.233 165.856C670.177 168.69 672.668 178.048 674.814 186.633C679.022 203.547 683.315 225.526 684.26 234.541L684.861 240.207L669.576 239.692ZM741.876 240.121H737.24L735.866 235.056C734.492 230.162 734.492 229.561 736.295 220.89C737.24 215.824 738.27 211.875 738.442 212.046C738.614 212.218 740.503 218.4 742.563 225.783C744.71 233.167 746.427 239.434 746.427 239.692C746.427 239.949 744.367 240.121 741.876 240.121Z"/>
</mask>
<path d="M839.336 240.121L838.82 234.283C837.189 215.824 835.386 199.855 833.926 190.926C833.067 185.345 832.294 179.507 832.294 177.962C832.294 176.417 834.012 166.887 836.073 156.756C840.194 136.751 840.881 131.772 839.593 131.085C838.477 130.57 834.098 138.726 830.062 149.029L826.885 157.013L825.253 151.604C821.218 138.211 815.035 124.302 812.803 123.53C811.257 123.1 811.343 130.57 812.974 141.388C816.495 164.74 818.556 184.916 817.697 187.749C816.237 192.643 812.717 210.759 811.601 219.087L810.484 226.814L809.024 216.082C808.166 210.158 806.449 200.542 805.246 194.618C803.357 185.775 802.756 180.452 802.241 164.139C800.953 130.656 799.064 112.969 796.316 110.222C794.942 108.848 793.998 110.48 792.796 116.06C791.422 122.414 789.361 137.009 789.361 140.787C789.361 143.706 789.189 144.049 787.644 143.534C786.012 143.019 785.926 143.362 785.926 148.428V153.837L784.123 150.231C783.179 148.256 781.805 146.195 781.118 145.594C779.229 144.049 779.572 150.66 782.234 169.376C784.381 184.229 784.552 187.921 784.638 212.819V240.121H777.34V217.97C777.254 156.498 773.218 118.207 768.324 132.802C767.465 135.292 767.293 135.464 766.692 134.004C764.116 127.479 760.08 154.781 757.504 196.335C756.989 205.092 756.474 212.304 756.302 212.476C756.044 212.733 750.206 189.982 748.488 182.083L747.029 175.215L752.867 156.756C763.944 121.813 765.146 117.777 765.747 113.57C766.263 110.222 766.177 109.449 765.232 109.793C763.172 110.394 756.216 121.469 749.604 134.691C742.048 149.63 742.134 149.716 742.134 128.166C742.134 112.197 742.907 104.556 746.427 87.2129C747.887 80.3445 749.003 73.8195 749.003 72.7034V70.7287L746.771 72.7892C741.361 77.7688 733.547 98.2024 730.37 115.202C728.567 125.161 728.309 155.039 730.027 168.518L731.143 178.048L728.309 186.719C726.764 191.527 725.39 195.305 725.218 195.133C725.047 195.047 723.93 188.951 722.642 181.654C720.581 169.892 720.324 166.286 720.324 148.685C720.324 129.711 720.41 128.423 723.072 116.146C725.991 102.323 726.334 99.7478 724.875 100.606C724.274 101.036 724.188 100.177 724.617 97.859C724.875 96.056 725.218 94.2531 725.304 93.8238C725.304 93.3945 724.961 92.8794 724.36 92.7077C722.814 92.1067 717.318 101.293 713.626 110.566C708.818 122.843 705.555 138.812 704.954 153.407L704.782 158.129L701.175 148.256C699.201 142.847 697.14 136.408 696.539 134.09C696.023 131.686 695.079 129.368 694.478 128.939C693.963 128.423 691.816 124.217 689.755 119.494C680.653 98.7175 665.798 72.7034 663.05 72.7034C661.677 72.7034 662.192 78.3698 664.51 86.0968C665.712 90.3037 669.319 102.066 672.582 112.197C685.462 152.635 687.952 161.993 687.265 168.003L686.75 172.725L685.118 168.003C682.628 160.447 673.956 140.014 669.319 130.484C666.056 123.701 664.94 120.353 664.51 115.889C663.737 107.99 661.677 101.036 660.131 101.036C659.53 101.036 658.5 102.409 657.984 104.126L656.954 107.131L654.034 103.869L651.201 100.606L651.115 103.268C651.115 104.642 651.974 108.934 653.004 112.712C655.237 120.868 655.151 118.979 653.433 140.1C652.575 149.544 651.63 161.735 651.287 167.144C650.686 176.76 650.6 176.502 649.999 155.983C648.625 109.449 645.619 80.6879 642.099 80.1728C640.639 79.9152 638.492 88.1573 637.29 98.2024C636.432 105.672 635.831 107.904 634.8 108.162C631.022 109.192 627.244 146.796 625.698 200.198L625.011 220.804L621.405 206.208C614.793 179.593 612.904 163.796 613.591 142.675C614.02 131.085 614.621 125.504 616.682 115.631C618.142 108.763 619.344 102.409 619.344 101.551C619.344 99.9195 619.344 99.9195 617.541 101.551C612.904 105.758 607.237 119.409 604.06 134.09C602.085 143.191 601.827 146.453 601.827 161.907C601.741 178.305 601.656 179.078 600.625 174.356C597.706 160.791 589.548 139.756 586.972 138.984C585.341 138.554 585.598 143.019 587.917 160.705C591.867 189.81 592.296 193.845 590.149 186.032C588.432 179.593 584.139 169.119 581.219 164.311C579.33 161.22 577.956 157.443 577.355 153.665C572.117 123.53 560.268 90.4754 547.559 70.7287C543.867 65.0623 542.407 63.9461 541.634 66.0925C541.377 66.6077 542.751 73.1327 544.64 80.4304C550.393 102.495 555.545 124.388 556.661 131.343C557.692 137.782 557.692 138.039 555.373 143.276C552.368 150.231 547.731 163.367 544.039 175.3C540.604 186.633 540.776 185.517 546.271 158.645C550.736 137.181 551.681 129.196 549.534 130.999C547.817 132.373 541.463 146.195 537.77 156.584C535.881 161.649 534.422 165.427 534.422 164.912C534.336 164.311 536.654 152.549 539.488 138.554C544.468 114.171 545.498 106.187 543.867 106.187C542.665 106.187 538.457 114 534.765 122.929C520.683 157.099 511.667 195.047 508.919 231.707L508.318 240.121H492.948L493.549 235.227C496.382 212.046 509.52 161.907 523.516 120.782C525.921 113.57 530.042 98.2024 530.042 96.2277C530.042 95.1116 529.699 94.0813 529.184 93.7379C527.295 92.5359 515.531 112.025 506.515 131.343L501.191 142.933L499.731 135.635C498.958 131.6 497.67 127.307 496.812 126.02L495.266 123.787L494.665 127.651C494.408 129.797 494.064 133.575 494.064 136.15C493.806 151.175 488.74 172.038 475.774 211.102C467.617 235.399 465.814 240.121 464.526 240.121C463.581 240.121 463.066 239.692 463.324 239.005C464.354 236.172 473.542 206.809 475.86 198.911C479.81 184.916 483.417 170.235 485.391 159.417C487.796 146.796 488.654 123.53 487.109 114.171C486.078 107.561 483.245 99.3185 481.957 99.3185C481.184 99.3185 480.239 105.929 480.239 111.768C480.239 121.212 477.148 139.67 472.683 156.412L471.052 162.422L471.137 150.402C471.137 143.792 470.622 135.893 470.021 132.802C468.819 126.535 466.157 119.924 464.869 119.924C464.44 119.924 463.839 122.929 463.581 126.535C461.52 154.266 457.914 171.437 447.782 201.916C445.206 209.471 445.206 209.557 445.12 205.779C444.004 161.22 433.871 116.232 417.642 83.7787C413.091 74.7639 406.823 64.9764 405.535 64.9764C403.303 64.9764 403.818 67.5521 411.889 98.8892C422.966 141.903 427.088 179.078 425.284 219.516C424.855 229.218 424.426 237.803 424.426 238.576C424.426 239.778 423.739 240.121 421.42 240.121C418.673 240.121 418.501 239.949 418.844 237.717C420.991 225.612 421.678 183.027 420.132 162.766C417.041 122.929 408.97 86.9554 395.059 51.8406C385.614 27.7152 369.729 0.584961 365.178 0.584961C363.288 0.584961 364.748 8.65536 370.244 27.6294C377.199 52.184 381.836 70.8146 385.356 88.8442C388.362 103.783 388.705 108.419 386.387 100.435C381.664 84.5514 365.521 53.7294 361.142 52.2698C358.652 51.4971 359.768 57.507 367.238 85.5817C374.022 110.823 377.542 128.423 380.719 152.549C381.836 161.478 384.068 188.951 383.982 194.189C383.897 199.082 384.412 200.027 379.603 185.174C374.194 168.346 363.804 151.175 352.04 139.67C348.348 136.065 346.287 133.403 346.287 132.115C346.287 130.141 345.085 129.54 344.14 131.085C343.797 131.6 341.993 130.827 339.675 129.282C335.983 126.706 322.502 120.782 320.441 120.782C319.84 120.782 316.663 118.121 313.228 114.858C302.838 105.071 294.165 99.8336 281.285 95.8843C271.239 92.7935 272.527 95.5409 285.665 104.813C289.958 107.904 294.595 111.51 295.883 112.884L298.287 115.459L297.171 122.843L296.055 130.312L290.559 126.277C287.554 124.045 281.972 120.954 278.108 119.323L271.153 116.575L271.411 113.055C271.754 108.934 270.638 108.677 268.148 112.197C267.117 113.656 265.572 114.772 264.627 114.772C263.339 114.772 262.996 115.202 263.425 116.318C263.683 117.348 261.192 123.186 256.298 132.716L248.656 147.483L248.055 142.16C246.509 126.706 247.883 107.732 252.262 86.4402C253.808 78.7132 254.924 72.0165 254.667 71.5873C252.778 68.4965 243.761 85.5817 239.382 100.778C234.402 118.035 232.856 143.706 235.432 167.316L236.634 178.219L234.23 185.775C232.942 189.896 231.568 193.673 231.225 194.017C229.851 195.562 226.159 170.578 225.558 155.554C224.957 141.645 225.987 129.625 229.078 114.687C231.482 103.01 231.74 99.7478 230.194 100.692C229.593 101.121 229.422 100.864 229.765 99.9195C230.023 99.2327 230.538 97.1721 230.881 95.5409C231.654 91.334 229.593 91.4198 226.674 95.7126C217.486 109.707 211.991 129.625 210.359 154.695C210.187 158.129 210.187 158.129 208.212 152.12C198.424 122.499 173.436 72.7034 168.456 72.7034C166.223 72.7034 168.027 80.4304 177.129 108.763C191.297 153.064 196.792 173.583 202.803 204.234C206.066 220.975 206.152 224.495 202.889 210.072C196.363 181.224 184.084 147.483 171.032 122.499C165.107 111.252 158.495 101.036 157.207 101.036C156.692 101.036 156.52 102.323 156.692 104.041C156.864 105.672 156.95 106.874 156.864 106.788C156.692 106.702 154.717 103.611 152.313 99.9195C149.909 96.3136 147.59 93.3086 147.075 93.3086C144.499 93.3086 146.818 103.611 155.662 130.656C164.935 159.331 169.916 176.846 175.497 200.628C178.417 212.905 183.053 236.859 183.139 239.434C183.139 240.035 167.683 240.465 167.683 239.864C167.683 239.778 167.082 233.51 166.395 225.955C163.991 199.34 158.238 171.609 149.565 145.68C142.438 124.217 134.195 106.187 131.533 106.187C130.159 106.187 131.276 113.227 136.857 140.529C139.605 153.922 141.751 164.998 141.58 165.169C141.494 165.341 139.519 160.533 137.372 154.523C132.907 142.418 127.326 130.913 125.608 130.398C124.063 129.883 124.921 136.15 129.988 160.533C132.306 171.78 134.195 181.396 134.109 181.997C134.109 182.598 132.993 179.336 131.619 174.871C128.7 165.084 124.063 151.776 120.628 143.448L118.052 137.352L120.027 127.136C122.174 116.06 125.351 102.924 130.76 82.3192C135.569 64.032 135.311 61.3705 129.472 69.0116C125.608 74.0771 115.476 94.5965 111.526 105.328C107.061 117.777 102.768 133.06 99.8482 147.483C98.2167 155.554 96.5853 161.392 95.5549 162.851C93.494 165.77 89.1148 175.73 86.3671 183.886L84.3921 189.896L84.8215 185.603C84.9932 183.199 86.1954 173.927 87.3975 164.998C89.9735 145.423 90.317 139.585 89.029 139.07C86.7964 138.297 78.7249 158.816 75.3761 173.927C74.6033 177.275 73.9164 180.022 73.8305 180.022C73.7446 180.022 73.6588 171.437 73.6588 160.877C73.6588 140.443 72.886 134.863 68.4209 121.04C64.8145 110.308 58.5462 99.061 56.9147 100.778C56.4853 101.121 57.344 106.702 58.7179 113.055C63.6982 136.408 63.9558 157.099 59.4907 183.027C57.6016 194.103 51.8485 218.657 50.904 219.773C50.5605 220.203 50.217 213.42 50.1312 204.749C49.8736 173.068 46.8682 129.11 43.9487 115.202C42.489 108.419 42.2314 107.732 41.0293 108.247C40.2565 108.505 39.6554 106.445 38.8826 100.349C37.7663 90.733 36.65 85.3241 35.2762 81.8899C34.074 78.7991 32.5284 80.0011 31.2404 84.9807C28.922 94.5106 26.0025 136.065 26.0025 161.907C26.0025 169.205 25.7449 174.957 25.4873 174.699C25.2297 174.356 24.4569 166.114 23.8558 156.241C21.1081 115.717 18.1886 98.2024 14.7539 101.637C11.491 104.899 8.65737 138.469 7.5411 187.749C7.2835 199.34 6.85416 215.824 6.59656 224.495L6.08136 240.207L0.5 240.035V261.585H853.5V240.121H839.336ZM92.8071 240.121C91.0039 240.121 91.0039 239.949 91.605 228.273C92.1202 216.94 92.9789 207.153 93.4082 207.668C93.4941 207.84 93.8375 215.137 94.0951 223.98C94.6103 239.949 94.6103 240.121 92.8071 240.121ZM128.184 240.121H114.703L114.102 235.571C112.213 220.289 112.814 171.437 115.047 160.705C115.562 157.958 119.168 174.442 123.032 197.194C125.437 211.617 125.437 211.617 126.896 223.379C127.583 229.046 128.184 235.142 128.184 236.859V240.121ZM247.625 239.949L242.903 239.692L241.529 234.97C240.241 230.591 240.327 229.733 241.872 221.061C242.817 215.996 243.761 212.046 244.019 212.304C244.277 212.476 246.252 218.915 248.484 226.47L252.434 240.207L247.625 239.949ZM292.105 143.105C291.418 143.534 291.246 145.423 291.504 148.685C291.933 153.922 291.675 153.922 288.584 148.342C287.811 146.882 286.695 145.68 286.18 145.68C284.806 145.68 285.149 150.145 287.64 167.23C289.614 181.139 289.958 186.462 290.216 211.617L290.645 240.121H282.745V212.819C282.745 155.811 278.881 118.808 274.33 131.944C273.643 133.746 272.956 134.347 272.098 134.004C271.153 133.661 270.466 134.176 269.951 135.549C267.976 140.787 264.455 171.179 263.425 192.471C263.167 198.138 262.738 205.092 262.395 207.925L261.879 213.077L259.046 202.345C257.5 196.421 255.439 187.921 254.409 183.457L252.692 175.3L257.243 160.705C267.203 128.939 269.35 122.499 269.607 122.499C269.779 122.499 272.183 123.959 274.845 125.848C281.543 130.398 293.479 142.332 292.105 143.105ZM319.84 203.032C319.324 205.779 318.466 211.016 317.951 214.794C317.35 218.571 316.663 222.778 316.233 224.238C315.546 226.728 315.546 226.728 315.46 223.379C315.289 219.001 311.768 197.365 309.45 187.148C307.647 179.078 306.96 164.311 308.419 165.856C308.849 166.371 310.995 170.836 313.142 175.901C315.289 180.967 317.865 188.007 318.895 191.613C320.612 197.451 320.698 198.825 319.84 203.032ZM318.981 156.498C318.466 155.382 315.546 151.347 312.541 147.569L306.96 140.701L306.359 133.575C306.101 129.625 305.586 125.676 305.414 124.818C304.641 122.156 305.843 123.272 310.48 129.54C317.865 139.67 318.552 141.13 319.84 150.145C321.042 158.559 320.784 160.362 318.981 156.498ZM338.473 142.418C337.442 144.736 335.983 145.68 335.983 144.049C335.983 143.534 333.922 140.1 331.346 136.322C326.28 128.767 327.138 128.767 335.553 136.408C339.417 139.928 339.503 140.186 338.473 142.418ZM357.449 240.121V230.763C357.449 207.496 352.641 181.568 344.655 161.993C342.165 155.897 342.079 155.296 342.938 150.66C343.453 147.913 344.226 145.852 344.569 146.11C344.913 146.281 347.145 149.372 349.55 152.806C363.632 173.154 371.703 199.254 373.421 230.076L374.022 240.121H357.449ZM562.672 219.516C562.242 228.702 561.899 237.116 561.813 238.146C561.813 240.035 561.47 240.121 554.514 240.121C550.479 240.121 547.216 239.864 547.216 239.434C547.302 237.889 549.792 216.769 550.65 210.93C552.024 201.4 554.514 187.32 557.434 172.467C558.894 165.255 560.182 159.074 560.182 158.73C560.611 156.069 561.899 169.977 562.586 184.745C563.015 195.219 563.015 209.814 562.672 219.516ZM582.765 240.121C581.133 240.121 580.704 239.778 581.047 238.576C581.219 237.803 581.734 230.505 582.078 222.521L582.765 207.925L583.795 219.516C584.396 225.869 584.911 233.167 584.911 235.571C584.997 239.864 584.911 240.121 582.765 240.121ZM669.576 239.692L669.061 211.789C668.718 196.421 668.288 178.649 668.031 172.295L667.601 160.705L669.233 165.856C670.177 168.69 672.668 178.048 674.814 186.633C679.022 203.547 683.315 225.526 684.26 234.541L684.861 240.207L669.576 239.692ZM741.876 240.121H737.24L735.866 235.056C734.492 230.162 734.492 229.561 736.295 220.89C737.24 215.824 738.27 211.875 738.442 212.046C738.614 212.218 740.503 218.4 742.563 225.783C744.71 233.167 746.427 239.434 746.427 239.692C746.427 239.949 744.367 240.121 741.876 240.121Z" stroke="#40944D" stroke-width="2" mask="url(#path-1-inside-1_24_24)"/>
</svg>
