<svg width="425" height="35" viewBox="0 0 425 35" fill="none" xmlns="http://www.w3.org/2000/svg">
<path d="M11.5148 2.24656C12.3131 1.14066 13.9598 1.14066 14.7581 2.24656L24.8479 16.2244C25.3524 16.9233 25.3524 17.8667 24.8479 18.5656L14.7581 32.5435C13.9598 33.6494 12.3131 33.6494 11.5148 32.5435L1.42504 18.5656C0.920581 17.8667 0.920581 16.9233 1.42504 16.2244L11.5148 2.24656Z" fill="#101D25"/>
<path d="M410.718 2.24656C411.516 1.14066 413.163 1.14066 413.961 2.24656L424.051 16.2244C424.555 16.9233 424.555 17.8667 424.051 18.5656L413.961 32.5435C413.163 33.6494 411.516 33.6494 410.718 32.5435L400.628 18.5656C400.124 17.8667 400.124 16.9233 400.628 16.2244L410.718 2.24656Z" fill="#101D25"/>
<line x1="22" y1="16.5" x2="402" y2="16.5" stroke="#101D25" stroke-dasharray="8 8"/>
</svg>
