<svg width="75" height="75" viewBox="0 0 75 75" fill="none" xmlns="http://www.w3.org/2000/svg">
<path d="M37.1536 54.5071V53.3809M37.1536 54.5071H52.618V59.2109H49.4532M37.1536 54.5071H21.7605V59.2109H24.5507M37.1536 12.4441V32.2678M37.1536 32.2678C40.347 25.8357 42.5285 22.6447 47.5791 18.1925M37.1536 32.2678C34.8911 24.414 32.7398 21.0868 27.049 17.4429M37.1536 32.2678V53.2143M37.1536 53.2143C39.3788 46.8853 41.9746 43.0904 50.7856 35.5576M37.1536 53.2143V53.3809M37.1536 53.3809C32.9185 43.2879 29.7642 39.0424 23.1762 33.2256M24.5507 59.2109V68.7471C24.5507 71.9537 27.424 73.8276 31.9215 73.8276H42.7903C46.8714 73.8276 49.4532 71.4539 49.4532 68.7471V59.2109M24.5507 59.2109H49.4532" stroke="#40944D"/>
<path d="M46.6634 6.3738C46.7998 6.51874 46.8918 6.75487 46.8774 7.1286C46.8629 7.50477 46.7402 7.97841 46.4957 8.52394C46.0076 9.61284 45.0764 10.8947 43.8055 12.0908C42.5345 13.2869 41.1986 14.1387 40.0821 14.5598C39.5227 14.7708 39.0425 14.8647 38.6662 14.8563C38.2922 14.848 38.0621 14.7418 37.9257 14.5969C37.7893 14.452 37.6973 14.2158 37.7117 13.8421C37.7261 13.4659 37.8489 12.9923 38.0934 12.4468C38.5815 11.3579 39.5127 10.076 40.7836 8.87987C42.0546 7.68376 43.3905 6.83202 44.507 6.41085C45.0664 6.19985 45.5466 6.10603 45.9229 6.11439C46.2968 6.12269 46.527 6.22887 46.6634 6.3738Z" stroke="#40944D"/>
<path d="M27.2784 6.74469C27.4099 6.59526 27.6363 6.48144 28.0097 6.46061C28.3856 6.43965 28.8687 6.51732 29.4348 6.70946C30.5647 7.09298 31.9285 7.89948 33.2388 9.05233C34.5491 10.2052 35.5227 11.4551 36.047 12.5271C36.3097 13.0641 36.4482 13.5334 36.4753 13.9088C36.5022 14.2819 36.4181 14.521 36.2867 14.6704C36.1552 14.8198 35.9288 14.9336 35.5553 14.9545C35.1795 14.9754 34.6964 14.8977 34.1303 14.7056C33.0003 14.3221 31.6366 13.5156 30.3262 12.3627C29.0159 11.2099 28.0423 9.95993 27.5181 8.888C27.2554 8.35096 27.1168 7.88171 27.0898 7.50623C27.0629 7.13319 27.1469 6.89411 27.2784 6.74469Z" stroke="#40944D"/>
<path d="M55.0251 8.53108C55.1843 8.65047 55.3155 8.8673 55.3655 9.23796C55.4158 9.61104 55.3761 10.0987 55.2288 10.6781C54.9348 11.8346 54.2374 13.2572 53.1905 14.6537C52.1437 16.0501 50.9737 17.1185 49.946 17.725C49.4311 18.0288 48.9742 18.2036 48.602 18.26C48.2322 18.3159 47.9872 18.2508 47.828 18.1314C47.6687 18.0121 47.5376 17.7952 47.4876 17.4246C47.4373 17.0515 47.477 16.5638 47.6243 15.9844C47.9183 14.8279 48.6157 13.4053 49.6625 12.0088C50.7094 10.6124 51.8794 9.54407 52.9071 8.93758C53.4219 8.63373 53.8789 8.45891 54.2511 8.40257C54.6209 8.34659 54.8659 8.4117 55.0251 8.53108Z" stroke="#40944D"/>
<path d="M60.5606 28.145C60.68 28.3043 60.745 28.5492 60.689 28.919C60.6326 29.2912 60.4576 29.7481 60.1537 30.2629C59.547 31.2905 58.4784 32.4602 57.0818 33.5068C55.6851 34.5534 54.2623 35.2505 53.1058 35.5443C52.5263 35.6915 52.0387 35.731 51.6656 35.6807C51.2949 35.6306 51.0781 35.4994 50.9588 35.3401C50.8394 35.1809 50.7744 34.9359 50.8304 34.5662C50.8868 34.194 51.0618 33.737 51.3657 33.2222C51.9724 32.1947 53.041 31.0249 54.4376 29.9783C55.8343 28.9317 57.2571 28.2346 58.4136 27.9408C58.9931 27.7937 59.4807 27.7541 59.8538 27.8045C60.2245 27.8545 60.4413 27.9857 60.5606 28.145Z" stroke="#40944D"/>
<path d="M43.3236 30.312C43.5149 30.3207 43.7415 30.4247 43.9902 30.7089C44.2402 30.9945 44.4802 31.4287 44.6829 32.002C45.0873 33.1461 45.3082 34.7458 45.2272 36.5235C45.1461 38.3012 44.7807 39.8741 44.2738 40.9767C44.0198 41.5292 43.7413 41.9398 43.4664 42.2014C43.1929 42.4618 42.9577 42.5448 42.7664 42.5361C42.5751 42.5274 42.3485 42.4233 42.0998 42.1391C41.8499 41.8536 41.6098 41.4194 41.4071 40.846C41.0027 39.7019 40.7818 38.1023 40.8628 36.3246C40.9439 34.5468 41.3094 32.9739 41.8162 31.8714C42.0702 31.3188 42.3488 30.9083 42.6236 30.6466C42.8972 30.3862 43.1323 30.3033 43.3236 30.312Z" stroke="#40944D"/>
<path d="M52.0554 46.0842C52.0616 46.2641 51.9831 46.4844 51.7399 46.7395C51.495 46.9964 51.1111 47.2563 50.5933 47.4919C49.5598 47.9621 48.0866 48.2931 46.423 48.3498C44.7593 48.4065 43.267 48.1766 42.2039 47.7778C41.6712 47.578 41.2705 47.3448 41.0088 47.1052C40.7487 46.8672 40.6555 46.6528 40.6493 46.4729C40.6432 46.2929 40.7217 46.0727 40.9649 45.8176C41.2097 45.5607 41.5936 45.3008 42.1115 45.0652C43.1449 44.5949 44.6182 44.264 46.2818 44.2073C47.9454 44.1506 49.4378 44.3805 50.5008 44.7793C51.0335 44.9791 51.4342 45.2123 51.696 45.4519C51.956 45.6899 52.0493 45.9043 52.0554 46.0842Z" stroke="#40944D"/>
<path d="M32.3953 44.3332C32.3859 44.513 32.2887 44.7256 32.0244 44.9588C31.7583 45.1936 31.3534 45.4194 30.8171 45.6095C29.7469 45.9887 28.2507 46.1913 26.5883 46.1042C24.926 46.0171 23.4591 45.6592 22.4344 45.1702C21.921 44.9251 21.5419 44.6582 21.3017 44.397C21.0632 44.1374 20.9888 43.9158 20.9982 43.736C21.0077 43.5562 21.1048 43.3435 21.3692 43.1103C21.6353 42.8756 22.0402 42.6497 22.5764 42.4597C23.6466 42.0804 25.1429 41.8779 26.8052 41.965C28.4676 42.0521 29.9345 42.4099 30.9592 42.899C31.4726 43.144 31.8517 43.4109 32.0918 43.6722C32.3303 43.9318 32.4047 44.1534 32.3953 44.3332Z" stroke="#40944D"/>
<path d="M22.8991 33.562C22.7932 33.7077 22.5959 33.8331 22.2472 33.8847C21.8962 33.9367 21.4336 33.9056 20.8804 33.7729C19.7763 33.5082 18.411 32.8633 17.0643 31.8849C15.7175 30.9066 14.6821 29.8076 14.089 28.8394C13.7918 28.3542 13.6192 27.9239 13.5601 27.574C13.5015 27.2265 13.5597 27 13.6656 26.8544C13.7714 26.7087 13.9687 26.5833 14.3174 26.5316C14.6684 26.4797 15.131 26.5108 15.6842 26.6434C16.7884 26.9082 18.1536 27.5531 19.5004 28.5315C20.8471 29.5098 21.8825 30.6088 22.4756 31.577C22.7728 32.0621 22.9454 32.4924 23.0045 32.8423C23.0632 33.1899 23.0049 33.4163 22.8991 33.562Z" stroke="#40944D"/>
<path d="M30.5761 39.7457C30.396 39.7476 30.1777 39.6638 29.9285 39.4145C29.6776 39.1636 29.427 38.7735 29.2039 38.2502C28.7587 37.2057 28.4632 35.725 28.4466 34.0604C28.4299 32.3959 28.6956 30.9096 29.1198 29.8564C29.3324 29.3287 29.5751 28.9337 29.821 28.6777C30.0651 28.4235 30.2817 28.3354 30.4617 28.3336C30.6418 28.3318 30.8601 28.4155 31.1093 28.6648C31.3602 28.9158 31.6108 29.3058 31.8339 29.8292C32.2791 30.8737 32.5746 32.3544 32.5913 34.0189C32.6079 35.6834 32.3422 37.1698 31.918 38.223C31.7054 38.7507 31.4627 39.1457 31.2169 39.4016C30.9727 39.6559 30.7561 39.7439 30.5761 39.7457Z" stroke="#40944D"/>
<path d="M26.6959 17.5942C26.5837 17.735 26.381 17.8515 26.0303 17.8876C25.6773 17.9239 25.2166 17.8722 24.6698 17.7151C23.5786 17.4015 22.2434 16.6964 20.9415 15.659C19.6396 14.6217 18.6542 13.4777 18.1048 12.484C17.8295 11.9862 17.6762 11.5486 17.6328 11.1964C17.5896 10.8466 17.6579 10.623 17.7701 10.4822C17.8823 10.3413 18.085 10.2248 18.4357 10.1888C18.7887 10.1525 19.2494 10.2042 19.7962 10.3613C20.8874 10.6749 22.2226 11.38 23.5245 12.4174C24.8264 13.4547 25.8118 14.5987 26.3612 15.5923C26.6365 16.0902 26.7898 16.5278 26.8332 16.88C26.8764 17.2298 26.8081 17.4534 26.6959 17.5942Z" stroke="#40944D"/>
<path d="M32.3523 22.5269C32.3702 22.7061 32.3064 22.931 32.0805 23.2015C31.853 23.4739 31.487 23.7585 30.9857 24.0275C29.9853 24.5646 28.537 24.9915 26.8807 25.1572C25.2243 25.323 23.7201 25.1915 22.6332 24.8633C22.0885 24.6989 21.6734 24.4925 21.3965 24.2706C21.1214 24.0502 21.0142 23.8424 20.9963 23.6632C20.9784 23.4841 21.0422 23.2591 21.2682 22.9886C21.4956 22.7162 21.8617 22.4317 22.3629 22.1626C23.3633 21.6256 24.8116 21.1986 26.468 21.0329C28.1243 20.8672 29.6285 20.9987 30.7155 21.3268C31.2601 21.4913 31.6753 21.6976 31.9522 21.9195C32.2273 22.14 32.3344 22.3478 32.3523 22.5269Z" stroke="#40944D"/>
<path d="M52.3956 22.7676C52.4422 22.9415 52.4154 23.1738 52.236 23.4772C52.0554 23.7827 51.74 24.1225 51.2887 24.4689C50.3879 25.1601 49.0273 25.8148 47.4194 26.2453C45.8114 26.6758 44.3057 26.7885 43.18 26.6398C42.616 26.5653 42.173 26.4285 41.864 26.2541C41.557 26.0809 41.4177 25.8931 41.3712 25.7192C41.3246 25.5452 41.3514 25.313 41.5308 25.0095C41.7114 24.7041 42.0268 24.3643 42.4781 24.0179C43.3789 23.3267 44.7394 22.6719 46.3474 22.2414C47.9554 21.8109 49.4611 21.6983 50.5867 21.847C51.1508 21.9215 51.5938 22.0583 51.9028 22.2327C52.2098 22.4059 52.3491 22.5937 52.3956 22.7676Z" stroke="#40944D"/>
<path d="M36.8048 0.555882C36.9415 0.555882 37.1325 0.628472 37.3664 0.89387C37.5995 1.15849 37.8323 1.57008 38.0379 2.12172C38.4477 3.22123 38.7113 4.77365 38.7113 6.51293C38.7113 8.2522 38.4477 9.80462 38.0379 10.9041C37.8323 11.4558 37.5995 11.8674 37.3664 12.132C37.1325 12.3974 36.9415 12.47 36.8048 12.47C36.6681 12.47 36.477 12.3974 36.2432 12.132C36.01 11.8674 35.7772 11.4558 35.5716 10.9041C35.1618 9.80462 34.8982 8.2522 34.8982 6.51293C34.8982 4.77365 35.1618 3.22123 35.5716 2.12173C35.7772 1.57008 36.01 1.15849 36.2432 0.89387C36.477 0.628472 36.6681 0.555882 36.8048 0.555882Z" stroke="#40944D"/>
</svg>
