<svg width="1793" height="35" viewBox="0 0 1793 35" fill="none" xmlns="http://www.w3.org/2000/svg">
<path d="M11.1838 2.39011C11.982 1.28421 13.6288 1.28421 14.4271 2.39011L24.5169 16.368C25.0213 17.0669 25.0213 18.0103 24.5169 18.7091L14.4271 32.687C13.6288 33.7929 11.982 33.7929 11.1838 32.687L1.09399 18.7091C0.589527 18.0103 0.589526 17.0669 1.09399 16.368L11.1838 2.39011Z" fill="#101D25"/>
<path d="M430.614 2.39011C431.413 1.28421 433.059 1.28421 433.858 2.39011L443.948 16.368C444.452 17.0669 444.452 18.0103 443.948 18.7091L433.858 32.687C433.059 33.7929 431.413 33.7929 430.614 32.687L420.525 18.7091C420.02 18.0103 420.02 17.0669 420.525 16.368L430.614 2.39011Z" fill="#101D25"/>
<path d="M838.422 2.39011C839.221 1.28421 840.867 1.28421 841.666 2.39011L851.755 16.368C852.26 17.0669 852.26 18.0103 851.755 18.7091L841.666 32.687C840.867 33.7929 839.221 33.7929 838.422 32.687L828.333 18.7091C827.828 18.0103 827.828 17.0669 828.333 16.368L838.422 2.39011Z" fill="#101D25"/>
<path d="M1378.76 2.39011C1379.56 1.28421 1381.21 1.28421 1382.01 2.39011L1392.1 16.368C1392.6 17.0669 1392.6 18.0103 1392.1 18.7091L1382.01 32.687C1381.21 33.7929 1379.56 33.7929 1378.76 32.687L1368.67 18.7091C1368.17 18.0103 1368.17 17.0669 1368.67 16.368L1378.76 2.39011Z" fill="#101D25"/>
<path d="M1777.97 2.39011C1778.77 1.28421 1780.41 1.28421 1781.21 2.39011L1791.3 16.368C1791.8 17.0669 1791.8 18.0103 1791.3 18.7091L1781.21 32.687C1780.41 33.7929 1778.77 33.7929 1777.97 32.687L1767.88 18.7091C1767.37 18.0103 1767.37 17.0669 1767.88 16.368L1777.97 2.39011Z" fill="#101D25"/>
<line x1="11.8721" y1="16.5176" x2="1792.15" y2="16.5176" stroke="#101D25" stroke-dasharray="8 8"/>
</svg>
